<svg xmlns="http://www.w3.org/2000/svg" xmlns:xlink="http://www.w3.org/1999/xlink" viewBox="0 0 595.28 595.28"><defs><style>.cls-1,.cls-3{fill:none;}.cls-2{clip-path:url(#clip-path);}.cls-3{opacity:0.1;font-size:93.52px;font-family:Poppins-Bold, Poppins;font-weight:700;}.cls-3,.cls-34,.cls-35,.cls-36{stroke:#fff;}.cls-3,.cls-35{stroke-miterlimit:10;}.cls-4{fill:#2b2c2b;}.cls-5{fill:#f9b89c;}.cls-35,.cls-6{fill:#14487a;}.cls-7{fill:#ec996f;}.cls-8{fill:#263238;}.cls-9{opacity:0.3;}.cls-10,.cls-34{fill:#a97d33;}.cls-10,.cls-11,.cls-12,.cls-34,.cls-35,.cls-36{fill-rule:evenodd;}.cls-11,.cls-19{fill:#fff;}.cls-12,.cls-36{fill:#25b3b4;}.cls-13{fill:#e0e1e0;}.cls-14{fill:#fbbd9d;}.cls-15{fill:#455b64;}.cls-16{fill:#192226;}.cls-17{fill:#cfcfce;}.cls-18{fill:#f7b192;}.cls-20{fill:#202528;}.cls-21{fill:#191919;}.cls-22{fill:#1e1e1e;}.cls-23{fill:#212121;}.cls-24{fill:#f3725f;}.cls-25{fill:#3e3e3e;}.cls-26{fill:#d0957b;}.cls-27{fill:#5a6969;}.cls-28{opacity:0.4;}.cls-29{fill:#fafbfb;}.cls-30{fill:#171717;}.cls-31{fill:#212526;}.cls-32{fill:#e0e0e0;}.cls-33{fill:#282828;}.cls-34,.cls-36{stroke-miterlimit:22.93;}.cls-34,.cls-35,.cls-36{stroke-width:5px;}</style><clipPath id="clip-path"><rect class="cls-1" x="-878.13" y="-8.13" width="850.99" height="1208.54"/></clipPath></defs><g id="Layer_2" data-name="Layer 2"><g class="cls-2"><text class="cls-3" transform="translate(-98.8 650)">#ENTGEN17</text><text class="cls-3" transform="translate(-333.95 565.26)">#ENTGEN17</text></g></g><g id="Layer_1" data-name="Layer 1"><path class="cls-4" d="M293.42,208.07s-18.29,5.69-32.62,2.24C260.8,210.31,272.71,215.49,293.42,208.07Z"/><path class="cls-5" d="M545.83,225.55l1.51,49.5a16.12,16.12,0,0,1-7.2,13.43h0a16.11,16.11,0,0,1-20.07-1.84L503.88,271l1.75-36.48,21.62,22.22,1.09-31.59Z"/><polygon class="cls-6" points="481.22 206.78 502.71 216.6 525.45 250.15 506.48 274.99 491.96 268.61 481.22 206.78"/><path class="cls-7" d="M527.51,256.48c-.08,0-.14,3.7-.14,8.27s.06,8.26.14,8.26.14-3.7.14-8.26S527.59,256.48,527.51,256.48Z"/><polygon class="cls-6" points="494.82 213.78 483.64 208.02 477.22 200.73 447.28 198.76 439.03 205.06 418.54 211.18 422.77 267.2 418.64 329.91 502.71 329.72 502.71 268.78 494.82 213.78"/><path class="cls-8" d="M502.83,248.5c-.08,0-.17,16.17-.2,36.11s0,36.12.08,36.12.17-16.17.2-36.12S502.9,248.5,502.83,248.5Z"/><path class="cls-8" d="M460,256.49h.43l1.22,0,4.47-.21h.1v-.11c-.07-3.53-.17-8.29-.27-13.54-.14-5.42-.28-10.33-.37-13.91-.06-1.76-.1-3.19-.14-4.22,0-.47,0-.86-.05-1.14a2.38,2.38,0,0,0,0-.4,1.71,1.71,0,0,0,0,.4v1.14c0,1,0,2.46.05,4.22.07,3.59.17,8.49.28,13.91.14,5.25.26,10,.36,13.55l.09-.11-4.47.3-1.21.1A2.14,2.14,0,0,0,460,256.49Z"/><path class="cls-8" d="M461.66,230.65a.69.69,0,0,0-.44.07,1.73,1.73,0,0,0-.89.79,2,2,0,0,0-.16,1.77,1.66,1.66,0,0,0,.75.8,2.17,2.17,0,0,0,2.23-.18,1.61,1.61,0,0,0,.6-.91,2,2,0,0,0-.43-1.72,1.84,1.84,0,0,0-1-.64.73.73,0,0,0-.44,0s.16,0,.41.11a1.75,1.75,0,0,1,.89.65,1.83,1.83,0,0,1,.34,1.53,1.72,1.72,0,0,1-3.09.25,1.91,1.91,0,0,1,.86-2.35C461.51,230.69,461.66,230.67,461.66,230.65Z"/><path class="cls-8" d="M461.72,241.46a.76.76,0,0,0-.43.07,1.86,1.86,0,0,0-.9.8,2,2,0,0,0-.16,1.77,1.7,1.7,0,0,0,.75.8,2.14,2.14,0,0,0,2.23-.19,1.53,1.53,0,0,0,.61-.9,2,2,0,0,0-.44-1.73,1.88,1.88,0,0,0-1-.64.74.74,0,0,0-.44,0s.15,0,.4.1a1.94,1.94,0,0,1,1.24,2.19,1.73,1.73,0,0,1-3.1.25,1.85,1.85,0,0,1,.09-1.57,2,2,0,0,1,.77-.79C461.57,241.51,461.73,241.49,461.72,241.46Z"/><g class="cls-9"><path d="M489.72,259.16c-7.58,10.34-13.53,21.89-22,31.53s-20.34,17.44-33.14,16.82c-4.09-.19-11.28-1.57-14.19-4.44l1.07-11a139.52,139.52,0,0,0,56.7-30.17c2.84-2.51,6.13-5.32,9.89-4.84Z"/></g><path class="cls-10" d="M487.26,237.27a.87.87,0,1,1,0,1.73.87.87,0,0,1,0-1.73Z"/><polygon class="cls-11" points="481.36 239 481.36 233.09 486.11 233.09 486.11 234.49 482.98 234.49 482.98 235.38 486.11 235.38 486.11 236.67 482.98 236.67 482.98 237.61 486.11 237.61 486.11 239 481.36 239"/><polygon class="cls-12" points="488.12 236.67 486.5 235.05 486.5 233.09 487.58 233.09 490.46 236.21 490.46 235.05 492.08 236.67 492.08 239 491.23 239 488.12 235.76 488.12 236.67"/><path class="cls-11" d="M493,234.53h-2.5v-1.44h5.91v1.44H494.6v3.33c0,.64-.74,1.14-1.64,1.14Z"/><path class="cls-13" d="M477.21,161.16c0,5,3.79,9,8.45,9s8.44-4,8.44-9-3.78-9-8.44-9S477.21,156.17,477.21,161.16Z"/><path class="cls-8" d="M485,152.12a9.48,9.48,0,0,1-.93.47,7.48,7.48,0,0,0-2.22,1.7A8.49,8.49,0,0,0,480,158a9.54,9.54,0,0,0,0,5,9.79,9.79,0,0,0,2.52,4.34,7.69,7.69,0,0,0,3.55,2,5.61,5.61,0,0,0,2.76.05c.65-.16,1-.35,1-.32s-.07.07-.22.16a3.72,3.72,0,0,1-.72.31,5.36,5.36,0,0,1-2.88.08,7.85,7.85,0,0,1-3.74-2.06,10,10,0,0,1-2.65-4.51,9.72,9.72,0,0,1,0-5.22,8.59,8.59,0,0,1,2-3.78,7.12,7.12,0,0,1,2.36-1.65,5.5,5.5,0,0,1,.73-.27A.85.85,0,0,1,485,152.12Z"/><path class="cls-8" d="M478.33,165.85c-.05,0-.12-.17-.09-.46a1.51,1.51,0,0,1,.53-1,1.54,1.54,0,0,1,1.06-.37c.29,0,.45.12.44.17s-.69,0-1.24.51S478.44,165.85,478.33,165.85Z"/><path class="cls-8" d="M478.68,163.07c0-.1.22-.29.59-.3s.64.16.6.26-.29.13-.59.14S478.72,163.17,478.68,163.07Z"/><path class="cls-8" d="M478.69,155.6c-.06-.1.44-.36,1-.12s.8.76.69.8-.38-.26-.83-.43S478.72,155.71,478.69,155.6Z"/><path class="cls-14" d="M463.57,222h0a15.45,15.45,0,0,0,14.2-16.17c-.29-5.85-.6-11.13-.6-11.13s12.55-1.95,12.71-14.49-2-41.36-2-41.36h0A43.62,43.62,0,0,0,444,144.32l-1.86,1.43,4.76,62A15.44,15.44,0,0,0,463.57,222Z"/><path class="cls-7" d="M477.19,194.49a29.21,29.21,0,0,1-16.35-4.65s3.87,9,16.38,7.9Z"/><path class="cls-8" d="M467.85,172.45c.32,0,.32,2.08,2.11,3.56s4,1.26,4,1.55c0,.13-.5.41-1.44.43a5.17,5.17,0,0,1-3.37-1.17,4.54,4.54,0,0,1-1.63-3C467.48,173,467.71,172.44,467.85,172.45Z"/><path class="cls-8" d="M467,149.27c-.19.52-2.12.27-4.38.55s-4.09.88-4.39.42c-.13-.23.18-.72.92-1.23a7.29,7.29,0,0,1,3.25-1.14,7.39,7.39,0,0,1,3.43.4C466.69,148.61,467.11,149,467,149.27Z"/><path class="cls-8" d="M485.77,153.59c-.34.47-1.89.17-3.71.33s-3.32.62-3.72.2c-.18-.21,0-.66.65-1.14a5.69,5.69,0,0,1,2.95-1,5.62,5.62,0,0,1,3,.59C485.67,152.93,485.92,153.36,485.77,153.59Z"/><path class="cls-14" d="M443.73,158.75c-.22-.1-8.62-2.55-8.35,6s8.83,6.53,8.84,6.28S443.73,158.75,443.73,158.75Z"/><path class="cls-7" d="M441.49,167.9s-.14.11-.39.23a1.52,1.52,0,0,1-1.12.06c-.91-.3-1.72-1.72-1.81-3.26a4.89,4.89,0,0,1,.35-2.16,1.74,1.74,0,0,1,1.08-1.18.76.76,0,0,1,.9.38c.12.24.07.41.12.42s.18-.15.1-.5a.9.9,0,0,0-.36-.52,1.14,1.14,0,0,0-.83-.2,2.13,2.13,0,0,0-1.52,1.38,5.09,5.09,0,0,0-.44,2.41c.11,1.73,1.05,3.32,2.3,3.63a1.59,1.59,0,0,0,1.36-.27C441.49,168.1,441.52,167.91,441.49,167.9Z"/><path class="cls-8" d="M492.66,128a13.27,13.27,0,0,0-20.61-4,13.25,13.25,0,0,0-9.93-7.05c-.27,0-.53-.06-.79-.07A11.31,11.31,0,0,0,449.72,126l-.62,3s-10.6,3.61-13.05,5.58a9.47,9.47,0,0,0,3.37,16.51c-2.68,4.85-.16,11.81,5,13.81l1.25-.52a17.85,17.85,0,0,0,2.6-19.69l.45,0a10,10,0,0,0,13-3,11.14,11.14,0,0,0,12,.5,4.5,4.5,0,0,1,1.8-.81,4.18,4.18,0,0,1,2.24.67,10.63,10.63,0,0,0,6.08,1.23,5.92,5.92,0,0,0,4.56-3.27h.14a6.77,6.77,0,0,0,5-4.87A10,10,0,0,0,492.66,128Z"/><path class="cls-13" d="M437.38,158.35S432.11,133,446.76,129h2.34s-10.47,8.15-6.92,28.58Z"/><path class="cls-13" d="M450,165.85c0,5-3.78,9-8.45,9s-8.44-4-8.44-9,3.78-9,8.44-9S450,160.86,450,165.85Z"/><path class="cls-8" d="M442.17,156.81a.85.85,0,0,1,.27.06,5.5,5.5,0,0,1,.73.27,7,7,0,0,1,2.36,1.65,8.49,8.49,0,0,1,2,3.78,9.72,9.72,0,0,1,0,5.22,9.91,9.91,0,0,1-2.65,4.51,7.85,7.85,0,0,1-3.74,2.06,5.37,5.37,0,0,1-2.88-.08,3.72,3.72,0,0,1-.72-.31c-.15-.09-.23-.15-.22-.16s.34.16,1,.32a5.53,5.53,0,0,0,2.77,0,7.71,7.71,0,0,0,3.54-2.05,9.73,9.73,0,0,0,2.54-9.37,8.43,8.43,0,0,0-1.83-3.68,7.48,7.48,0,0,0-2.22-1.7A9.48,9.48,0,0,1,442.17,156.81Z"/><path class="cls-8" d="M448.83,170.54c-.11,0-.14-.67-.7-1.14s-1.23-.4-1.24-.51.15-.15.44-.17a1.55,1.55,0,0,1,1.59,1.36C449,170.37,448.88,170.54,448.83,170.54Z"/><path class="cls-8" d="M448.48,167.76c0,.1-.3.11-.6.1s-.56,0-.59-.14.23-.27.6-.26S448.52,167.66,448.48,167.76Z"/><path class="cls-8" d="M448.48,160.29c0,.11-.46.06-.91.25s-.73.48-.83.42.09-.56.69-.79S448.53,160.19,448.48,160.29Z"/><path class="cls-8" d="M458.26,119.57c0,.07-1,.05-2.69.13a13.51,13.51,0,0,0-2.84.44,7.35,7.35,0,0,0-3,1.64,4.68,4.68,0,0,0-1.56,3,5.89,5.89,0,0,0,.43,2.77c.62,1.52,1.3,2.32,1.23,2.37a2.28,2.28,0,0,1-.48-.55,8.52,8.52,0,0,1-1-1.71,5.92,5.92,0,0,1-.54-2.92,5,5,0,0,1,1.66-3.23,7.38,7.38,0,0,1,3.2-1.71,12.27,12.27,0,0,1,2.93-.36c.84,0,1.51,0,2,.06A2.9,2.9,0,0,1,458.26,119.57Z"/><path class="cls-8" d="M447.77,119.11c.06,0-.33.57-.69,1.54a7.27,7.27,0,0,0,1.35,7.48c.67.78,1.22,1.14,1.18,1.19a3.58,3.58,0,0,1-1.39-1,7,7,0,0,1-1.4-7.78A3.84,3.84,0,0,1,447.77,119.11Z"/><path class="cls-15" d="M484.91,129.73a.81.81,0,0,1-.05.29,4.17,4.17,0,0,1-.28.82,7.4,7.4,0,0,1-1.85,2.61,7.31,7.31,0,0,1-4.37,1.94,7.82,7.82,0,0,1-5.64-1.76l.3,0a9.08,9.08,0,0,1-7.4,3.86,8.94,8.94,0,0,1-7.55-4.42,5.66,5.66,0,0,1-.43-.9,1.43,1.43,0,0,1-.11-.33s.22.43.67,1.15a9.26,9.26,0,0,0,2.47,2.55,8.49,8.49,0,0,0,4.95,1.58,8.8,8.8,0,0,0,7.07-3.72l.12-.18.17.14a7.54,7.54,0,0,0,5.36,1.72,7.13,7.13,0,0,0,4.21-1.79,7.66,7.66,0,0,0,1.9-2.47C484.77,130.12,484.88,129.72,484.91,129.73Z"/><path class="cls-15" d="M485.76,138.54a3,3,0,0,1-1.06,1,6.34,6.34,0,0,1-6.8.18,3,3,0,0,1-1.11-1c0-.05.47.32,1.25.71a6.85,6.85,0,0,0,3.28.75,7,7,0,0,0,3.23-.92C485.31,138.88,485.71,138.49,485.76,138.54Z"/><path class="cls-8" d="M485.65,159.32c-.22.23-1.58-.77-3.51-.77s-3.35,1-3.56.74.12-.53.74-1a5,5,0,0,1,2.85-.88,4.69,4.69,0,0,1,2.79.91C485.56,158.79,485.76,159.22,485.65,159.32Z"/><path class="cls-8" d="M464.92,159.21a1.8,1.8,0,0,1-1.73,1.81,1.72,1.72,0,0,1-1.85-1.62,1.79,1.79,0,0,1,1.73-1.81A1.71,1.71,0,0,1,464.92,159.21Z"/><path class="cls-8" d="M466.66,157.09c-.22.24-1.58-.77-3.51-.76s-3.35,1-3.56.73.13-.53.75-1a4.84,4.84,0,0,1,2.84-.88,4.72,4.72,0,0,1,2.8.9C466.57,156.57,466.77,157,466.66,157.09Z"/><path class="cls-8" d="M473.67,171.42a12.82,12.82,0,0,1,3.14-.57c.49,0,1-.15,1-.48a2.43,2.43,0,0,0-.33-1.47l-1.45-3.75c-2-5.35-3.49-9.74-3.28-9.82s2,4.18,4.06,9.53c.49,1.32.95,2.58,1.4,3.78a2.9,2.9,0,0,1,.25,1.93,1.24,1.24,0,0,1-.81.73,3.4,3.4,0,0,1-.84.11A12.52,12.52,0,0,1,473.67,171.42Z"/><polygon class="cls-6" points="477.52 201.02 466.03 217.47 464.99 221.78 463.13 217.47 445.35 200.24 445.35 216.77 458.63 224.75 466.03 225.55 477.22 221.35 480.45 214.64 477.52 201.02"/><path class="cls-8" d="M466.49,217.48s.31,0,.84.12a5.26,5.26,0,0,1,2.1,1,15.61,15.61,0,0,1,4.47,6.63l.1.27.14-.25,2-3.61c2.07-3.74,3.95-7.12,5.33-9.6l1.58-2.93c.18-.32.31-.59.42-.8a.86.86,0,0,0,.13-.29,1.43,1.43,0,0,0-.17.26c-.13.2-.28.46-.47.78l-1.67,2.88-5.4,9.56-2,3.62.25,0a15.19,15.19,0,0,0-4.62-6.68,5.3,5.3,0,0,0-2.18-1,4.21,4.21,0,0,0-.64,0A.57.57,0,0,0,466.49,217.48Z"/><path class="cls-8" d="M440.2,205.08a1.74,1.74,0,0,0,.19.33l.6.91c.53.77,1.32,1.89,2.32,3.25a122.74,122.74,0,0,0,8.43,10.13c2.29,2.47,4.54,4.68,6.5,6.5l.14.13.06-.17a39.18,39.18,0,0,1,2.92-6.17c.41-.72.76-1.27,1-1.65a4.18,4.18,0,0,0,.35-.58l-.11.13c-.08.12-.18.25-.3.41-.26.36-.62.91-1.06,1.61a37.2,37.2,0,0,0-3,6.16l.2,0c-1.94-1.84-4.18-4.05-6.46-6.51-3.49-3.77-6.43-7.39-8.48-10.06-1-1.34-1.83-2.44-2.39-3.2l-.64-.87A2.44,2.44,0,0,0,440.2,205.08Z"/><g class="cls-9"><path d="M465.32,228.34c-.92-1.12-.8-3.13-2.17-3.63a1.84,1.84,0,0,0-1.94.55c-1.26,1.37-.9,3.37-2.06,4.8a2.14,2.14,0,0,1-.8.63c-1.31.58-2.41-.44-3.26-1.36q-2.43-2.62-4.8-5.3a48,48,0,0,1-5.58-7.22,17.58,17.58,0,0,1-2.66-8.64,143.51,143.51,0,0,0,16.27,17.94,28.2,28.2,0,0,1,3.6-7.17c.19-.31.87-1.34,1.21-1.47.18-.07-.17-.08,0,0l1.86,4.31s.83-3.51,1-4.31a5.1,5.1,0,0,1,2.21.35,8.56,8.56,0,0,1,1.53.92,10.11,10.11,0,0,1,4,6.22,7.18,7.18,0,0,1-2.87-2c-.89-.78-2.11-1.45-3.21-1s-1.55,1.82-1.61,3a8.15,8.15,0,0,1-.54,3.56Z"/></g><polygon class="cls-15" points="442.34 149.98 442.18 155.37 436.12 156.13 435.92 150.51 442.34 149.98"/><path class="cls-15" d="M438,123.85c-.08,0-.14,7.19-.14,16.07S437.93,156,438,156s.14-7.2.14-16.08S438.09,123.85,438,123.85Z"/><path class="cls-15" d="M439.39,248.92a1.64,1.64,0,0,0,0-.29c0-.21,0-.5,0-.88,0-.78.06-1.91.11-3.36.09-2.93.22-7.16.39-12.37s.33-11.44.53-18.34c.06-1.73.07-3.51.17-5.3a3.15,3.15,0,0,1,1.06-2.31,2,2,0,0,1,1.21-.41,1.19,1.19,0,0,1,1,.63,1.71,1.71,0,0,1-.86,2.2,2.37,2.37,0,0,1-2.48-.67,4,4,0,0,1-1-2.58,8.85,8.85,0,0,1,.21-2.9,3.39,3.39,0,0,1,.8-1.45,2.37,2.37,0,0,1,1.43-.74,1.48,1.48,0,0,1,1.39.56,1.41,1.41,0,0,1,.24,1.45,1.22,1.22,0,0,1-1.29.59,1.83,1.83,0,0,1-1.29-.79,5.2,5.2,0,0,1-.61-3.09,4.55,4.55,0,0,1,.34-1.53,2.12,2.12,0,0,1,1-1.08,1.89,1.89,0,0,1,1.44,0,1.08,1.08,0,0,1,.73,1.07,1,1,0,0,1-.26.62,1.85,1.85,0,0,1-.58.41,2.09,2.09,0,0,1-1.39.14,2,2,0,0,1-1.06-.87,3.94,3.94,0,0,1-.51-1.32,9.89,9.89,0,0,1,0-2.82,2.78,2.78,0,0,1,1.26-2.22,1.8,1.8,0,0,1,1.22-.2,1.09,1.09,0,0,1,.83.76,1.36,1.36,0,0,1-.27,1.12,1.82,1.82,0,0,1-.93.69,1.46,1.46,0,0,1-1.1-.13,2.09,2.09,0,0,1-.79-.8,3,3,0,0,1-.28-2.15,4.58,4.58,0,0,1,1-1.83,11.62,11.62,0,0,1,1.45-1.37l0,0v0c-.24-3.79-.43-6.79-.55-8.86-.08-1-.13-1.8-.17-2.35,0-.26,0-.45,0-.6l0-.2a1,1,0,0,0,0,.2c0,.15,0,.35,0,.61,0,.54.07,1.33.12,2.34.11,2.07.27,5.08.48,8.87l0-.08a12.79,12.79,0,0,0-1.48,1.39,4.63,4.63,0,0,0-1.07,1.9,3.2,3.2,0,0,0,.29,2.3,2.3,2.3,0,0,0,.87.88,1.58,1.58,0,0,0,1.26.16,2.2,2.2,0,0,0,1.06-.77,1.59,1.59,0,0,0,.3-1.31,1.3,1.3,0,0,0-1-.92,2,2,0,0,0-1.38.2,2.35,2.35,0,0,0-1,1,4.4,4.4,0,0,0-.4,1.37,10.15,10.15,0,0,0,0,2.91,4.12,4.12,0,0,0,.54,1.41,2.61,2.61,0,0,0,.51.59,1.71,1.71,0,0,0,.7.38,2.33,2.33,0,0,0,1.58-.14,2,2,0,0,0,.66-.48,1.3,1.3,0,0,0-.57-2.11,2.15,2.15,0,0,0-1.65,0,2.36,2.36,0,0,0-1.14,1.21,4.64,4.64,0,0,0-.36,1.63,8.39,8.39,0,0,0,.07,1.66,3.64,3.64,0,0,0,.58,1.61,2.16,2.16,0,0,0,1.48.91,1.51,1.51,0,0,0,1.58-.74,1.7,1.7,0,0,0-.26-1.75,1.65,1.65,0,0,0-.74-.56,1.89,1.89,0,0,0-.91-.11,2.69,2.69,0,0,0-1.61.82,3.71,3.71,0,0,0-.86,1.58,9.45,9.45,0,0,0-.23,3A4.43,4.43,0,0,0,440.4,208a2.66,2.66,0,0,0,2.79.73,1.89,1.89,0,0,0,1-1.09,1.84,1.84,0,0,0,0-1.49,1.46,1.46,0,0,0-1.25-.78,2.27,2.27,0,0,0-1.39.45,2.61,2.61,0,0,0-.85,1.15,5.12,5.12,0,0,0-.31,1.37c-.1,1.82-.11,3.58-.16,5.31-.18,6.9-.34,13.12-.48,18.35s-.22,9.43-.29,12.36c0,1.46,0,2.59-.06,3.37,0,.38,0,.67,0,.87Z"/><polygon class="cls-13" points="442.59 174.82 442.59 178 441.01 178 440.78 174.89 442.59 174.82"/><path class="cls-8" d="M521.37,171.87s0-.85,0-2.22a7.18,7.18,0,0,1,.51-2.31,4.29,4.29,0,0,1,1.89-2.08,6.47,6.47,0,0,1,2.78-.75,12.2,12.2,0,0,1,2.38.18c1.35.23,2.18.43,2.19.39a2.3,2.3,0,0,0-.57-.2c-.37-.1-.91-.26-1.59-.39a10.7,10.7,0,0,0-2.42-.24,6.51,6.51,0,0,0-2.91.76,4.45,4.45,0,0,0-2,2.23,6.91,6.91,0,0,0-.47,2.4,12.28,12.28,0,0,0,.06,1.64A2,2,0,0,0,521.37,171.87Z"/><path class="cls-15" d="M500.32,184.57l11.48.4,34,10.21-25,11.29-4.22,13.31-13.16-5.11-12-5.46L491.16,196a11,11,0,0,1,4.78-8.49Z"/><path class="cls-15" d="M534.36,164.17l-2.93-.26a1.18,1.18,0,0,0-1.28,1.07h0a1.18,1.18,0,0,0,1.07,1.28l2.53.22Z"/><path class="cls-15" d="M555.48,169.66c-.14-.92,0,1.84,0,2.7a2.88,2.88,0,0,1-3,2.84l-3.76-.14-2.92-2.65,5.67,0v-3Z"/><path class="cls-14" d="M530.77,193.62s-2.91-2.48-4.07-2.61-8.63-.07-8.63-.07l-4.9,3.35L501.29,216.1,496.64,222l12.91,15.23,8.52-7.1,10-3.28-7.66.11c-1.55-2.45-4.3-6.19-4.3-6.19l-1.89-10.9-.09-4.33,2.5-6.82,3.85-4.08Z"/><path class="cls-5" d="M544.2,194.28l-3.56-5-13.72-4.72s-2.13,2.58,1.07,4.85h1.07s-1.54,3.41,2.81,2.45c.4-.09,4.41.63,4.41.63l2.13,1.78Z"/><polygon class="cls-15" points="558.04 194.29 562.19 198.25 561.75 220.98 558.03 225.08 520.51 227.35 515.62 221.01 516.59 201.07 517.88 197.8 521.48 195.34 558.04 194.29"/><path class="cls-8" d="M523.42,197l-.23.2c-.17.14-.38.35-.68.61l-2.61,2.42h0v0c0,4.7,0,12.73-.06,22.95v0l0,0c.63.74,1.33,1.56,2,2.4l0,.05H522l34.59-1.53.84,0h.06l0,0,3.19-3.7,0,0v-.06c.1-7.4.19-14.43.28-20.83v-.06l0,0-3.49-3.47,0,0h-.06l-24.63.78-6.91.25-1.81.07-.47,0h.48l1.83,0,6.92-.18,24.59-.67-.09,0,3.49,3.49,0-.1c-.1,6.41-.2,13.44-.3,20.84l0-.09-3.19,3.7.1-.05-.84,0L522,225.43l.1,0-2-2.4,0,.08c0-10.22,0-18.25-.06-22.95l0,0,2.57-2.44.66-.64Z"/><polygon class="cls-8" points="559.13 198.4 558.05 221.34 520.8 223.45 521.38 199.42 559.13 198.4"/><polygon class="cls-15" points="547.59 200.79 546.94 215.75 522.4 216.77 522.4 201.31 547.59 200.79"/><path class="cls-8" d="M522.13,207.73a8.39,8.39,0,1,0,8.39-8.38A8.39,8.39,0,0,0,522.13,207.73Z"/><path class="cls-16" d="M522.4,212a8.39,8.39,0,1,0,12.45-11.1l-11.61.35a5.58,5.58,0,0,0-.84,1Z"/><path class="cls-15" d="M558.05,221.36c0-.07-2.43-1.39-5.5-2.93s-5.57-2.75-5.61-2.68,2.42,1.38,5.49,2.93S558,221.43,558.05,221.36Z"/><path class="cls-15" d="M530.52,171.43l-27.81.14v15.16l3.94-.71,5.19-.62v-3.74l0-2.44,8.59.28-.07,4.78L517,189.51l0,.77,8.49-.46,3.19-5.54s.07-2.2,0-2.4l2,.8a8.9,8.9,0,0,0,3.31.64H544.2a4.58,4.58,0,0,0,4.57-4.56v-3.3c0-2.16-2.29-4-4.44-4Z"/><rect class="cls-8" x="529.21" y="171.43" width="19.85" height="11.9" rx="5.32" transform="translate(1078.28 354.75) rotate(180)"/><rect class="cls-15" x="533.57" y="175.82" width="12.26" height="2.71" rx="1.23" transform="translate(1079.4 354.36) rotate(180)"/><path class="cls-8" d="M527,171.44a2.05,2.05,0,0,0-.5.21,4.32,4.32,0,0,0-1.19.87,4.55,4.55,0,0,0-1.09,1.92,7.46,7.46,0,0,0-.26,2.68,4.62,4.62,0,0,0,1.19,2.42,8.54,8.54,0,0,0,1.67,1.42,11.26,11.26,0,0,0,1.28.72,2.46,2.46,0,0,0,.5.2s-.67-.38-1.67-1.09a9.48,9.48,0,0,1-1.58-1.42,4.61,4.61,0,0,1-1.11-2.29,7.66,7.66,0,0,1,.23-2.57,4.65,4.65,0,0,1,1-1.85A8.22,8.22,0,0,1,527,171.44Z"/><path class="cls-15" d="M558.83,164.91l-22.34-2a2.92,2.92,0,0,0-3.17,2.59h0a2.91,2.91,0,0,0,2.58,3.21l22,2.4Z"/><rect class="cls-15" x="479.6" y="158.39" width="30.54" height="20.2"/><path class="cls-8" d="M479.6,178.59s0-.13,0-.37,0-.61,0-1.07c0-1,0-2.32,0-4.07,0-3.51,0-8.55.06-14.69l-.11.12,30.53,0s-.26-.27-.13-.14h0v10.46c0,3.38,0,6.64,0,9.72l.13-.13-22,.07-6.29,0-1.69,0h1.63l6.27,0,22.06.06h.12v-.13c0-3.08,0-6.34,0-9.72V158.41h0c.13.12-.17-.18-.15-.15l-30.53,0h-.12v.11c0,6.17,0,11.23.06,14.76,0,1.74,0,3.1,0,4,0,.45,0,.8,0,1.05S479.6,178.59,479.6,178.59Z"/><path class="cls-8" d="M545.38,169.71a7,7,0,0,0,1.5.29c.94.13,2.23.28,3.66.42l3.66.34a9.41,9.41,0,0,0,1.52.09,6.65,6.65,0,0,0-1.5-.29c-.93-.13-2.23-.28-3.66-.42l-3.65-.34A9.51,9.51,0,0,0,545.38,169.71Z"/><path class="cls-8" d="M551.5,172.41s-.17.13-.27.45a1.76,1.76,0,0,0,1.09,2.15c.32.11.53.08.53.05s-.19-.09-.45-.23a2.07,2.07,0,0,1-.8-.81,2,2,0,0,1-.17-1.12C551.47,172.61,551.54,172.43,551.5,172.41Z"/><path class="cls-8" d="M534.05,167.72s-.14-.23-.29-.6a3.74,3.74,0,0,1-.31-1.52,2.5,2.5,0,0,1,.45-1.45c.23-.33.4-.53.37-.56s-.24.12-.53.44a2.33,2.33,0,0,0-.58,1.57,3.25,3.25,0,0,0,.42,1.61C533.79,167.59,534,167.74,534.05,167.72Z"/><path class="cls-8" d="M579.11,164.9,563,163.41a5.24,5.24,0,0,0-5.65,4.33h0a5.24,5.24,0,0,0,4.54,6.1l16,1.94A5.49,5.49,0,0,0,584,171h0A5.48,5.48,0,0,0,579.11,164.9Z"/><path class="cls-15" d="M576.3,174.88a10.05,10.05,0,0,1-.94-1.28,6.41,6.41,0,0,1-.7-3.68,5.57,5.57,0,0,1,1.77-3.26,5.32,5.32,0,0,1,1.35-.81,1,1,0,0,0-.43.08,3.31,3.31,0,0,0-1.05.58,5.37,5.37,0,0,0-1.17,1.33,5.07,5.07,0,0,0-.75,2,6.12,6.12,0,0,0,.81,3.81,4.45,4.45,0,0,0,.75.92C576.16,174.81,576.29,174.9,576.3,174.88Z"/><path class="cls-8" d="M528.34,184.28a2.2,2.2,0,0,0-.6-.05l-1.64,0-5.7-.05h-.07l0,.06-1.88,2.86-1.54,2.37-.13.22H517l6.1-.05,1.78,0a3.2,3.2,0,0,0,.64-.05,3.2,3.2,0,0,0-.64,0l-1.78,0-6.1,0,.11.21,1.55-2.37c.66-1,1.28-2,1.86-2.86l-.11.06,5.7,0,1.64,0A3.56,3.56,0,0,0,528.34,184.28Z"/><path class="cls-8" d="M502.75,185.11a69.37,69.37,0,0,0,8.81,0,64.76,64.76,0,0,0-8.81,0Z"/><path class="cls-8" d="M502.34,214.18a2.24,2.24,0,0,0,0-.37c0-.28,0-.63,0-1.07,0-.92.09-2.26.2-3.91s.27-3.6.51-5.78c.11-1.08.24-2.22.39-3.4s.28-2.41.57-3.62a12,12,0,0,1,1.39-3.35,7.09,7.09,0,0,1,2.4-2.32,21.35,21.35,0,0,1,5.32-2.19c1.59-.43,2.91-.69,3.81-.85l1-.18a2.41,2.41,0,0,0,.37-.07,1.3,1.3,0,0,0-.37,0l-1.07.12a34.17,34.17,0,0,0-3.84.77,21.13,21.13,0,0,0-5.41,2.16,7.3,7.3,0,0,0-2.5,2.39,12,12,0,0,0-1.42,3.43,13.57,13.57,0,0,0-.33,1.85c-.09.62-.17,1.21-.24,1.8q-.22,1.78-.39,3.42c-.22,2.17-.35,4.14-.43,5.79s-.12,3-.12,3.92c0,.46,0,.82,0,1.06A1.59,1.59,0,0,0,502.34,214.18Z"/><path class="cls-8" d="M498.5,212.43a1.77,1.77,0,0,0,0-.36q0-.39,0-1c0-.93.07-2.21.12-3.78a118.14,118.14,0,0,1,1-12.38,10.71,10.71,0,0,1,1.11-3.3,9,9,0,0,1,1.92-2.61,10.66,10.66,0,0,1,2.45-1.63,16.89,16.89,0,0,1,2.41-.95,28.28,28.28,0,0,1,3.65-.87l1-.17.35-.07a1.39,1.39,0,0,0-.36,0l-1,.12a25,25,0,0,0-3.69.79,16.36,16.36,0,0,0-2.45.93,10.64,10.64,0,0,0-2.53,1.65,8.94,8.94,0,0,0-2,2.67,10.62,10.62,0,0,0-1.15,3.39,102.29,102.29,0,0,0-.89,12.42c0,1.59,0,2.88,0,3.77,0,.43,0,.76,0,1A1.77,1.77,0,0,0,498.5,212.43Z"/><path class="cls-7" d="M520.52,194.68s.07,0,.18-.05a.12.12,0,0,0,0-.12.22.22,0,0,0-.09-.1.68.68,0,0,0-.27-.13,4.1,4.1,0,0,0-1.84-.07,5.62,5.62,0,0,0-1.22.34,2.66,2.66,0,0,0-.65.33c-.2.14-.39.3-.59.47-.76.68-1.54,1.49-2.34,2.35L512.61,199h0v0c-.81,1.76-1.51,3.31-2,4.42l-.56,1.31a1.6,1.6,0,0,0-.17.49,2.7,2.7,0,0,0,.26-.45c.17-.35.38-.77.64-1.27.53-1.09,1.26-2.63,2.08-4.38l0,0,1.13-1.25c.8-.85,1.57-1.66,2.31-2.34a6.06,6.06,0,0,1,.56-.47,2.37,2.37,0,0,1,.59-.31,5.2,5.2,0,0,1,1.17-.36,4.23,4.23,0,0,1,1.77,0c.19.05.38.14.31.21S520.52,194.67,520.52,194.68Z"/><path class="cls-7" d="M512.72,220.9c0,.09.81-.05,1.77.14s1.66.6,1.7.52a3.5,3.5,0,0,0-3.47-.66Z"/><path class="cls-7" d="M512.94,208.08a17.25,17.25,0,0,0,.58,1.86c.36,1.15.83,2.74,1.24,4.52s.66,3.43.83,4.62a19.21,19.21,0,0,0,.28,1.93,1.75,1.75,0,0,0,0-.53c0-.34,0-.83-.1-1.43a37.07,37.07,0,0,0-.76-4.65,35.37,35.37,0,0,0-1.32-4.52c-.21-.57-.39-1-.53-1.33A1.71,1.71,0,0,0,512.94,208.08Z"/><path class="cls-6" d="M413.84,283.53c-4-2-5.41-6.66-4.86-10.93.57-4.42,5-8.13,9-10s8.5-2.58,12.93-3.05a17.24,17.24,0,0,1,7.47.34c2.37.82,4.48,2.94,4.49,5.46Z"/><g class="cls-9"><path d="M413.84,283.53c-4-2-5.41-6.66-4.86-10.93.57-4.42,5-8.13,9-10s8.5-2.58,12.93-3.05a17.24,17.24,0,0,1,7.47.34c2.37.82,4.48,2.94,4.49,5.46Z"/></g><path class="cls-14" d="M435.22,236.31l6.9,29.27,58.65-48.81,9.75,19.69-52.93,56.17a27.93,27.93,0,0,1-25.14,7.89h0c-11.74-2.23-19.09-12.49-20.78-24.32l-3.44-23.95Z"/><path class="cls-6" d="M412.1,214.8l6.44-3.62s15,1.2,16.68,25.13l2.34,6.2,4.56,23.07c-.87-4.5-23.16-20.83-33.14,7L405.47,233C406.39,224.69,405.61,219.11,412.1,214.8Z"/><path class="cls-8" d="M437.3,233.68a1,1,0,0,0-.07.31c0,.21-.1.51-.14.91a19.74,19.74,0,0,0-.1,3.37,40.62,40.62,0,0,0,2.4,10.86c.75,2,1.57,3.93,2.21,5.7a27.77,27.77,0,0,1,1.34,4.78,13.36,13.36,0,0,1,.19,3.34c-.08.78-.16,1.21-.13,1.22a1.11,1.11,0,0,0,.08-.31c0-.21.12-.51.16-.9a12.87,12.87,0,0,0-.1-3.38,26.15,26.15,0,0,0-1.3-4.84c-.62-1.78-1.44-3.68-2.19-5.71a43.45,43.45,0,0,1-2.46-10.77,22.7,22.7,0,0,1,0-3.35C437.26,234.12,437.33,233.68,437.3,233.68Z"/><path class="cls-8" d="M417.1,212.69s.35,0,1-.12a17,17,0,0,1,2.64-.13,15.75,15.75,0,0,1,13.89,8.93,16.41,16.41,0,0,1,1,2.46,8.58,8.58,0,0,0,.29.92.79.79,0,0,0,0-.25,6.15,6.15,0,0,0-.16-.7,12.6,12.6,0,0,0-.9-2.51,15.49,15.49,0,0,0-14.07-9,14.44,14.44,0,0,0-2.66.22c-.31,0-.54.12-.71.15Z"/><path class="cls-8" d="M409,275.22a3.77,3.77,0,0,0,0-.48q0-.24,0-.57a6.07,6.07,0,0,1,.08-.78,17.85,17.85,0,0,1,1.24-4.81,19.43,19.43,0,0,1,4-6.13,20,20,0,0,1,3.36-2.75,18,18,0,0,1,4.24-1.93,16.75,16.75,0,0,1,4.6-.68,17.78,17.78,0,0,1,4.32.45,19,19,0,0,1,3.73,1.25,17.63,17.63,0,0,1,3,1.74,14.94,14.94,0,0,1,3.49,3.51,4,4,0,0,1,.43.65l.3.49.26.4a2.3,2.3,0,0,0-.21-.43l-.28-.5a3.56,3.56,0,0,0-.41-.67,14.48,14.48,0,0,0-3.47-3.62,18.1,18.1,0,0,0-3-1.79,19.18,19.18,0,0,0-3.77-1.28,18.27,18.27,0,0,0-4.38-.48,16.7,16.7,0,0,0-4.69.69,17.66,17.66,0,0,0-4.29,2,19,19,0,0,0-7.42,9,17,17,0,0,0-1.17,4.87,5.77,5.77,0,0,0-.05.79c0,.22,0,.41,0,.57A2.58,2.58,0,0,0,409,275.22Z"/><g class="cls-9"><path d="M445.35,262.89a41.63,41.63,0,0,0-7.52-19.67c1.55,7.4,3.27,14,5.09,21.69Z"/></g><path class="cls-7" d="M432.78,272.29c0,.06,2.13-1.41,4.66-3.28s4.54-3.45,4.5-3.51a52.85,52.85,0,0,0-4.67,3.28C434.74,270.66,432.73,272.23,432.78,272.29Z"/><path class="cls-8" d="M463.78,397.76H419.63c.17-5.61.33-11.37.5-17,.51-17.65,1-33.74,1.08-39v-.41c0-.56,0-1,0-1.17l14.8-.83h.27l65.35-3.65.1,2.58,2.41,59.43H465.53l0-.49-.08.49h-1.65Z"/><path class="cls-6" d="M419.11,325.62s-5.85,19.56,7,16.22a40.8,40.8,0,0,1,12.4-.24s24.82-.24,64.19-3.34c0,0,5.13-1.91,0-9.42S419.11,325.62,419.11,325.62Z"/><path class="cls-8" d="M464.28,397.76c.38-2.27.77-4.62,1.16-7,1.59-9.94,2.8-19,3.58-25.53.39-3.28.68-5.93.86-7.77.08-.88.15-1.58.19-2.11a4.21,4.21,0,0,0,0-.75,3.14,3.14,0,0,0-.13.73c-.08.53-.17,1.23-.29,2.11-.25,1.88-.6,4.51-1,7.74-.87,6.54-2.13,15.57-3.72,25.51-.39,2.43-.78,4.81-1.17,7.1Z"/><path class="cls-8" d="M150.69,397.76H105l-.24-1.41,0,.61v.31l0,.49H66.1l1.55-38.45,1-24.49,9.5.53,3,.17,35.64,2,2.62.14,4.59.26.35,0h.08l.41,0,11.55.64.27,0,12.42.69c0,1.07.14,6.44.35,14.17.06,2.08.12,4.33.19,6.72C149.91,371.13,150.31,384.86,150.69,397.76Z"/><path class="cls-17" d="M133.45,197.7l-8.11-2.76L95,201.9l-2.69,2.23L76.26,352.75c6.89,7.11,28.63,8.52,41,6.42Z"/><path class="cls-8" d="M105.34,401.08c-.18-1.12-.35-2.23-.52-3.32,0-.17,0-.33-.08-.49-1.3-8.43-2.36-16-3.11-21.7-.38-2.83-.69-5.19-.92-7l4,28.39.12.8Z"/><path class="cls-14" d="M124.79,151.32l.62,49.93c-.59,2-3.21,9-14,11.59l-1.43.24c-11.63-1.27-14.24-3.56-14.33-11.48,0-3.76-.09-6.9-.12-7.28,0,0-12.72-1-13.79-13.61-.52-6.07-.58-18.67-.49-30.07a23.49,23.49,0,0,1,21.79-23.24l1.22-.09C117.45,127.11,125,138.17,124.79,151.32Z"/><path class="cls-7" d="M95.58,194.32a30.53,30.53,0,0,0,16-6s-3.32,9.48-16,9.26Z"/><path class="cls-8" d="M102.79,155.79c.25.26,1.7-.91,3.81-1s3.68,1,3.9.71-.15-.59-.84-1.07a5.32,5.32,0,0,0-3.13-.89,5.08,5.08,0,0,0-3,1.1C102.87,155.2,102.67,155.68,102.79,155.79Z"/><path class="cls-8" d="M101.9,161.75a1.69,1.69,0,0,0,1.76,1.59,1.63,1.63,0,0,0,1.64-1.66,1.69,1.69,0,0,0-1.76-1.59A1.62,1.62,0,0,0,101.9,161.75Z"/><path class="cls-8" d="M97.52,170.44a13,13,0,0,0-3.19-.34c-.49,0-1-.08-1.08-.41a2.51,2.51,0,0,1,.23-1.48c.37-1.23.77-2.52,1.18-3.87,1.64-5.5,2.79-10,2.56-10.07s-1.73,4.34-3.36,9.84c-.39,1.36-.77,2.65-1.12,3.88a2.83,2.83,0,0,0-.12,2,1.23,1.23,0,0,0,.86.66,3.29,3.29,0,0,0,.85.06A12.78,12.78,0,0,0,97.52,170.44Z"/><path class="cls-8" d="M103.69,146.83c.2.47,1.89.12,3.9.22s3.68.55,3.92.1c.1-.21-.21-.65-.9-1.06a6.3,6.3,0,0,0-3-.83,6.41,6.41,0,0,0-3,.58C103.94,146.2,103.6,146.61,103.69,146.83Z"/><path class="cls-8" d="M83.69,150c.22.39,1.86,0,3.85-.1s3.65.19,3.86-.2c.09-.19-.24-.53-.93-.84a7.52,7.52,0,0,0-5.88.24C83.91,149.44,83.59,149.8,83.69,150Z"/><path class="cls-14" d="M124.44,160.71c.21-.11,8.46-3.19,8.81,5.43s-8.37,7.2-8.4,7S124.44,160.71,124.44,160.71Z"/><path class="cls-7" d="M127.35,169.72s.16.1.41.21a1.53,1.53,0,0,0,1.13,0c.89-.37,1.6-1.85,1.58-3.4a4.89,4.89,0,0,0-.51-2.14,1.72,1.72,0,0,0-1.17-1.1.75.75,0,0,0-.87.45c-.11.24,0,.41-.09.43s-.2-.14-.14-.5a.94.94,0,0,1,.32-.55,1.13,1.13,0,0,1,.82-.26,2.12,2.12,0,0,1,1.62,1.28,5.09,5.09,0,0,1,.62,2.38c0,1.74-.8,3.4-2,3.81a1.59,1.59,0,0,1-1.38-.17C127.38,169.93,127.32,169.73,127.35,169.72Z"/><path class="cls-8" d="M99.55,176.41c-.1-.22,1.6-.72,2.78-2.31a9.18,9.18,0,0,0,1.19-2.25c.26-.63.45-1,.54-1s.07.45-.07,1.13a6.49,6.49,0,0,1-1.11,2.53,5.2,5.2,0,0,1-2.2,1.68C100,176.47,99.57,176.48,99.55,176.41Z"/><path class="cls-8" d="M64.61,139.36a2,2,0,0,1,1-1.19,6.22,6.22,0,0,1,3.22-.52,18.25,18.25,0,0,0,9.45-2.88,43.1,43.1,0,0,1,4.4-5.33c3.81-3.93,7-6.6,10.19-7.9,4.19-1.69,11.21-2.38,15.58-1.23s8.3,4.69,8.91,9.17c2.45-2.07,6.14-2,9.12-.85l.08,0c3.32,1.18,5.21,4.7,6.2,8.09s1.4,7,3.19,10.06c.38.64.83,1.4.5,2.06a1.42,1.42,0,0,1-1.47.64,4,4,0,0,1-1.55-.7l1.11,2.67a7.8,7.8,0,0,1-3.62-.25,75,75,0,0,1-2.36,9A5.14,5.14,0,0,0,125,161c-1.17,1-1.69,3-3.63,2.27-1-.38-1.88-2.45-2.21-3.45A49.08,49.08,0,0,1,117,139a15.81,15.81,0,0,0-4.86-3.52l.15.14c-3.52-1.22-7.49-2.42-10.82-.77-2.59,1.28-4.11,4-6,6.1a19.77,19.77,0,0,1-14.07,6.5c-.19,3.54.11,8.54-.07,12.08l-3-5.67v0a13.46,13.46,0,0,1-.64-1.25l-.07-.13v0a20.86,20.86,0,0,0-1-2l0,0a2.21,2.21,0,0,1-3.23-3,4.94,4.94,0,0,1,1.07-1.07,3.52,3.52,0,0,1-3.33.86,2.72,2.72,0,0,1-1.94-2.71,2.33,2.33,0,0,1,1.39-1.88,7.9,7.9,0,0,1-4.49-1C65.18,141.3,64.31,140.47,64.61,139.36Z"/><path class="cls-15" d="M113.35,130.93a9.63,9.63,0,0,1,1.26,1.15,9,9,0,0,1,1.94,4.18,16.48,16.48,0,0,1,.32,3.19c0,1.16-.09,2.4-.18,3.71a32.73,32.73,0,0,0-.09,4.12,13.43,13.43,0,0,0,.28,2.17,4.6,4.6,0,0,0,.89,2.12,1.89,1.89,0,0,0,1.77.59,2.8,2.8,0,0,0,1.6-.9,6.48,6.48,0,0,0,1.21-3.2l-.27,0a10.7,10.7,0,0,0,1.54,2.63,3.72,3.72,0,0,0,2.44,1.33,2.4,2.4,0,0,0,1.3-.23,2.15,2.15,0,0,0,.88-.86,2.05,2.05,0,0,0,.26-1.12,1.57,1.57,0,0,0-.4-1L128,149a8,8,0,0,0,2.7,2,5.74,5.74,0,0,0,.84.32,1.19,1.19,0,0,0,.3.08l-.29-.12c-.18-.08-.46-.19-.81-.36a8.59,8.59,0,0,1-2.61-2.06L128,149a1.63,1.63,0,0,1,.08,1.88,1.81,1.81,0,0,1-.79.76,2.13,2.13,0,0,1-1.18.19,3.54,3.54,0,0,1-2.27-1.26,10.27,10.27,0,0,1-1.47-2.58l-.18-.4-.09.43a6.26,6.26,0,0,1-1.15,3.06,2.51,2.51,0,0,1-1.43.8,1.6,1.6,0,0,1-1.51-.5,4.37,4.37,0,0,1-.82-2,15.53,15.53,0,0,1-.28-2.13,34.26,34.26,0,0,1,.08-4.08c.08-1.31.17-2.56.15-3.73a16.14,16.14,0,0,0-.36-3.24,8.92,8.92,0,0,0-2-4.21A5.17,5.17,0,0,0,113.35,130.93Z"/><path class="cls-15" d="M74.46,143.16s0,0,.1.09l.31.23a5,5,0,0,0,.53.34,6.79,6.79,0,0,0,.77.4,11.07,11.07,0,0,0,5.38,1,14.26,14.26,0,0,0,7.59-2.8,24.7,24.7,0,0,0,6.52-7.52c.91-1.52,1.66-3.08,2.48-4.52a16.85,16.85,0,0,1,2.81-3.83,8.58,8.58,0,0,1,3.62-2.2,6.34,6.34,0,0,1,1.91-.22,7,7,0,0,1,1.75.34,7.08,7.08,0,0,1,2.62,1.58,6.86,6.86,0,0,1,1.42,1.84,8.57,8.57,0,0,1,.65,1.88s0,0,0-.13,0-.23-.06-.38a5.72,5.72,0,0,0-.48-1.42,6.9,6.9,0,0,0-1.4-1.91,7.47,7.47,0,0,0-2.67-1.66,6.93,6.93,0,0,0-1.8-.36,5.9,5.9,0,0,0-2,.21,8.77,8.77,0,0,0-3.75,2.24,16.7,16.7,0,0,0-2.87,3.88c-.83,1.45-1.58,3-2.48,4.51A24.72,24.72,0,0,1,89,142.17,14.13,14.13,0,0,1,81.54,145a11.33,11.33,0,0,1-5.33-.86A16.47,16.47,0,0,1,74.46,143.16Z"/><path class="cls-15" d="M73.31,137.64a1.76,1.76,0,0,0,.45.31,10.1,10.1,0,0,0,1.34.68,12.75,12.75,0,0,0,2.11.69,14,14,0,0,0,2.7.36,14.73,14.73,0,0,0,2.73-.18,13,13,0,0,0,2.15-.56,9.54,9.54,0,0,0,1.38-.59,2,2,0,0,0,.47-.29s-.72.31-1.91.68a14.88,14.88,0,0,1-2.14.49,16.05,16.05,0,0,1-2.66.16,16.38,16.38,0,0,1-2.66-.33,14.29,14.29,0,0,1-2.09-.62C74,138,73.34,137.59,73.31,137.64Z"/><path class="cls-8" d="M83.59,155.79c.25.26,1.7-.91,3.81-1s3.68,1,3.9.71-.15-.59-.84-1.07a5.32,5.32,0,0,0-3.13-.89,5.08,5.08,0,0,0-3,1.1C83.68,155.2,83.47,155.68,83.59,155.79Z"/><path class="cls-8" d="M84,161.75a1.69,1.69,0,0,0,1.76,1.59,1.63,1.63,0,0,0,1.64-1.66,1.69,1.69,0,0,0-1.76-1.59A1.62,1.62,0,0,0,84,161.75Z"/><path class="cls-6" d="M132,197.21l-3.67-1.34s-8,35-8,58.18-5,107-5,107l37.88-1,1.44-121.7Z"/><path class="cls-6" d="M78.51,362.49l-14.36-4.21,5-67.83-1-49.17,8.3-26.11,17-12.3S79.49,354.31,78.51,362.49Z"/><path class="cls-14" d="M33.28,223.06s-4.78,22.14-5.62,30.77c-.67,7,.62,15.18,7.57,17.79,3.22,1.21,11.35.87,14.29-1.09,10.41-6.95,21.65-21.7,21.65-21.7l5.56-36.66s-4.58-1.95-9.16,3-20.58,25-20.58,25l1.65-15.35Z"/><path class="cls-8" d="M105,220.2c6.33,0,12.66-2.94,18.55-8.67a74,74,0,0,0,10.34-13.62l-3.32-1.22c-.12.22-12.93,24.19-29.75,20.15-17.2-4.13-27.62-29.52-27.73-29.78l-2.65,1.08a79.78,79.78,0,0,0,7.72,14c6.73,9.74,14.13,15.64,22,17.53A20.92,20.92,0,0,0,105,220.2Z"/><path class="cls-7" d="M46.19,259.39a3,3,0,0,0,.43-.71,5.06,5.06,0,0,0,.4-.89,8.63,8.63,0,0,0,.42-1.22,23.52,23.52,0,0,0,.72-7.4c-.11-2.9-.38-5.51-.52-7.39a21.67,21.67,0,0,0-.3-3.06,16.54,16.54,0,0,0-.05,3.08c.05,1.89.27,4.51.37,7.39a26.89,26.89,0,0,1-.56,7.29C46.66,258.3,46.1,259.35,46.19,259.39Z"/><path class="cls-18" d="M33.71,198.43S32.5,206,36.06,209l-4.72,23.86,17.26-7.79,3.1-25-2-7.53Z"/><path class="cls-15" d="M23.38,172.47s2.59-2.58,7.52-1.91S42.54,173,42.54,173a14,14,0,0,1,6.05,12c-.05,8.36-3.57,12.1-3.57,12.1L30.9,200.17s-8.42-1.87-8.42-3.12S25,194.33,25,194.33s.56-.69-1.13-2.14-3.7-3.35-3.47-6.88.22-3.87,2.13-5.56,3-1.79,2.58-2.69S22.7,173,23.38,172.47Z"/><path class="cls-15" d="M43.42,174.34h7.46a11.08,11.08,0,0,1,8,8.61c1.73,7.38-4.28,12.7-4.28,12.7l-10.1.79,1.27-12.31Z"/><path class="cls-15" d="M46.66,174.34l-.31-1.58a6.45,6.45,0,0,1,0-2.67c.35-.65.39-.36,1-.79a18.54,18.54,0,0,1,6.37-1.55c2.12,0,6.86-.15,8.48.91a3.37,3.37,0,0,1,1.7,2.38s3.88,1.72,4.6,2.08c.26.13.5.27.71.4a2.91,2.91,0,0,1,1.25,1.55c.15.44.34,1,.51,1.73a12.65,12.65,0,0,1,.29,3.54s.7-.22,1.2,2,0,9.3,0,10.25c-.14,2.63-1.75,3.61-5.09,3l-16.09.09L50.55,176Z"/><path class="cls-8" d="M64,171a2.52,2.52,0,0,0-1.28-.63,12.62,12.62,0,0,0-3.41-.36,12.94,12.94,0,0,0-4.76.73c0,.14,2.15-.2,4.77-.23a18.41,18.41,0,0,1,3.32.21A12.1,12.1,0,0,0,64,171Z"/><path class="cls-8" d="M71.8,180.64c0-.16-1.15-.46-2.59-.25a4.78,4.78,0,0,0-2.49.77,12.23,12.23,0,0,0,2.55-.28C70.66,180.68,71.77,180.75,71.8,180.64Z"/><path class="cls-19" d="M60,177.55a.66.66,0,0,0-.32.85.64.64,0,1,0,.35-.87Z"/><path class="cls-8" d="M45.38,174.42a5.39,5.39,0,0,0,1.26.12l3.44.16a10.2,10.2,0,0,1,4.7,1.56A9.85,9.85,0,0,1,58.51,181a18.45,18.45,0,0,1,1.1,6,12.1,12.1,0,0,1-.89,4.91A9.64,9.64,0,0,1,57,194.84c-.53.6-.93.82-.9.86s.11,0,.29-.14a3.4,3.4,0,0,0,.75-.59,8.82,8.82,0,0,0,1.9-2.9,11.78,11.78,0,0,0,1-5.06A18.18,18.18,0,0,0,59,180.79,10.17,10.17,0,0,0,55,175.87a10.37,10.37,0,0,0-4.93-1.52H46.64A5.48,5.48,0,0,0,45.38,174.42Z"/><path class="cls-8" d="M47.22,174.52a6.07,6.07,0,0,0,1.06.22,11.39,11.39,0,0,1,2.74.94,9.27,9.27,0,0,1,3.24,2.73,11.78,11.78,0,0,1,2.07,4.77,20,20,0,0,1,.4,5.24,12.94,12.94,0,0,1-1.12,4.13A9.45,9.45,0,0,1,54.05,195c-.48.49-.81.69-.79.73s.1,0,.26-.11a4,4,0,0,0,.66-.48,8,8,0,0,0,1.75-2.41,12.8,12.8,0,0,0,1.26-4.23,19.08,19.08,0,0,0-.38-5.4,11.86,11.86,0,0,0-2.19-4.94,9.24,9.24,0,0,0-3.45-2.77,9.74,9.74,0,0,0-2.86-.81A3.79,3.79,0,0,0,47.22,174.52Z"/><g class="cls-9"><path d="M33.85,199.59h0a.82.82,0,0,1,0-1.24c.63-.75,8.63-3.88,8.63-3.88l.94-3-1-1.46a6,6,0,0,1-.9-1.91,16.64,16.64,0,0,1-.63-3.76c-.06-2.19,1.74-5.89,1.74-5.89L41.91,177a33.15,33.15,0,0,0-8.71-3.51,5.11,5.11,0,0,0-4.75-2.39,14.14,14.14,0,0,0-5,1.38l-.06.06c-.68.56,1.23,3.7,1.68,4.6s-.67,1-2.58,2.69-1.91,2-2.13,5.55,1.79,5.44,3.47,6.89S25,194.42,25,194.42s-2.47,1.45-2.47,2.71,8.42,3.12,8.42,3.12Z"/></g><path class="cls-8" d="M33.85,199.51a.93.93,0,0,1-.21-.68,1.1,1.1,0,0,1,.5-.68,10.3,10.3,0,0,1,1.11-.57c1.72-.79,4.24-1.81,7.31-3l.09,0,0-.1,1-3,0-.1-.06-.09c-.45-.69-1-1.37-1.41-2.1a9,9,0,0,1-.78-2.52,12.07,12.07,0,0,1-.3-2.75,11.46,11.46,0,0,1,.65-2.8,26.35,26.35,0,0,1,1.06-2.61l0-.11,0-.11c-.23-.49-.47-1-.69-1.44l0-.07-.07,0a31.66,31.66,0,0,0-8.78-3.49l.15.1a5.07,5.07,0,0,0-3.92-2.41,8.49,8.49,0,0,0-3.55.44,20.14,20.14,0,0,0-2.12.83,3.69,3.69,0,0,0-.71.37c0,.06,1-.42,2.9-1a8.36,8.36,0,0,1,3.43-.34,4.71,4.71,0,0,1,3.6,2.28l0,.08.1,0a33.1,33.1,0,0,1,8.62,3.51l-.11-.1.7,1.45v-.22a25.27,25.27,0,0,0-1.09,2.67,11.86,11.86,0,0,0-.67,2.93,12.78,12.78,0,0,0,.31,2.88,9.69,9.69,0,0,0,.84,2.64c.46.81,1,1.44,1.46,2.13l0-.19-.91,3,.12-.13c-3.06,1.23-5.56,2.31-7.26,3.17A10,10,0,0,0,34,198a1.18,1.18,0,0,0-.52.81C33.51,199.38,33.87,199.53,33.85,199.51Z"/><path class="cls-8" d="M33.7,197.56s-.42-.08-1.13-.33a7.87,7.87,0,0,1-2.7-1.64c-2-1.8-3.7-5.41-3.77-9.54a13.67,13.67,0,0,1,1-5.66,12.35,12.35,0,0,1,2.64-3.88,28.65,28.65,0,0,1,3.43-2.76,4.44,4.44,0,0,0-1.07.53,15.36,15.36,0,0,0-2.61,2,12.34,12.34,0,0,0-2.81,4,13.63,13.63,0,0,0-1.07,5.85c.08,4.26,1.89,8,4,9.79a7.22,7.22,0,0,0,2.87,1.56A2.78,2.78,0,0,0,33.7,197.56Z"/><path class="cls-8" d="M43,190.64a5.31,5.31,0,0,1-3.29,3.56,7.3,7.3,0,0,1-6-1.06,9.18,9.18,0,0,1-3.53-5.06,13.7,13.7,0,0,1,0-6.24c.65-3.42,4.47-6.75,7.15-7l4.36,1.94.86,1.36s-2,5.18-1.68,7.82A9.55,9.55,0,0,0,43,190.64Z"/><path class="cls-8" d="M30.9,170.56a5.47,5.47,0,0,0,.83.16c.55.1,1.34.26,2.34.47,2,.43,4.84,1.08,8.17,1.88l-.06,0a12.42,12.42,0,0,1,5,5.67A14.65,14.65,0,0,1,48.76,186a22.5,22.5,0,0,1-1.27,6,25,25,0,0,1-1.71,3.78,13.58,13.58,0,0,0-.76,1.33,1.67,1.67,0,0,0,.26-.3,8.82,8.82,0,0,0,.66-.93,20.24,20.24,0,0,0,1.88-3.76A21.46,21.46,0,0,0,49.21,186a14.67,14.67,0,0,0-1.54-7.47,12.68,12.68,0,0,0-5.28-5.87h0c-3.34-.76-6.19-1.34-8.22-1.69-1-.18-1.81-.3-2.37-.35A2.76,2.76,0,0,0,30.9,170.56Z"/><g class="cls-9"><path d="M45.65,196.23l2.09,0s2.72-6.3,2.72-9.77a16.65,16.65,0,0,0-4.81-12.14l-1.43.18A13.85,13.85,0,0,1,49,186.58C48.14,193.22,45.65,196.23,45.65,196.23Z"/></g><path class="cls-8" d="M66.75,195.62a8.6,8.6,0,0,0,.12-1.6c0-1,.07-2.5.07-4.33v-6.43c0-1.21,0-2.48,0-3.79a9.08,9.08,0,0,0-.12-2.06,3.57,3.57,0,0,0-1.07-1.9A8.48,8.48,0,0,0,62,173.77c-1.26-.36-2.51-.7-3.7-.94l-1.73-.35-.83-.18a2.85,2.85,0,0,1-.71-.19,3.69,3.69,0,0,1-.77-1.21,2.67,2.67,0,0,0-.9-1.21,2.4,2.4,0,0,0-1.29-.47,9.62,9.62,0,0,0-1.18,0c-.74,0-1.36.1-1.87.17a7.24,7.24,0,0,0-1.56.32,13.79,13.79,0,0,0,1.58-.13c.51,0,1.13-.08,1.85-.08a3.68,3.68,0,0,1,2.26.51c.77.48.72,1.6,1.64,2.48a.72.72,0,0,0,.25.12l.2.05.41.1.83.18,1.72.38c1.19.25,2.39.58,3.66,1a18,18,0,0,1,1.89.6,5.38,5.38,0,0,1,1.67,1,3.05,3.05,0,0,1,.93,1.64,9,9,0,0,1,.11,1.94c0,1.32,0,2.59,0,3.8,0,2.4.07,4.57.1,6.43s.07,3.23.09,4.33A10.25,10.25,0,0,0,66.75,195.62Z"/><path class="cls-8" d="M68.64,173.76c0,.27-1.18.3-2.55.07s-2.43-.63-2.38-.9c0-.09-.05-.9.18-.93.46-.07,1.47.71,2.37.86s2.08-.23,2.44,0C68.82,173,68.65,173.69,68.64,173.76Z"/><path class="cls-15" d="M68.72,173c0,.27-1.19.3-2.55.07s-2.43-.63-2.38-.9,1.18-.3,2.54-.07S68.76,172.68,68.72,173Z"/><path class="cls-8" d="M68.72,173s0-.19-.25-.32a4.62,4.62,0,0,0-1-.42,11.42,11.42,0,0,0-1.65-.33,9.93,9.93,0,0,0-1-.08,4.7,4.7,0,0,0-.53,0,1.27,1.27,0,0,0-.28.06.27.27,0,0,0-.09.53,1.49,1.49,0,0,0,.24.14,5.21,5.21,0,0,0,.5.2,7.57,7.57,0,0,0,1,.25,10.42,10.42,0,0,0,1.66.22,4.32,4.32,0,0,0,1.14-.05c.28,0,.37-.22.34-.22s0,0-.07.07a1,1,0,0,1-.29.08,5.2,5.2,0,0,1-1.1,0,11.92,11.92,0,0,1-1.64-.26,7.4,7.4,0,0,1-.94-.26,3.8,3.8,0,0,1-.47-.18.91.91,0,0,1-.33-.24.68.68,0,0,1,.39-.12,4.36,4.36,0,0,1,.51,0c.33,0,.66,0,1,.07a11.79,11.79,0,0,1,1.63.29,4.88,4.88,0,0,1,1.05.35.62.62,0,0,1,.24.16S68.71,173,68.72,173Z"/><path class="cls-19" d="M47.8,170.64h3.86a.78.78,0,0,1,.78.78V172a.79.79,0,0,1-.79.79H47.8A.78.78,0,0,1,47,172v-.55A.78.78,0,0,1,47.8,170.64Z"/><path class="cls-14" d="M60.28,179.26l4.77,6.49,10.39,13.3a6.35,6.35,0,0,1,1.3,3.27l1.6,3.54,6.94,7.76-15.92,12.7-5.31-8-17-7.42s-1.9-1-.26-4.66c0,0-2.39-2.45-.67-5l-7.92-2.63L46.37,196l6.49-1.17,8.06.64-.06-2.51-1.46-3.8a6.24,6.24,0,0,1-1.69-3.33c-.35-2.11-1.46-4.74,0-5.79A3.26,3.26,0,0,1,60.28,179.26Z"/><path class="cls-7" d="M53.13,201.64a17.91,17.91,0,0,0-3.77-.37,17.18,17.18,0,0,0-3.79-.05,12.76,12.76,0,0,0,3.76.55A12.52,12.52,0,0,0,53.13,201.64Z"/><path class="cls-7" d="M51.68,207.8a19,19,0,0,0-2.52-.65,18.93,18.93,0,0,0-2.49-.78A4.41,4.41,0,0,0,49,207.63,4.41,4.41,0,0,0,51.68,207.8Z"/><path class="cls-6" d="M63,220.6s-9.06,10.52-14.1,17c0,0,.4-15.51,1-19,0,0-10.5-.88-17.49-3.9,0,0-2.23,21.79-4.62,37.22,0,0-5.72,24.81,17.66,20.2,0,0,12-1.82,25.72-23.26l2.75-12.37S64,222.87,63,220.6Z"/><path class="cls-6" d="M132.3,197.33s30.32,9,23.83,38.76c0,0-14,37-41.49,42.84,0,0-12.09,5.73-23.06-15.74l-26.88-38,17.86-14.76,31.12,37.36,21.18-21.47Z"/><path class="cls-20" d="M48.87,237.57s-2,8.15-3.26,23.55Z"/><path class="cls-20" d="M114,248.06s4.33,4.31,3.69,12.58C117.66,260.64,117.79,253.53,114,248.06Z"/><path class="cls-21" d="M119.41,277.63s22.05-8.43,33.72-35.55C153.13,242.08,142.43,265.64,119.41,277.63Z"/><path class="cls-21" d="M47.34,271.83s17.93-9,24.55-25.79C71.89,246,65.66,260.74,47.34,271.83Z"/><path class="cls-22" d="M88.54,258.58,65,224.71s14-12.31,17.47-14.62l10.63,13.76L82.34,210.52,65.7,225Z"/><path class="cls-22" d="M121.35,240.24s9.84-10.48,15.67-15.89c0,0-.36,2.24.72-3.17,0,0-.28,3.07-.5,3.82Z"/><path class="cls-8" d="M131.91,201.08a20.54,20.54,0,0,0,1.9-3.28l-3.2-1.11Z"/><path class="cls-23" d="M95.81,204.65S95.68,210,102.5,212c0,0,11.54,3.81,20.2-5.51A19.44,19.44,0,0,1,102,212S95.48,210,95.81,204.65Z"/><path class="cls-8" d="M222.21,397.76c.28-8.34.28-15.33-.23-19.22-.28-2.13-.62-4.46-1-6.89-1-6-2.21-12.75-3.37-18.69a.36.36,0,0,0,0-.11c-1.84-9.42-3.46-16.92-3.46-16.92h-1l-59.5.91-16.88.26h-.27l-11.51.18h-.23c-.08,0-.18.2-.28.62s-.15.67-.23,1.13c0,.24-.07.47-.1.7-.09.71-.19,1.43-.28,2.14-.23,2-.48,4.47-.7,7.34a1.23,1.23,0,0,1,0,.19c-.11,1.35-.22,2.77-.33,4.25-.16,2.29-.32,4.72-.46,7.22-.64,11.33-1,24-.44,31.34q.2,2.65.57,5.52h99.79Z"/><path class="cls-8" d="M191.24,153.57,153.1,139.88c2.49,29.77,4.92,60.27-3,89.08-.85,3.11-1.61,7,.87,9.1,1.48,1.23,3.6,1.28,5.54,1.22,4-.12,7.91-.42,11.84-.87,4.19-.48,8.66-1.3,11.65-4.29,2.5-2.5,3.51-6.09,4.35-9.53A250.41,250.41,0,0,0,191.24,153.57Z"/><path class="cls-6" d="M128.76,276.45l4.52-5.93,3-15.85,6.88-38.56s3-14.51,12.39-18.66l2,38.53-19.08,48.41Z"/><path class="cls-6" d="M169.77,187l-5.63,6.65-8.57,3.82s-18.88,36.06-19.38,36.4-3.54,10.62-1.86,19.38a151.65,151.65,0,0,1,2.7,28.49c-.17,8.26-11,35.39-11.63,41.63s-2.87,30.33-2.87,30.33l95.4-.72a174.66,174.66,0,0,0-3.54-18s-.34-23.93-3.88-28.49c0,0,2.7-6.23,2.36-9.77s14.16-22.42,17-29,14.15-21.58,14.32-32.36-1.51-19.89-6.91-27.31-15.17-12.47-19.21-15.17l-7.92-10.11Z"/><path class="cls-8" d="M135.76,353.68a1,1,0,0,1,0-.28c0-.21,0-.49,0-.85,0-.76.08-1.85.14-3.25.12-2.84.29-6.91.5-11.94.08-2.52.17-5.28.21-8.25,0-1.48,0-3,0-4.58a20.32,20.32,0,0,1,.49-4.88,76.47,76.47,0,0,1,3.11-10,47.16,47.16,0,0,0,1.65-5.25,22.86,22.86,0,0,0,.37-2.79c.09-.94.19-1.89.28-2.85.39-3.83.76-7.57,1.12-11.19.19-1.8.37-3.58.54-5.32s.4-3.43.45-5.1a131,131,0,0,1,2.4-17.57c1-4.95,1.87-8.94,2.44-11.7l.67-3.18c.07-.35.13-.63.18-.83a1.49,1.49,0,0,1,.07-.28,1.58,1.58,0,0,1,0,.29c0,.2-.08.48-.14.83-.14.75-.34,1.83-.59,3.2-.53,2.77-1.39,6.76-2.33,11.72A134,134,0,0,0,145,277.15c-.05,1.68-.29,3.37-.44,5.11s-.35,3.52-.53,5.32c-.36,3.62-.73,7.36-1.12,11.19-.09,1-.19,1.91-.28,2.86a22.87,22.87,0,0,1-.38,2.83,48.17,48.17,0,0,1-1.66,5.3,77.69,77.69,0,0,0-3.13,9.95,21,21,0,0,0-.49,4.8c0,1.59,0,3.12,0,4.61,0,3-.16,5.73-.26,8.26-.21,5-.45,9.12-.62,11.93-.09,1.39-.16,2.49-.21,3.25q0,.53-.06.84A1.05,1.05,0,0,1,135.76,353.68Z"/><path class="cls-14" d="M150.61,243.27c0-.77,3.38-13.85,10.46-24.76a59.23,59.23,0,0,0,8.61-20.46l.11-14.1.61,1.81,35.86-5.19,1.08,5.17-24,21.69s-11.09,2.15-11.55,2.46S150.61,243.27,150.61,243.27Z"/><path class="cls-8" d="M218.1,192.89a3.72,3.72,0,0,1-.32.51c-.22.32-.54.79-1,1.39-.85,1.2-2.11,2.92-3.72,5s-3.55,4.54-5.66,7.31c-1.05,1.39-2.14,2.86-3.24,4.4a10.2,10.2,0,0,1-.9,1.14,2.17,2.17,0,0,1-1.38.72,2.68,2.68,0,0,1-1.5-.43c-.44-.25-.85-.53-1.28-.8L194.2,209c-.8-.51-1.58-1-2.35-1.5a3.9,3.9,0,0,0-2.41-.71,4.87,4.87,0,0,0-2.2,1c-.65.48-1.29,1-2,1.39a13.94,13.94,0,0,1-4,1.67,14.21,14.21,0,0,1-6.23.14c-.36-.07-.68-.15-1-.23s-.5-.15-.68-.22a3,3,0,0,1-.55-.22,2.77,2.77,0,0,1,.57.15q.28.09.69.18c.27.07.59.14,1,.2a14.43,14.43,0,0,0,6.13-.26,14,14,0,0,0,3.9-1.67c.66-.41,1.27-.89,1.94-1.4a5,5,0,0,1,2.35-1.11,4.19,4.19,0,0,1,2.63.74c.79.48,1.56,1,2.37,1.5l4.93,3.16c.85.51,1.67,1.23,2.56,1.18a1.82,1.82,0,0,0,1.14-.61,9.8,9.8,0,0,0,.87-1.1c1.1-1.54,2.2-3,3.26-4.39,2.12-2.76,4.09-5.2,5.72-7.26s2.93-3.76,3.81-4.94c.44-.56.78-1,1-1.35S218.09,192.89,218.1,192.89Z"/><path class="cls-8" d="M164.14,234a6.32,6.32,0,0,1,.54-1c.36-.65.91-1.57,1.62-2.69,1.39-2.25,3.43-5.29,5.87-8.52s4.82-6,6.6-8c.89-1,1.63-1.76,2.15-2.29a5.87,5.87,0,0,1,.84-.79,8.07,8.07,0,0,1-.73.89L179,214c-1.73,2-4.06,4.81-6.5,8s-4.5,6.23-5.95,8.43c-.7,1.07-1.27,1.95-1.72,2.62A6.25,6.25,0,0,1,164.14,234Z"/><path class="cls-8" d="M167.24,236.8l.14,0,.41.09,1.59.34c1.4.3,3.44.75,6.05,1.27,1.31.26,2.75.54,4.33.82l2.48.38c.86.14,1.74.35,2.64.58,1.8.47,3.69,1.06,5.65,1.75,1,.35,2,.72,3,1.12.51.2,1,.4,1.54.63l.78.34.38.18.2.11.11.06,0,0a.34.34,0,0,1,.09.17v.05l-7.52,24v0h0a14.88,14.88,0,0,1-1.41,2.2,10.55,10.55,0,0,1-1.9,1.94,3.91,3.91,0,0,1-.88.47l-.89.3-1.78.6-3.49,1.18-6.75,2.27-.1,0-.08-.08-7.06-6.55-1.68-1.55a20,20,0,0,1-1.61-1.58,4,4,0,0,1-1-2,7.09,7.09,0,0,1,0-2.16c1-5.52,2-10.35,3-14.36s1.89-7.17,2.54-9.34c.32-1.06.58-1.89.76-2.48q.13-.39.21-.63c.05-.15.08-.22.08-.22a.76.76,0,0,1-.05.23c0,.16-.1.37-.18.64-.16.59-.4,1.42-.7,2.5-.61,2.17-1.48,5.35-2.43,9.36s-2,8.84-2.95,14.34a7.18,7.18,0,0,0-.05,2.07,3.65,3.65,0,0,0,.9,1.86,17.85,17.85,0,0,0,1.58,1.55L165,270.9l7.08,6.53-.19,0,6.75-2.28,3.49-1.18,1.78-.6.89-.3a3.33,3.33,0,0,0,.78-.43,10,10,0,0,0,1.82-1.86,14.65,14.65,0,0,0,1.38-2.14v0c2.75-8.74,5.33-16.92,7.56-24l.14,0a97.68,97.68,0,0,0-11.7-4.15c-.89-.23-1.76-.44-2.61-.58s-1.69-.27-2.47-.41c-1.59-.28-3-.58-4.34-.86-2.6-.54-4.64-1-6-1.35l-1.58-.4-.41-.1Z"/><g class="cls-9"><path d="M168,320c-8.34-1.26-19.92-4.74-29.43-6.73-3.39-.71-6.33-1.53-9.72-2.23l-.61,1.88A114.3,114.3,0,0,1,156,322.78c5.27,2.7,10.5,5.85,16.36,6.72,6.56,1,13.15-1.06,19.47-3.06,3.57-1.12,7.31-2.35,9.85-5.1a20.67,20.67,0,0,0,3.76-6.9c2.49-6.51,4.66-13.15,6.52-19.87C200.62,307.27,184.86,322.51,168,320Z"/></g><path class="cls-6" d="M207.34,237.9l-24,44.06a7.11,7.11,0,0,0-5.56,7,4.19,4.19,0,0,0-4.75.12c-1.81,1.08-6.9,2.51-9.71,4A3.36,3.36,0,0,0,161.7,297l7.43,27s9,0,9.85-2.25l12.38-3.87s8-2.12,11.09-7.45S224,277.57,224,277.57Z"/><path class="cls-8" d="M224,277.57l-.17.28-.51.79-2,3.06-7.55,11.44q-2.42,3.67-5.29,8.07c-1.89,2.92-4,6.06-6,9.47a14.18,14.18,0,0,1-4.4,4.32,26.43,26.43,0,0,1-5.87,2.79L179,321.92l.12-.11a2,2,0,0,1-1,.95,6,6,0,0,1-1.2.5,17,17,0,0,1-2.55.54,42.3,42.3,0,0,1-5.32.37H169l0-.14-4.2-15.24c-.76-2.75-1.5-5.47-2.24-8.15-.36-1.35-.76-2.65-1.08-4A3.56,3.56,0,0,1,163.2,293a72.68,72.68,0,0,1,7.41-3c.6-.23,1.2-.47,1.78-.74a14.2,14.2,0,0,1,1.75-.85,4.24,4.24,0,0,1,3.79.43l-.29.14a7.25,7.25,0,0,1,1.61-4.68,7.89,7.89,0,0,1,4.1-2.49l-.11.09c7.15-13.11,13.16-24.11,17.39-31.85,2.12-3.85,3.79-6.89,4.93-9l1.31-2.36c.16-.26.27-.46.35-.6l.12-.2-.1.21c-.07.15-.18.35-.32.61-.29.56-.72,1.35-1.26,2.39l-4.86,9c-4.19,7.76-10.16,18.78-17.27,31.91l0,.07-.08,0a7.56,7.56,0,0,0-3.9,2.38A6.86,6.86,0,0,0,178,289v.33l-.28-.19a3.86,3.86,0,0,0-3.46-.37,14.83,14.83,0,0,0-1.71.83c-.59.28-1.19.53-1.8.76a73.34,73.34,0,0,0-7.35,3,3.16,3.16,0,0,0-1.58,3.26c.3,1.29.71,2.64,1.07,4,.74,2.68,1.48,5.4,2.24,8.15,1.44,5.22,2.84,10.34,4.19,15.24l-.18-.13a43.3,43.3,0,0,0,5.27-.36,16.93,16.93,0,0,0,2.49-.53,5.67,5.67,0,0,0,1.14-.46,1.71,1.71,0,0,0,.78-.77l0-.08.08,0,13.18-4.1a25.29,25.29,0,0,0,5.79-2.75,13.63,13.63,0,0,0,4.31-4.2c2.07-3.41,4.15-6.54,6.06-9.46l5.32-8.05,7.64-11.38,2.06-3,.54-.77A2.77,2.77,0,0,1,224,277.57Z"/><path class="cls-8" d="M196,298.78s-.23-.08-.62-.29a18.41,18.41,0,0,1-1.61-1,30.86,30.86,0,0,1-8.72-8.72,16.19,16.19,0,0,1-1-1.61,2.69,2.69,0,0,1-.3-.62c.06,0,.57.8,1.49,2.08a37.51,37.51,0,0,0,8.65,8.65C195.22,298.22,196.05,298.73,196,298.78Z"/><path class="cls-8" d="M196.81,285a8.73,8.73,0,0,1-2.05.37,23.82,23.82,0,0,1-5,0,24.4,24.4,0,0,1-4.91-1,8.66,8.66,0,0,1-1.93-.79,15.44,15.44,0,0,1,2,.54,30.62,30.62,0,0,0,9.83,1A18,18,0,0,1,196.81,285Z"/><path class="cls-8" d="M145.32,216.51l-.06.17-.19.49c-.16.43-.43,1.05-.8,1.85-.73,1.59-2,3.81-3.56,6.5a59.91,59.91,0,0,0-5,9.75c-.08.24-.17.49-.26.73l-.21.76-.42,1.54a10.44,10.44,0,0,0-.34,1.59l-.27,1.64c-.13,1.11-.2,2.25-.27,3.4,0,.58,0,1.16,0,1.75a17.52,17.52,0,0,0,0,1.77,113.78,113.78,0,0,0,1.85,13.3,95.85,95.85,0,0,1,1.48,10.89c.15,1.57.07,3,.1,4.23s-.16,2.32-.27,3.19-.27,1.5-.35,2c0,.21-.08.38-.1.52s0,.17-.05.17,0-.06,0-.18,0-.31.06-.52c.07-.48.17-1.15.28-2s.13-1.93.21-3.17,0-2.66-.15-4.21a102.43,102.43,0,0,0-1.56-10.85,108.77,108.77,0,0,1-1.88-13.34,17.74,17.74,0,0,1-.06-1.78v-1.77c.07-1.17.14-2.31.28-3.44.09-.55.18-1.11.28-1.66a10.7,10.7,0,0,1,.34-1.61c.15-.52.29-1,.43-1.55.08-.26.15-.52.22-.77l.27-.74a58.38,58.38,0,0,1,5-9.77c1.63-2.67,2.89-4.86,3.66-6.43.39-.78.68-1.39.86-1.82.1-.19.17-.34.23-.47S145.31,216.5,145.32,216.51Z"/><path class="cls-8" d="M169.77,187l-.09.15-.29.42c-.26.37-.66.9-1.21,1.56-1.08,1.33-2.73,3.19-4.81,5.47L160,198.34c-1.21,1.37-2.5,2.84-3.71,4.5a29.18,29.18,0,0,0-4.66,12.46l-.35-.11a20.71,20.71,0,0,1,2-3.12q.59-.8,1.14-1.59c.18-.26.35-.53.52-.81l.24-.4.1-.22.06-.1,0,0,0-.07a.21.21,0,0,1,.19-.07.22.22,0,0,1,.16.12l0,0,0,.05,0,.12.09.23a4.11,4.11,0,0,1,.15.46,8.09,8.09,0,0,1,.21.95,11.09,11.09,0,0,1,.12,1.9,37.8,37.8,0,0,1-1.18,7.07c-.84,4.49-2.38,8.34-3.3,11.64a29.9,29.9,0,0,0-1.33,8,19.61,19.61,0,0,0,.1,2.21c0,.23,0,.42.07.57s0,.2,0,.2a13.71,13.71,0,0,1-.32-3,28.78,28.78,0,0,1,1.23-8.07c.89-3.33,2.39-7.17,3.21-11.64a38.14,38.14,0,0,0,1.15-7,9.38,9.38,0,0,0-.12-1.83,5.57,5.57,0,0,0-.2-.9,2.25,2.25,0,0,0-.14-.44l-.08-.22,0-.11,0-.06h0c.06,0-.14,0,.14-.07h0c-.12-.05.17.08.14.08h0l0,.06-.05.11-.12.21-.24.43c-.17.28-.35.55-.53.82-.37.54-.76,1.07-1.15,1.6a21,21,0,0,0-2,3.06l-.53,1.12.18-1.22A29.22,29.22,0,0,1,156,202.64c1.23-1.67,2.54-3.13,3.75-4.5s2.38-2.6,3.43-3.73c2.1-2.26,3.78-4.09,4.89-5.39.56-.65,1-1.16,1.25-1.51l.32-.4C169.72,187,169.76,187,169.77,187Z"/><path class="cls-8" d="M171.26,289.75s.1.07.26.25l.66.75a16,16,0,0,1,1,1.24c.36.51.81,1.06,1.22,1.72a24.08,24.08,0,0,1,1.34,2.2c.48.79.89,1.68,1.34,2.62a36.17,36.17,0,0,1,3.2,13.05c0,1,.08,2,0,2.95a22.28,22.28,0,0,1-.17,2.56,20.31,20.31,0,0,1-.29,2.09,14.28,14.28,0,0,1-.31,1.56c-.1.4-.18.72-.25,1s-.09.34-.11.34a1.28,1.28,0,0,1,0-.35c.05-.27.1-.6.17-1s.19-1,.26-1.57.19-1.31.23-2.09.13-1.63.12-2.54,0-1.89-.06-2.92a40.67,40.67,0,0,0-1-6.61,41.35,41.35,0,0,0-2.17-6.32c-.44-.93-.83-1.82-1.29-2.61s-.87-1.54-1.29-2.2-.82-1.23-1.17-1.74-.68-.94-1-1.28-.45-.58-.61-.8A1.19,1.19,0,0,1,171.26,289.75Z"/><path class="cls-8" d="M194.13,250.53a7.33,7.33,0,0,1-1.09-.37l-2.94-1.08c-2.48-.89-5.94-2-9.82-3.07s-7.47-1.75-10.06-2.21l-3.09-.52a5.39,5.39,0,0,1-1.12-.22,8.65,8.65,0,0,1,1.14.08c.74.07,1.8.21,3.11.4a94.48,94.48,0,0,1,10.11,2.11,99.41,99.41,0,0,1,9.83,3.18c1.23.48,2.22.89,2.89,1.2A6.16,6.16,0,0,1,194.13,250.53Z"/><g class="cls-9"><path d="M190.23,301.31a9.94,9.94,0,0,0-2-2.59l-10.35-10.53,0,.78c2.3,1.56,2.79,4.72,3.45,7.43s1.24,5.59,3.12,7.64a5,5,0,0,0,2.86,1.65,3,3,0,0,0,2.95-1.2A3.35,3.35,0,0,0,190.23,301.31Z"/></g><g class="cls-9"><path d="M176,276.34a4.74,4.74,0,0,1-6.21-1.16l-8.61-7.84c2.47,3.62,4.44,7.29,6.9,10.91a5.69,5.69,0,0,0,2.5,2.41,5.24,5.24,0,0,0,3.61-.39,30.67,30.67,0,0,0,11-7.24Z"/></g><g class="cls-9"><path d="M165.21,231.87c8-3.85,10.94-14.55,18.92-18.54a14.38,14.38,0,0,1,14.5,1.17c1.38,1,2.92,2.32,4.55,1.85,1.24-.35,1.95-1.61,2.54-2.76l6-11.73-7.85,9.25a4.33,4.33,0,0,1-2,1.59c-1.59.41-2.73-1.37-4.19-2.09-4.56-2.28-7.75-5.13-10.29-3.21,0,0-4.43,3-6.2,3.36l-15.93,20.81Z"/></g><g class="cls-9"><path d="M151.51,239.7A18.85,18.85,0,0,1,153.1,229c1.46-3.3,3.3-6.46,4.2-9.95a19.74,19.74,0,0,0,.29-8.55,10.22,10.22,0,0,1-.34-4,7.38,7.38,0,0,1,1.08-2.33A52.09,52.09,0,0,1,164.6,196l5-7.57s.21,8.78.05,9.62a57,57,0,0,1-2.19,7.65,60.53,60.53,0,0,1-5.71,11.67,92.66,92.66,0,0,0-7.08,13.3Z"/></g><path class="cls-14" d="M183.38,207.43C173.18,205,170,200,169.92,191l-.15-11.42s-11.3-.58-13.93-17.41a167.35,167.35,0,0,1-1.72-33.1c.66-10.09,11.14-27.87,21.19-26.79l27.61,13.43a5.92,5.92,0,0,1,5.28,6h0l-2.15,65.22Z"/><path class="cls-8" d="M158.44,141.41a2.15,2.15,0,0,0,2.07,2.18,2.06,2.06,0,0,0,2.23-1.94,2.16,2.16,0,0,0-2.07-2.18A2.06,2.06,0,0,0,158.44,141.41Z"/><path class="cls-8" d="M157.09,136.76c.24.21,1.93,0,4.19.53s3.79,1.56,4.06,1.47-.08-.36-.75-.81a10.59,10.59,0,0,0-3.22-1.36,9.58,9.58,0,0,0-3.37-.24C157.26,136.46,157,136.67,157.09,136.76Z"/><path class="cls-8" d="M180,142.06a2.16,2.16,0,0,0,2.08,2.18,2.08,2.08,0,0,0,2.23-1.94,2.16,2.16,0,0,0-2.08-2.18A2.06,2.06,0,0,0,180,142.06Z"/><path class="cls-8" d="M180,138.57c.33.08,1.82-1.06,4.26-1.71s4.44-.46,4.65-.69-.27-.32-1.15-.42a10.69,10.69,0,0,0-3.79.36,9.49,9.49,0,0,0-3.33,1.56C180,138.18,179.8,138.53,180,138.57Z"/><path class="cls-8" d="M171.43,153.86a15.79,15.79,0,0,0-3.77-.69c-.59-.06-1.15-.18-1.25-.58a3,3,0,0,1,.4-1.76l1.77-4.51c2.44-6.42,4.21-11.7,4-11.79s-2.46,5-4.91,11.45l-1.69,4.53a3.49,3.49,0,0,0-.31,2.33,1.53,1.53,0,0,0,1,.87,3.86,3.86,0,0,0,1,.14A15.19,15.19,0,0,0,171.43,153.86Z"/><path class="cls-7" d="M169.77,179.72a42.8,42.8,0,0,0,22.53-6s-5.7,11.86-22.53,10.24Z"/><path class="cls-24" d="M171.81,159.51a6.17,6.17,0,0,1,4.46-2.95,2.64,2.64,0,0,1,2.61,1.45,4.24,4.24,0,0,1-.37,3.86,3.58,3.58,0,0,1-3.52,1.71,6,6,0,0,1-2.91-1.9,2,2,0,0,1-.58-.83,1.42,1.42,0,0,1,.18-1.22Z"/><path class="cls-8" d="M178.26,155.48c-.38,0-.39,2.5-2.55,4.28s-4.84,1.5-4.86,1.85c0,.16.6.5,1.73.53a6.28,6.28,0,0,0,4.06-1.4,5.48,5.48,0,0,0,2-3.59C178.71,156.09,178.43,155.47,178.26,155.48Z"/><path class="cls-8" d="M178.06,128.42c.3.61,2.57.08,5.31.14s5,.58,5.32,0c.13-.29-.31-.84-1.25-1.36a9.26,9.26,0,0,0-8.09-.1C178.39,127.59,177.94,128.13,178.06,128.42Z"/><path class="cls-8" d="M156.39,131.65c.5.53,2.49,0,4.88-.05s4.41.34,4.88-.21c.2-.27-.12-.8-1-1.29a8,8,0,0,0-4-.86,7.85,7.85,0,0,0-3.9,1.07C156.44,130.85,156.16,131.39,156.39,131.65Z"/><path class="cls-8" d="M232.36,191.8c-3.67-5.92-6.66-20.69-7.94-28.18s-5.24-31.49-11.62-44.1-13.89-17.72-21.26-19.7a17,17,0,0,0-16.23,3.68c-3.33,3-4.46,11.65-4.46,11.65s17.78,3.95,23.76,14.09c6.88,11.64,8.55,17.5,8.55,17.5l2.22,6.37s-2.08,12.33-2.84,18.42.45,11.76,5.47,14.23l10.09,7.13s13.19,9,13.8,9.43c2.81,2.15,8.33,10.35,8.33,10.35S239.85,203.92,232.36,191.8Z"/><path class="cls-8" d="M170.35,115.25s-10.17-1.1-13.93,10.38c-1.69,5.2-3,20.2-3,20.2s-1.49-11.91-.94-18.71,3.94-15.39,9.15-20.16c5.07-4.62,9.34-6.79,18.4-6.25a14.59,14.59,0,0,0-6.54,4.89C172.34,107.32,171.84,108.79,170.35,115.25Z"/><path class="cls-14" d="M203,147.63c.18-3.73,4.24-6.21,7.46-4.35,1.77,1,3.13,3.09,3,7-.44,10.54-10.93,7.93-10.93,7.62S202.82,152,203,147.63Z"/><path class="cls-7" d="M205.92,154.08c.05,0,.18.14.48.3a1.86,1.86,0,0,0,1.37.08c1.13-.36,2.14-2.09,2.27-4a6,6,0,0,0-.4-2.65,2.12,2.12,0,0,0-1.33-1.46.94.94,0,0,0-1.1.45c-.15.29-.09.51-.15.52s-.22-.18-.12-.62a1.26,1.26,0,0,1,.44-.64,1.47,1.47,0,0,1,1-.23,2.6,2.6,0,0,1,1.85,1.72,6.32,6.32,0,0,1,.52,3c-.16,2.12-1.33,4.06-2.87,4.44a2,2,0,0,1-1.67-.35C205.93,154.34,205.88,154.1,205.92,154.08Z"/><path class="cls-15" d="M187.32,99.16c0,.07-1.45,0-3.73.33a13.26,13.26,0,0,0-3.85,1.15,12.83,12.83,0,0,0-3.86,3,19.52,19.52,0,0,0-4.27,7.83c-.61,2.23-.69,3.68-.76,3.67a4.41,4.41,0,0,1,0-1,18.82,18.82,0,0,1,4.72-10.73,12.7,12.7,0,0,1,4-3.07,12.44,12.44,0,0,1,4-1.1,21.56,21.56,0,0,1,2.76-.13A3.86,3.86,0,0,1,187.32,99.16Z"/><path class="cls-15" d="M212.79,155.24s0-.05,0-.17.05-.29.09-.49.1-.49.16-.8.1-.69.16-1.1a25.35,25.35,0,0,0-3.75-16.75,28.37,28.37,0,0,0-9.24-8.69,53.57,53.57,0,0,0-5.89-3.08c-2-.9-3.91-1.59-5.72-2.42a67.91,67.91,0,0,1-9.19-5.16c-2.49-1.66-4.44-3.11-5.76-4.14-.66-.52-1.17-.92-1.5-1.21l-.39-.33q-.12-.11-.12-.12l.15.09.4.3,1.55,1.15c1.34,1,3.31,2.41,5.82,4a71.17,71.17,0,0,0,9.18,5.07c1.79.8,3.76,1.5,5.73,2.4a50.91,50.91,0,0,1,5.93,3.09,28.46,28.46,0,0,1,9.34,8.82,25,25,0,0,1,3.62,9.87,23.81,23.81,0,0,1,0,7.09c-.07.41-.14.78-.19,1.1s-.14.57-.2.8-.09.35-.12.48S212.8,155.25,212.79,155.24Z"/><path class="cls-15" d="M215.23,151.27a.58.58,0,0,1,0-.18v-.5c0-.44.05-1.1,0-1.94a40.31,40.31,0,0,0-3.95-17A39.53,39.53,0,0,0,204,121.13a46.74,46.74,0,0,0-10.31-7.66c-3.45-2-6.69-3.49-9.39-4.81s-4.9-2.38-6.38-3.17c-.75-.39-1.32-.72-1.7-.93l-.44-.25c-.1-.06-.15-.09-.14-.1l.16.06.45.22c.42.22,1,.5,1.73.86,1.51.76,3.71,1.79,6.43,3.07s6,2.79,9.45,4.75a46.07,46.07,0,0,1,10.4,7.7,39.39,39.39,0,0,1,7.41,10.6,40.22,40.22,0,0,1,3.21,10.08,37.38,37.38,0,0,1,.57,7.11c0,.84-.07,1.49-.1,1.93,0,.2,0,.37,0,.5S215.24,151.27,215.23,151.27Z"/><path class="cls-15" d="M214.92,190.65a1.41,1.41,0,0,1-.16-.32c-.11-.25-.24-.56-.39-.94a14.27,14.27,0,0,1-.56-1.51c-.2-.6-.44-1.27-.63-2-.1-.39-.21-.79-.32-1.21s-.19-.86-.29-1.31c-.21-.91-.34-1.9-.51-2.93a63.17,63.17,0,0,1-.52-6.8,104.27,104.27,0,0,1,.62-12.35c.16-1.57.31-2.84.42-3.72.06-.4.1-.73.14-1a1.16,1.16,0,0,1,.07-.35s0,.12,0,.35,0,.61-.06,1c-.08.94-.18,2.2-.31,3.73-.24,3.15-.58,7.5-.5,12.31.05,2.41.23,4.69.48,6.76.16,1,.28,2,.48,2.91.09.46.17.9.26,1.32s.2.82.3,1.2c.17.77.39,1.45.57,2s.34,1.11.49,1.52.24.71.33,1S214.94,190.65,214.92,190.65Z"/><path class="cls-14" d="M81.61,287.38s11.46,14.69,15.56,15.86,19.65,5,19.65,5l51,11.79-6-21.87-48.31-.66Z"/><path class="cls-25" d="M16,212.58c3.83,9.48,23.1,52.87,27.57,62.91a5,5,0,0,0,3.09,2.77l60.65,19.25,60.17,4.5v-2l-48.65-14.74-15.36-1.8-22.94-56.9a8.24,8.24,0,0,0-6.13-5L17.22,211.1A1.09,1.09,0,0,0,16,212.58Z"/><path class="cls-8" d="M167.49,300h-.19l-.56,0-2.15-.19L156.7,299,145,297.78l-14.33-1.44c-5.08-.5-9.93-.88-14.34-1.14l-6.28-.39a11.49,11.49,0,0,1-1.45-.18,3.68,3.68,0,0,1-.71-.23,1.28,1.28,0,0,1-.55-.53,24.8,24.8,0,0,1-1-2.46l-2.8-7.42c-.32-.85-.57-1.53-.75-2l-.18-.53c0-.12-.06-.18,0-.18a1.47,1.47,0,0,1,.08.17c.06.13.13.31.23.51.19.49.46,1.16.81,2,.69,1.77,1.69,4.28,2.91,7.38a25.66,25.66,0,0,0,1,2.39.92.92,0,0,0,.43.42,3,3,0,0,0,.64.2,10.66,10.66,0,0,0,1.41.17c2,.09,4.07.23,6.28.36,4.42.23,9.28.61,14.36,1.11L145,297.43l11.69,1.3,7.88.91,2.13.27.56.07C167.43,300,167.49,300,167.49,300Z"/><path class="cls-14" d="M136.4,288.4s.87-5.72,0-6.84-7-6.64-7-6.64l-3.47-3.27-7.67-1.17a2.32,2.32,0,0,0-2.34,1.07l-.79,1.26-2.08-.35-1.83-2.65H106.1l-3.78,4.09v5.51a1,1,0,0,0,1.84.41c1.32-1.12,1.4-4.23,1.4-4.23l2.27,2.09L105.42,285s1.7,1.53,2.92,0,3-3.79,3-3.79,2,5.52,5.52,7.15,11.85,3.13,13.59,2.74S136.07,291.46,136.4,288.4Z"/><path class="cls-26" d="M124.26,275.86s0,.09-.14.21a1.51,1.51,0,0,1-.6.38,3,3,0,0,1-1.11.16c-.45,0-.93-.11-1.46-.16a2.56,2.56,0,0,0-1.62.25,7.63,7.63,0,0,0-1.34,1.45,6.07,6.07,0,0,1-4.1,2.22,3.84,3.84,0,0,1-3.42-1.58l-.07-.12.09-.1A39.65,39.65,0,0,0,114.2,274c.83-1.18,1.28-1.91,1.32-1.89a3,3,0,0,1-.26.56c-.19.35-.48.85-.88,1.46a32.57,32.57,0,0,1-3.63,4.64l0-.22a3.53,3.53,0,0,0,3.11,1.41,5.83,5.83,0,0,0,3.85-2.08,7.54,7.54,0,0,1,1.44-1.49,2.88,2.88,0,0,1,1.81-.25c.55.08,1,.19,1.44.22a3.46,3.46,0,0,0,1.06-.08A2.12,2.12,0,0,0,124.26,275.86Z"/><path class="cls-26" d="M130.28,288.1s-.09-.32-.32-.86a8.22,8.22,0,0,0-1.32-2.1c-.67-.82-1.58-1.71-2.41-2.89a6.38,6.38,0,0,1-1-2,4.92,4.92,0,0,1,0-2.44,5.94,5.94,0,0,1,1.1-2.17,2.58,2.58,0,0,1,.92-.78,1.37,1.37,0,0,1,1.2,0,2.76,2.76,0,0,1,1.22,1.67,7.88,7.88,0,0,0,.68,1.57,6.66,6.66,0,0,0,1.63,1.86c.46.36.75.52.74.55a3,3,0,0,1-.83-.43,6.38,6.38,0,0,1-1.77-1.84,7.39,7.39,0,0,1-.74-1.6,2.5,2.5,0,0,0-1.09-1.47,1,1,0,0,0-.89,0,2.15,2.15,0,0,0-.78.67,5.6,5.6,0,0,0-1,2,4.57,4.57,0,0,0,0,2.26,5.81,5.81,0,0,0,.88,1.94c.78,1.15,1.68,2.06,2.32,2.92a7.19,7.19,0,0,1,1.26,2.21,2.6,2.6,0,0,1,.16.67C130.29,288,130.29,288.1,130.28,288.1Z"/><path class="cls-26" d="M110.79,274a1.57,1.57,0,0,0-1.1.45,7.56,7.56,0,0,0-1.38,2.71c-.41,1.15-.77,2.2-1.07,2.95a3.71,3.71,0,0,1-.58,1.18A5.68,5.68,0,0,1,107,280c.24-.76.56-1.82,1-3a6.65,6.65,0,0,1,1.55-2.79,1.41,1.41,0,0,1,.93-.36C110.69,273.87,110.8,274,110.79,274Z"/><path class="cls-26" d="M111.34,273.87s-.31.11-.84,0a3.78,3.78,0,0,1-1.92-.85h.24l-.47.41a16.11,16.11,0,0,1-2.79,2.12,16.69,16.69,0,0,1,2.54-2.41l.48-.4.12-.1.12.1a4.3,4.3,0,0,0,1.73.9A5.11,5.11,0,0,1,111.34,273.87Z"/><path class="cls-26" d="M119.46,287a4.32,4.32,0,0,1,.55-1.3,15,15,0,0,1,4.46-5.09,3.64,3.64,0,0,1,1.23-.7,39.13,39.13,0,0,0-3.47,3.24A44.35,44.35,0,0,0,119.46,287Z"/><path class="cls-8" d="M76.22,222.51s0,.06.1.18.14.33.24.56l.89,2.17c.77,1.91,1.87,4.63,3.22,8l10.47,26.42c4,10.32,7.71,19.67,10.38,26.46l3.1,8,.83,2.19c.08.24.15.43.2.57s.07.2.06.2a.74.74,0,0,1-.09-.18l-.24-.56c-.22-.52-.52-1.24-.9-2.17-.76-1.91-1.86-4.63-3.21-8L90.79,260c-4-10.32-7.71-19.67-10.37-26.46-1.3-3.38-2.36-6.11-3.1-8l-.83-2.19q-.12-.34-.21-.57Z"/><path class="cls-19" d="M63.27,249.34c1.53,2.12,1.52,4.74,0,5.86s-4.05.32-5.58-1.79-1.51-4.74,0-5.87S61.74,247.23,63.27,249.34Z"/><path class="cls-10" d="M181.74,236a1.06,1.06,0,0,1-.5,2.07,1.06,1.06,0,1,1,.5-2.07Z"/><polygon class="cls-11" points="174.16 236.39 175.87 229.3 181.56 230.68 181.16 232.34 177.41 231.44 177.15 232.51 180.9 233.42 180.53 234.97 176.78 234.06 176.51 235.19 180.26 236.09 179.86 237.76 174.16 236.39"/><polygon class="cls-12" points="182.94 235.54 181.47 233.14 182.03 230.79 183.33 231.1 185.87 235.68 186.21 234.28 187.69 236.69 187.01 239.48 185.99 239.24 183.2 234.45 182.94 235.54"/><path class="cls-11" d="M189.36,234.37l-3-.72.42-1.72,7.08,1.71-.41,1.72-2.13-.51-1,4c-.18.76-1.22,1.15-2.29.9Z"/><path class="cls-8" d="M152.44,199.28s-7.69,5.77-9.79,19.94C142.65,219.22,146,205.57,152.44,199.28Z"/><path class="cls-8" d="M128.27,312.89s-4.17,23.54-5.74,40.15C122.53,353,128.4,315.25,128.27,312.89Z"/><path class="cls-8" d="M316.82,397.76q-.29-3.87-.49-7.56c0-.13,0-.26,0-.39-.27-5.1-.41-9.88-.36-14.07v-.05c0-.63,0-1.25,0-1.86a68.81,68.81,0,0,1,.51-7.14,52.43,52.43,0,0,1,2.6-10.51c.76-2.2,1.66-4.36,2.63-6.47A115.8,115.8,0,0,1,334,329.64c3.67-4.92,6.44-8.05,6.46-8.45,0-.16,1.33-.32,3.58-.5h.06l.58,0c7.26-.52,22.69-1.09,36.6-1.53h0l2.6-.08h0l9.79-.3,5.76-.16,4.91-.14,1.79-.05h.15l2.58-.07a179.23,179.23,0,0,1,8.87,15.73v0h0c1.17,2.33,2.34,4.77,3.43,7.32a5.16,5.16,0,0,1,.21.49,77.65,77.65,0,0,1,5,15.47A137,137,0,0,1,428.29,375c0,.81.08,1.65.11,2.48v0c.07,1.41.12,2.85.16,4.31v.06c.14,5.11.16,10.47.09,15.88H316.82Z"/><path class="cls-15" d="M374.1,367.94c.1,0,.62-8.95,1.15-20s.86-20,.75-20-.62,8.95-1.15,20S374,367.94,374.1,367.94Z"/><path class="cls-15" d="M367.94,330.73a3.32,3.32,0,0,1,2.81,2.3,3.86,3.86,0,0,1-1.62,4.39,3.65,3.65,0,0,1-4.51-.78,3.92,3.92,0,0,1-.14-4.7,3.67,3.67,0,0,1,4.46-1.05Z"/><path class="cls-17" d="M391.28,195.84l-4.5-11.67L360,182.72,349,184.17l-1.21,3.23-7.42,134.9s25.95,5.38,38.93,3.51,28.24-7.95,28.24-7.95V241.15Z"/><path class="cls-8" d="M350.94,201.32a2.71,2.71,0,0,0,.19.24l.58.67c.52.57,1.29,1.41,2.29,2.43a91.85,91.85,0,0,0,8.77,7.89l.13.1.11-.13a102.37,102.37,0,0,0,8-10.33c.27-.41.55-.81.79-1.18h-.32c2.3,3.16,4.47,6.17,6.44,8.9a4.66,4.66,0,0,0,.9.93,1.66,1.66,0,0,0,1.24.34,2,2,0,0,0,1.08-.62c.28-.29.51-.6.74-.89l2.54-3.27c1.52-2,2.76-3.58,3.65-4.73l1-1.3a3.42,3.42,0,0,0,.32-.46,2.77,2.77,0,0,0-.38.41l-1,1.25-3.74,4.66-2.58,3.23c-.46.57-.93,1.26-1.62,1.38s-1.33-.51-1.8-1.16c-2-2.73-4.13-5.74-6.41-8.92l-.16-.22-.16.23-.79,1.18a106,106,0,0,1-8,10.32l.24,0a105.54,105.54,0,0,1-8.84-7.75c-1-1-1.82-1.81-2.36-2.36l-.62-.63C351,201.38,351,201.31,350.94,201.32Z"/><g class="cls-9"><path d="M381.56,209.87s-3.4,4.3-4.36,3.22-6-9.08-6.58-9.41-6.69,10.88-9.08,10.1-10.89-9.52-10.89-9.52l-.17-3.44,12.4,11.58,8.8-11.51,7.41,9.9S380.66,212.05,381.56,209.87Z"/></g><path class="cls-8" d="M402.86,118.28s7,26.9,7.62,45.94l.2,6.34s-15.47,13.18-28.45,14l-10.87-27.44Z"/><path class="cls-8" d="M334.16,134.78c3-13.12,4.09-28.39,14.72-36.94,7.89-6.35,16.88-8.12,26.89-7.69,4.93.21,10.5,2.55,14.8,5,5.89,3.42,8.38,10.36,11.22,16.67,5.69,12.63,5,29.73,1.12,34.48l-51.42,27.87c-10.27-5.48-16.7-7.67-18.34-21.72A52.74,52.74,0,0,1,334.16,134.78Z"/><path class="cls-14" d="M349.43,108.26l32.36-9.8c10.42-1.56,17.89,11.39,19,22.15,1.2,12,2.2,26.58,1.16,35.58-2.09,18.08-15.43,20.91-15.43,20.91s.09,7.26.09,7.26l-14.73,16.07L349.31,185l-5.15-70.09A6.3,6.3,0,0,1,349.43,108.26Z"/><path class="cls-8" d="M394.82,137a2.29,2.29,0,0,1-2.08,2.42,2.16,2.16,0,0,1-2.39-2,2.28,2.28,0,0,1,2.07-2.41A2.17,2.17,0,0,1,394.82,137Z"/><path class="cls-8" d="M398.61,131.44c-.26.32-2-.91-4.43-.8s-4.14,1.41-4.41,1.12c-.14-.13.12-.68.87-1.29a6,6,0,0,1,3.52-1.27,5.79,5.79,0,0,1,3.55,1C398.47,130.77,398.74,131.31,398.61,131.44Z"/><path class="cls-8" d="M373.6,137a2.3,2.3,0,0,1-2.08,2.42,2.16,2.16,0,0,1-2.39-2A2.28,2.28,0,0,1,371.2,135,2.17,2.17,0,0,1,373.6,137Z"/><path class="cls-8" d="M374.84,131.74c-.27.31-2-.91-4.43-.81s-4.14,1.42-4.42,1.12c-.13-.13.13-.68.88-1.29a6.14,6.14,0,0,1,3.52-1.27,5.81,5.81,0,0,1,3.55,1C374.7,131.06,375,131.6,374.84,131.74Z"/><path class="cls-8" d="M384.25,147.82c0-.14,1.48-.47,3.9-.89.61-.09,1.19-.24,1.28-.67a3.22,3.22,0,0,0-.48-1.86l-2-4.75c-2.8-6.77-4.85-12.34-4.58-12.45s2.75,5.28,5.54,12q1,2.5,1.94,4.78a3.74,3.74,0,0,1,.41,2.47,1.58,1.58,0,0,1-1,1,4.11,4.11,0,0,1-1,.19C385.79,147.89,384.27,148,384.25,147.82Z"/><path class="cls-7" d="M386.55,177.1a43.53,43.53,0,0,1-23.69-5.47s6.28,12.34,23.74,10Z"/><path class="cls-24" d="M376.42,153.33a3.45,3.45,0,0,1,2.85-1.74,4.48,4.48,0,0,1,4.23,1.94,3,3,0,0,1,.27,2.09c-.14.36,0,.18-.29.44a8,8,0,0,1-3.18,2.2,3.36,3.36,0,0,1-3.67-1.22A3.64,3.64,0,0,1,376.42,153.33Z"/><path class="cls-8" d="M376.78,149.93c.38,0,.51,2.65,2.84,4.46s5.11,1.38,5.14,1.75c.05.17-.6.55-1.77.64a6.4,6.4,0,0,1-4.29-1.31,5.91,5.91,0,0,1-2.22-3.75C376.33,150.6,376.59,149.92,376.78,149.93Z"/><path class="cls-8" d="M375.75,122.66c-.17.69-2.6.62-5.39,1.25s-5,1.64-5.43,1.08c-.2-.27.14-.94,1-1.68a9.08,9.08,0,0,1,3.92-1.87,8.94,8.94,0,0,1,4.33.09C375.26,121.85,375.83,122.33,375.75,122.66Z"/><path class="cls-8" d="M398.41,124.77c-.55.49-2.31-.37-4.52-.72s-4.14-.23-4.49-.88c-.15-.31.22-.83,1.12-1.23a7.11,7.11,0,0,1,7.26,1.29C398.48,123.91,398.66,124.53,398.41,124.77Z"/><path class="cls-8" d="M381.9,96.53c0,.13.05.26.08.39l-.06,0C381.91,96.8,381.91,96.67,381.9,96.53Z"/><path class="cls-8" d="M356.33,183.51a2.92,2.92,0,0,0,3.67-2.37,37.86,37.86,0,0,0,.09-10.94c-.57-5-3.86-10.21-4.27-15.22-.79-9.55,0-14.91,1.07-22.93,4.39-.56,8.47-3.26,11.39-6.75,3.51-4.2,5.64-9.41,7.71-14.53a24.74,24.74,0,0,1-4.77,14,6.3,6.3,0,0,0,5.46-1.82,14.74,14.74,0,0,0,3.2-5.11A40.8,40.8,0,0,0,383,103.44a53.13,53.13,0,0,1-2.29,21,8.45,8.45,0,0,1,3.8.15,4.11,4.11,0,0,0,3.63-.8,4.74,4.74,0,0,0,1-2.39,55.12,55.12,0,0,0,.58-18.3,57.38,57.38,0,0,1,4,10.14,20.18,20.18,0,0,1,.07,10.82,1.53,1.53,0,0,0,2.18,0,3.88,3.88,0,0,0,.95-2.26,28.56,28.56,0,0,0-.58-9.11c1.75,3.19,2.33,6.88,3.3,10.4s2.51,7.14,5.49,9.14a49,49,0,0,0-.43-13.79c-.59-3.77-2.34-7.51-3.94-11a32.65,32.65,0,0,0-7.1-10.15c-5.16-4.64-7.32-2.64-10.62-.87l-.39.17c0-.08,0-.17,0-.25l-.15-.72a48.21,48.21,0,0,0-26,1.25c-6.21,2.07-6.78,15.8-8.3,9.28-.92-4-5.9-.34-6-.23-7.33,13.56-15.1,35.08-15.45,69.08h0Z"/><g class="cls-9"><path d="M399.47,272.17q7,47.41,14.08,94.83l-1.09,10.27c-1.24,1.45-3.7,1-5-.46s-1.62-3.43-1.93-5.33C400.2,338.7,397.31,305.35,399.47,272.17Z"/></g><path class="cls-6" d="M399.9,192.3l15.9,3.19a19.5,19.5,0,0,1,14.6,13.62,32.11,32.11,0,0,1,1.07,5.14c1.39,11,8,40.83,8,40.83s14.64,7.14,15.27,13.27-5.06,17.24-5.06,17.24-6.33,17.05-14.72,20.62c-9.21,3.91-15.62-7.86-15.62-7.86h0c-.06,1.07-.09,1.67-.09,1.67l24.1,56c-6.13,11.23-17.65,24.39-29.35,27.25,0,0-13.58-87-14.35-106S387,184.41,387,184.41Z"/><path class="cls-14" d="M453.92,205.52a2.21,2.21,0,0,1,2.89,1.44c.46,1.41.56,3.13,1.16,5.58.35,1.43-.37,3.64-.22,4.93l.32,3a9.75,9.75,0,0,1,.48,5.86s3,3.12,2.6,5.86c0,0,3.84,2.5,2.86,6.67s-12.32,16.78-12.32,16.78L444.43,258l-9.34-7.27S433,239,433.36,234c.46-6,2.65-6.62,2.65-6.62l9.77-9.44,3.49-5.08s3.27.52,2.68,4.87l1.61-2.69v-3.29S451.72,208,453.92,205.52Z"/><polygon class="cls-8" points="448.89 190.25 460.4 252.48 448.31 255.54 432.73 194.42 448.89 190.25"/><path class="cls-8" d="M434.32,188.19c-4.21.42-8.13-5.71-9.83-9.68-2.31-5.36,1.15-10.12,4.76-12.39a10.35,10.35,0,0,1,11.85.89,11.71,11.71,0,0,1,3.58,11.74,12.12,12.12,0,0,1-8.78,8.49Z"/><polygon class="cls-27" points="453 176.6 460.13 201.28 422.55 209.35 419.6 185.79 453 176.6"/><g class="cls-28"><polygon class="cls-29" points="420.42 192.34 446.44 184.56 447.98 195.32 421.6 201.82 420.42 192.34"/></g><path class="cls-29" d="M424.73,179.07a15.21,15.21,0,0,0,3-.73c1.83-.54,4.34-1.36,7.07-2.39s5.16-2.07,6.9-2.87a15.32,15.32,0,0,0,2.75-1.44,19.74,19.74,0,0,0-2.91,1.06c-1.77.71-4.21,1.68-6.93,2.71s-5.2,1.9-7,2.54A17.11,17.11,0,0,0,424.73,179.07Z"/><polygon class="cls-8" points="451.29 203.19 435.81 206.5 436.43 207.93 451.5 204.37 451.29 203.19"/><path class="cls-14" d="M450.91,227.85c.23.72,1.67.9,3.23.38s2.62-1.53,2.39-2.26-1.68-.9-3.23-.38S450.68,227.12,450.91,227.85Z"/><path class="cls-14" d="M454.51,217.37s-9.88,4.77-13.08,9.86c-2.22,3.54,1.26,4.26,1.26,4.26s3-.9,10.32-6.28a5.79,5.79,0,0,1,2.63-1.36,1.53,1.53,0,0,1,1.71.6Z"/><path class="cls-14" d="M456,225.38s-5.51-.32-12.36,10.23a2.94,2.94,0,0,0,1.4,4.68s1.26.14,7.44-6.85c0,0,1.4-1.11,3.07-2.37,0,0,2.52.33,2.79.28Z"/><path class="cls-14" d="M457.49,231.3l1.89,7.42a7.81,7.81,0,0,1-2.64-.78l-.12-.08s-4.86,3-5.36,3c0,0-2.93.83-4,.37a6.35,6.35,0,0,1-1-1.62s5.6-5.09,6.14-6.2c0,0,2.47-1.89,3-2.45C455.52,231,457.09,231.52,457.49,231.3Z"/><path class="cls-7" d="M453,225.21a1.74,1.74,0,0,0-.34.2l-1,.63-3.49,2.33c-.74.48-1.55,1-2.44,1.55-.45.27-.91.54-1.39.8a4.58,4.58,0,0,1-1.53.57,1.42,1.42,0,0,1-.77-.09,1.08,1.08,0,0,1-.52-.57,4.87,4.87,0,0,1-.32-1.79,4.61,4.61,0,0,1,0-.92,3.33,3.33,0,0,1,.4-.83,11.18,11.18,0,0,1,1.28-1.5,46.15,46.15,0,0,1,6-4.73,38.93,38.93,0,0,1,5.3-3.18,1.87,1.87,0,0,1,2.07.43,6.79,6.79,0,0,1,1.16,1.36c.55.83.77,1.34.8,1.33a1.39,1.39,0,0,0-.14-.39,8.59,8.59,0,0,0-.53-1,6.23,6.23,0,0,0-1.15-1.44,2.55,2.55,0,0,0-1-.6,1.86,1.86,0,0,0-1.31.07,36.62,36.62,0,0,0-5.4,3.14,42.82,42.82,0,0,0-6,4.75,10.52,10.52,0,0,0-1.33,1.57,3.35,3.35,0,0,0-.46.95,5.29,5.29,0,0,0,0,1,5.49,5.49,0,0,0,.37,1.95,1.52,1.52,0,0,0,.71.73,1.8,1.8,0,0,0,1,.12,5.18,5.18,0,0,0,1.65-.62c.49-.27.95-.55,1.4-.83.88-.56,1.69-1.1,2.42-1.6,1.47-1,2.63-1.85,3.43-2.44l.91-.7C452.92,225.31,453,225.22,453,225.21Z"/><path class="cls-7" d="M458.16,231.45a3.22,3.22,0,0,0-.67-.15l-1.9-.33h0l0,0-3,2.26h0c-1.24,1.34-2.72,2.92-4.44,4.57-.43.41-.88.83-1.35,1.23a3.94,3.94,0,0,1-1.52.94,1.4,1.4,0,0,1-1.51-.62,4,4,0,0,1-.71-1.79,1.45,1.45,0,0,1,.23-.9c.15-.3.33-.59.51-.88.38-.58.78-1.13,1.19-1.66.82-1.05,1.65-2,2.47-3a47.53,47.53,0,0,1,4.59-4.61,5.12,5.12,0,0,1,2.11-1.16,3.53,3.53,0,0,1,1.81,0,5.34,5.34,0,0,1,1.44.65s-.09-.12-.32-.28a4.13,4.13,0,0,0-1.08-.53,3.66,3.66,0,0,0-1.89-.08,5.31,5.31,0,0,0-2.25,1.15,45,45,0,0,0-4.68,4.59c-.83.92-1.67,1.9-2.5,3-.42.53-.83,1.09-1.21,1.67a9.41,9.41,0,0,0-.54.93,1.86,1.86,0,0,0-.27,1.15,4.5,4.5,0,0,0,.8,2,2.14,2.14,0,0,0,.83.69,1.65,1.65,0,0,0,1.07.07,4.41,4.41,0,0,0,1.67-1c.48-.41.93-.84,1.36-1.25,1.72-1.68,3.18-3.28,4.4-4.65l0,0,3-2.33-.08,0,1.92.23A3.15,3.15,0,0,0,458.16,231.45Z"/><path class="cls-7" d="M446.23,239.41a2.71,2.71,0,0,0,.18.67,7.42,7.42,0,0,0,.29.78,1.4,1.4,0,0,0,.91.67,7,7,0,0,0,2.78-.14,14.52,14.52,0,0,0,3.1-1.43c1.24-.7,2.37-1.42,3.35-2.07l-.22,0,.21.23,0,0a1.6,1.6,0,0,0,.88.56,5,5,0,0,0,.86.2,9.14,9.14,0,0,0,1.4.08,2.91,2.91,0,0,0,1.21-.13s-.11,0-.32,0l-.88,0a12.1,12.1,0,0,1-1.37-.17,5.27,5.27,0,0,1-.8-.21,1.39,1.39,0,0,1-.69-.45v0h0l-.21-.23-.1-.1-.12.08c-1,.62-2.13,1.32-3.35,2a16.67,16.67,0,0,1-3,1.42,7.39,7.39,0,0,1-2.64.22,1.14,1.14,0,0,1-.78-.51,6.11,6.11,0,0,1-.33-.71A2.52,2.52,0,0,0,446.23,239.41Z"/><path class="cls-14" d="M434.77,247.61,451,255.82l-.72,15.63s-11.63,1.58-22-11.92Z"/><path class="cls-14" d="M440.3,223.48s4-5,3.7-8.1a5.93,5.93,0,0,0-1.49-3.75s-2.93,2.69-4.51,4.31c0,0-3.56,3.05-4.15,4.58,0,0-1.81,4-.36,12.68Z"/><path class="cls-8" d="M443.31,356s0-.1-.1-.29-.2-.47-.34-.83l-1.34-3.18c-1.18-2.78-2.89-6.79-5-11.79l-17.14-39.95,0,.09c.13-4.29.28-8.75.49-13.31.46-10.28,1-20.06,1.38-29s.59-16.94.66-23.68,0-12.2,0-16c0-1.87-.08-3.33-.1-4.34,0-.48,0-.85,0-1.13a3.79,3.79,0,0,0,0-.38s0,.13,0,.38,0,.65,0,1.13c0,1,0,2.47,0,4.34,0,3.77,0,9.23-.1,16s-.35,14.76-.74,23.66-.91,18.69-1.41,29c-.21,4.56-.37,9-.49,13.32v0l0,0L436.28,340c2.18,5,3.92,9,5.13,11.75l1.39,3.15.37.81A1.85,1.85,0,0,0,443.31,356Z"/><path class="cls-8" d="M400.48,267.84a.64.64,0,0,0,.06-.21l.15-.6c.13-.56.3-1.35.53-2.34.41-2,1-5,1.53-8.69s1.08-8.09,1.5-13,.75-10.31,1-16q.15-3.18.27-6.24c.05-1,.09-2,.13-3,0-.5,0-1,.08-1.48l0-.73v-.38a1.48,1.48,0,0,0,0-.2s0-.07,0-.13a.56.56,0,0,0,0-.08c0-.06-.18-.09-.21-.06s-.1.08-.14.12l.27-.06-4.25-3.05,0,.32,4.62-2.22.13-.06,0-.14c-.69-2.69-1.53-5.09-2.26-7.21s-1.41-3.95-2-5.44-1-2.67-1.35-3.47c-.15-.37-.28-.67-.37-.9a1.26,1.26,0,0,0-.15-.3s0,.11.1.32.19.54.33.92L401.6,197c.53,1.51,1.19,3.35,1.9,5.47s1.52,4.53,2.19,7.21l.09-.2-4.63,2.2-.28.13.25.18,4.24,3.07.27-.06s-.13-.1-.12-.1,0,0,0,0a.1.1,0,0,1-.07,0l-.06,0h0v0l0,.17v.35l0,.72c0,.49-.05,1-.08,1.47,0,1-.09,2-.13,3-.09,2-.19,4.11-.28,6.23-.26,5.68-.58,11.08-1,16s-.9,9.31-1.41,13-1.05,6.65-1.41,8.7c-.2,1-.35,1.78-.46,2.35,0,.25-.08.45-.11.61A.72.72,0,0,0,400.48,267.84Z"/><path class="cls-8" d="M421.15,260.82c.07,0,.09-.7.47-1.74a7.1,7.1,0,0,1,2.49-3.37,6.91,6.91,0,0,1,3.94-1.27c1.08,0,1.74.21,1.76.15a3.52,3.52,0,0,0-1.75-.43,6.55,6.55,0,0,0-4.17,1.21,7,7,0,0,0-2.54,3.62A3.8,3.8,0,0,0,421.15,260.82Z"/><path class="cls-8" d="M426.82,257a7.88,7.88,0,0,0,.57,1.16,11.47,11.47,0,0,0,.76,1.29,16.1,16.1,0,0,0,1.15,1.63c.22.29.46.6.71.91s.55.61.84.94a25.68,25.68,0,0,0,2,1.93,29.9,29.9,0,0,0,5.18,3.59,29.07,29.07,0,0,0,5.82,2.29c.94.21,1.83.44,2.68.54.42.06.83.14,1.22.17l1.14.08a18.66,18.66,0,0,0,2,0,11.57,11.57,0,0,0,1.47-.1,7.81,7.81,0,0,0,1.25-.19c0-.1-1.79.19-4.66,0l-1.12-.1c-.39,0-.79-.13-1.21-.19a26.65,26.65,0,0,1-2.63-.57,30.35,30.35,0,0,1-5.74-2.29,31.05,31.05,0,0,1-5.12-3.51c-.71-.65-1.4-1.25-2-1.89-.29-.31-.59-.6-.84-.9l-.73-.88C427.7,258.58,426.9,256.92,426.82,257Z"/><path class="cls-7" d="M444.52,240.08c-.12,0-.07,1.6-.59,3.46s-1.37,3.19-1.27,3.26a6.75,6.75,0,0,0,1.65-3.15A7,7,0,0,0,444.52,240.08Z"/><path class="cls-6" d="M325.86,309.53,310.44,203l28.48-10.72s6.67-6.29,10.22-9.56l1.25,16.48s3.85,67.38-2.21,101.31-5.2,32.79-9.64,54.86c-3.23,16.07-3.76,30.1-8.62,31.51S308.23,363,308.23,363Z"/><path class="cls-10" d="M407.55,232.12a1.15,1.15,0,1,1-1.11,1.15A1.13,1.13,0,0,1,407.55,232.12Z"/><polygon class="cls-11" points="399.95 234.41 399.95 226.6 406.07 226.6 406.07 228.44 402.04 228.44 402.04 229.63 406.07 229.63 406.07 231.33 402.04 231.33 402.04 232.57 406.07 232.57 406.07 234.41 399.95 234.41"/><polygon class="cls-12" points="408.65 231.33 406.57 229.19 406.57 226.6 407.96 226.6 411.66 230.73 411.66 229.19 413.75 231.33 413.75 234.41 412.66 234.41 408.65 230.13 408.65 231.33"/><path class="cls-11" d="M414.88,228.5h-3.22v-1.9h7.61v1.9H417v4.4c0,.84-1,1.51-2.11,1.51Z"/><path class="cls-6" d="M310.44,203s-8.63,4.34-9.93,16.72c-1.14,10.88-3,77.71-2.77,83.11s4.76,20.62,12.89,21.15c12.84.84,16.38-9.33,16.38-9.33l-3.45-34.14Z"/><path class="cls-8" d="M343.09,264.23s0-.07,0-.2-.06-.35-.1-.58c-.11-.55-.25-1.29-.43-2.23-.34-1.94-.87-4.75-1.35-8.24-1-7-1.88-16.69-2.38-27.44q-.18-3.81-.34-7.41c-.05-1.2-.11-2.38-.16-3.53,0-.58-.06-1.15-.08-1.71,0-.28,0-.56,0-.84v-.41c0-.06,0-.13,0-.19a.22.22,0,0,1,0-.06v0l0,0a.15.15,0,0,1-.11,0c-.05,0-.12-.06-.11,0h0l.27.06,4.24-3.07.24-.17-.27-.13-4.64-2.19.09.18c.49-2.13.71-4.09.94-5.8s.42-3.19.66-4.38a26.22,26.22,0,0,1,.65-2.73c.09-.28.17-.51.22-.7a1.9,1.9,0,0,0,.07-.24.88.88,0,0,0-.11.23c-.06.15-.16.38-.26.68a21,21,0,0,0-.74,2.72c-.26,1.2-.49,2.68-.73,4.39s-.49,3.66-1,5.75l0,.13.12,0,4.62,2.23,0-.31-4.26,3,.27.06,0,0a.26.26,0,0,0-.15-.08.27.27,0,0,0-.14.05l0,0a.17.17,0,0,0,0,.07.39.39,0,0,0,0,.14,1.8,1.8,0,0,0,0,.22v.43l0,.85c0,.56,0,1.13.08,1.71.05,1.15.1,2.33.15,3.53q.17,3.6.33,7.41a269.55,269.55,0,0,0,2.5,27.46c.52,3.49,1.09,6.3,1.48,8.23.21.94.38,1.67.5,2.21.06.24.11.42.14.58Z"/><g class="cls-9"><path d="M385,319.16s1.94,2.59-2.34,3.39-52.72-2.88-52.72-2.88l-9.21,5.49,1.2-4,7.68-8.41Z"/></g><path class="cls-25" d="M326.76,236.45l61,3.2a2.84,2.84,0,0,1,2.66,2.72l4,74.26a2.85,2.85,0,0,1-2.95,3l-59.18-3.18a2.85,2.85,0,0,1-2.66-2.65l-5.86-74.28A2.86,2.86,0,0,1,326.76,236.45Z"/><path class="cls-8" d="M314,220.18s0,.23.1.67.21,1.1.36,1.89c.32,1.68.78,4,1.34,7,1.11,5.88,2.57,14,4,23.06S322.16,270,322.87,276c.34,3,.62,5.35.82,7.05.1.8.17,1.44.23,1.92a5.35,5.35,0,0,0,.11.66,5.6,5.6,0,0,0,0-.67c0-.48-.09-1.12-.16-1.93-.14-1.67-.37-4.08-.7-7.06-.63-6-1.65-14.18-3-23.23s-2.9-17.18-4.08-23c-.59-2.94-1.09-5.31-1.46-6.94-.18-.79-.32-1.42-.43-1.88A3.09,3.09,0,0,0,314,220.18Z"/><path class="cls-14" d="M325.51,285.08s-3.51.21-6.62,5.55L313,294.51s-5.21,8.39,0,16.23,11.48,1.17,11.48,1.17,6.28,3.2,8,2.64,13.66-7.12,15.4-8.63c.51-.45,4.35-5,4.35-5s5.31-1.17,5.91-2.42.66-4.11-2.92-3.83c0,0,3.48-1.08,3.89-2.88s0-4.15-6.18-3.25-18,4.28-19.37,3.93a.89.89,0,0,1,.13-1.59c.44-.21,14.38-5.77,16.62-6.41,2.42-.68,2.77-6.21-2.23-4.89s-21.28,5.33-21.28,5.33Z"/><path class="cls-7" d="M334.7,306.32a22.32,22.32,0,0,0,2.58-.81c1.58-.53,3.77-1.25,6.21-2s4.66-1.33,6.27-1.75a20.61,20.61,0,0,0,2.6-.75,2.77,2.77,0,0,0-.72.08c-.46.08-1.13.21-1.94.39-1.64.35-3.88.91-6.32,1.64s-4.63,1.5-6.19,2.1c-.78.3-1.41.56-1.84.75A2.12,2.12,0,0,0,334.7,306.32Z"/><path class="cls-7" d="M332.7,299.68a3.48,3.48,0,0,0,.91-.06c.58-.07,1.43-.18,2.47-.34,2.07-.32,4.93-.83,8.07-1.51s6-1.43,8-2c1-.29,1.83-.54,2.39-.73a3.75,3.75,0,0,0,.85-.32,3.48,3.48,0,0,0-.89.17l-2.42.6c-2,.52-4.85,1.21-8,1.9s-6,1.24-8,1.63l-2.44.46A4.81,4.81,0,0,0,332.7,299.68Z"/><path class="cls-7" d="M315.79,298.25a2.19,2.19,0,0,0,0,.66,12.16,12.16,0,0,0,.24,1.77,15.94,15.94,0,0,0,6.2,9.67,11.28,11.28,0,0,0,1.5.91c.37.19.58.28.59.25s-.77-.49-1.92-1.4a17.51,17.51,0,0,1-3.83-4.21,18,18,0,0,1-2.27-5.28C315.93,299.18,315.86,298.25,315.79,298.25Z"/><path class="cls-8" d="M313.82,312.78c.06,0-.76-.86-1.69-2.45a14.41,14.41,0,0,1-.41-13.78c.82-1.64,1.59-2.51,1.53-2.55s-.23.18-.56.58a12.08,12.08,0,0,0-1.22,1.84,13.87,13.87,0,0,0,.43,14.06,11.08,11.08,0,0,0,1.33,1.75C313.58,312.61,313.8,312.8,313.82,312.78Z"/><path class="cls-8" d="M300.08,286.13c.05.06,1-.69,2.72-1.55a19,19,0,0,1,3.12-1.23,19.48,19.48,0,0,1,8.13-.62,19.68,19.68,0,0,1,3.27.74c1.82.59,2.87,1.19,2.91,1.11a3.87,3.87,0,0,0-.72-.45,9.25,9.25,0,0,0-.89-.44,11.21,11.21,0,0,0-1.21-.49,17.49,17.49,0,0,0-3.31-.84,20.32,20.32,0,0,0-4.18-.15,19.24,19.24,0,0,0-4.1.79,16.85,16.85,0,0,0-3.15,1.33,12.08,12.08,0,0,0-1.13.67,8.66,8.66,0,0,0-.82.57A3.34,3.34,0,0,0,300.08,286.13Z"/><g class="cls-9"><path d="M340,193.6s-5.14,12.31-4.43,13.33,3.42,1.76,3.42,1.76-4.42,2-4.42,3.71c0,3.47,4.75,24,4.75,24l-1.17-25.13,4.25-3-4.63-2.21Z"/></g><path class="cls-30" d="M316.12,373.58a127.24,127.24,0,0,0,.37,23S316,378.51,316.12,373.58Z"/><path class="cls-30" d="M320.44,326.4S309.59,358.19,308.23,363l5.74,8.2-5.12-8.29Z"/><path class="cls-8" d="M323.31,319.82s-12.65,10.12-20.13-1.26C303.18,318.56,308.28,328.93,323.31,319.82Z"/><path class="cls-8" d="M430,207.83s2.39,12,3,16C433,223.86,430,210.87,430,207.83Z"/><path class="cls-31" d="M428,375.22a186.1,186.1,0,0,1,1,21.25A72.06,72.06,0,0,0,428,375.22Z"/><path class="cls-31" d="M443.31,356s-8.14,13.55-13.07,17.47A190.89,190.89,0,0,0,443.31,356Z"/><path class="cls-4" d="M453.41,266.06s4.93,1.39,1.6,7.34c0,0-11.09,21.88-19.35,30.23,0,0-5.05,7.53-13.24-1.08,0,0,6.65,7.53,12.94.83,0,0,9.92-10.76,19.34-30.17C454.7,273.21,458,268.4,453.41,266.06Z"/><polygon class="cls-6" points="404.94 225.36 404.42 235.42 399.55 235.42 399.55 225.25 404.94 225.36"/><path class="cls-8" d="M220.82,397.76c-.44-6.38-.28-16.27.15-26.11.29-6.44.69-12.86,1.11-18.27.66-8.34,1.37-14.27,1.82-14.18l6.71-.1,6-.1,48.6-.75L304.1,338l12.44-.19h.28l3.05,0s.83,4.89,1.87,12c.29,2,.6,4.16.91,6.44,1.23,9,2.51,19.73,3,28.65a102.18,102.18,0,0,1,.16,10.3c0,.78-.09,1.67-.16,2.66H220.82Z"/><path class="cls-8" d="M247.15,92.29c-8,.17-14.92,12.11-13.72,18.83.58,3.26,2,7-.59,9.42s-8.11,2.19-10.6,4.66c0,0-3.19,3.18-2.84,7.3s-.32,9.6-3.6,11.06l16.28,5.85c1.68-1.7,2.36-4.38,4-6.08-1.93,1.78-3.79,8.14,4.92,8.86l5.43-4.78c14.82,3.82,30.38,8.57,42.23,2.13Z"/><path class="cls-8" d="M322.62,128c-1.07-3.09-2.82-5.94-3.56-9.12-1.59-6.84,1.62-14.63-1.82-20.76-2.45-4.35-7.54-6.42-12.34-7.8s-9.39-2.21-13-5.65c-2.66-2.52-4.2-6-6.85-8.57-3.78-3.61-9.27-4.76-14.49-5s-10.88.38-15.65,2.84-8.69,7-9.45,12.26c-.37,2.59,0,5.29-.78,7.8-.84,2.74-2.95,4.91-4.22,7.49A13.76,13.76,0,0,0,244.18,118l37.59,46.83c7.77,2.77,16.23-7.1,22.09-12.91S325.33,135.84,322.62,128Z"/><path class="cls-14" d="M245,111.92c1.32-10.81,9.29-23.7,20-21.92l33.23,10.52c3.26.54,5,3.15,4.74,6.45l-7.31,80.68c.08,0-.37.88-.29.9s-9,22.52-30.88,14.25c-4.34-1.64-6.31-.12-6.9-5.15h0c-.95-.37,0,0,0-.59.09-6.13.55-18.76.55-18.76h0c.3-6.57.46-9.27.45-9.21S245,166,243.15,147.72C242.25,138.64,243.57,123.93,245,111.92Z"/><path class="cls-8" d="M274.05,128.8a2.33,2.33,0,0,0,2.1,2.47,2.22,2.22,0,0,0,2.51-2,2.34,2.34,0,0,0-2.1-2.48A2.23,2.23,0,0,0,274.05,128.8Z"/><path class="cls-8" d="M250.48,127.38a2.32,2.32,0,0,0,2.09,2.48,2.23,2.23,0,0,0,2.52-2,2.33,2.33,0,0,0-2.1-2.47A2.22,2.22,0,0,0,250.48,127.38Z"/><path class="cls-8" d="M247.17,120.18c.26.42,2.39-1,5.09-.63s4.47,2.16,4.81,1.81c.17-.15-.05-.88-.81-1.72a6.16,6.16,0,0,0-7.91-.94C247.42,119.34,247,120,247.17,120.18Z"/><path class="cls-8" d="M271.89,122.47c.33.38,2.42-1.19,5.32-1.12s5,1.67,5.31,1.3c.16-.17-.16-.85-1.07-1.6a7,7,0,0,0-4.24-1.51,6.81,6.81,0,0,0-4.24,1.37C272.06,121.62,271.73,122.3,271.89,122.47Z"/><path class="cls-8" d="M262.13,139.66c0-.14-1.51-.5-4-1-.64-.1-1.23-.26-1.31-.71a3.2,3.2,0,0,1,.53-1.86q1-2.26,2.17-4.74c3-6.75,5.25-12.33,5-12.44s-2.95,5.25-6,12l-2.09,4.78a3.63,3.63,0,0,0-.48,2.48,1.61,1.61,0,0,0,1,1,3.87,3.87,0,0,0,1.07.21C260.55,139.7,262.11,139.8,262.13,139.66Z"/><path class="cls-7" d="M258.67,169.09a46,46,0,0,0,24.58-5s-6.85,12.89-24.84,10.13Z"/><path class="cls-24" d="M262.83,145.74a4.47,4.47,0,0,1,4.13-1.43,4.08,4.08,0,0,1,2.75,1.68,2.62,2.62,0,0,1,0,3,3,3,0,0,1-3.32.63,9.51,9.51,0,0,1-3.08-2.09,2.74,2.74,0,0,1-.66-.78.81.81,0,0,1,.06-.93Z"/><path class="cls-8" d="M269.37,141.82c-.4,0-.57,2.66-3,4.45s-5.29,1.31-5.33,1.69c-.05.17.61.57,1.83.67a6.76,6.76,0,0,0,4.44-1.26,5.93,5.93,0,0,0,2.34-3.74C269.82,142.5,269.56,141.81,269.37,141.82Z"/><path class="cls-8" d="M272,114c.2.69,2.71.52,5.62,1s5.22,1.46,5.64.87c.19-.28-.18-.94-1.09-1.65a9.92,9.92,0,0,0-8.59-1.47C272.46,113.14,271.89,113.64,272,114Z"/><path class="cls-8" d="M247.94,111.18c.47.6,2.47.12,4.83.24s4.34.63,4.84.07c.22-.28-.07-.86-.91-1.46a7.52,7.52,0,0,0-3.87-1.16,7.4,7.4,0,0,0-3.91.92C248.05,110.32,247.74,110.89,247.94,111.18Z"/><path class="cls-8" d="M333.32,124.58c-1.71-3.16,1.58-6.68-1-9.6-2.39-2.65-8.69-2.75-10.93-5.46-1.75-2.11-1.82-2.67-1.89-4.65-.07-2.48-1.19-12.92-16.41-15l-2.11,9.48c-.95-.45-1.93-.84-2.9-1.19a165.9,165.9,0,0,0-38.43-9.06c-1.59,2.71,0,6.34,2.48,8.25s5.67,2.63,8.62,3.68,6,2.69,7.28,5.57c1.34,3.05.32,6.73,1.51,9.85,2,5.38,9.62,7,11.63,12.37,1.52,4.07-.77,8.48-1.29,12.8a15.89,15.89,0,0,0,5,13.35c2.86,2.63,7.73,7.39,8.07,6.44l40.73-25.5C345.93,130.16,335.65,128.89,333.32,124.58Z"/><path class="cls-32" d="M244,155.48a3.14,3.14,0,0,1-.42.21,9.51,9.51,0,0,1-1.26.48,11.94,11.94,0,0,1-4.91.36,12.31,12.31,0,0,1-6.59-3.08,11,11,0,0,1-2.54-3.54,12.73,12.73,0,0,1-1.05-4.55A11.76,11.76,0,0,1,230.1,137a11.56,11.56,0,0,1,6.31-3.61,11.16,11.16,0,0,1,4.92.09,8.28,8.28,0,0,1,1.28.42,2.74,2.74,0,0,1,.42.19,1.33,1.33,0,0,1-.45-.12,10.51,10.51,0,0,0-1.28-.35,11.34,11.34,0,0,0-13.75,11.72,12.38,12.38,0,0,0,1,4.42A10.56,10.56,0,0,0,231,153.2,12.15,12.15,0,0,0,242.24,156a10.09,10.09,0,0,0,1.27-.41A2.62,2.62,0,0,1,244,155.48Z"/><path class="cls-15" d="M324.52,147.31a2.65,2.65,0,0,1,.1-.28,5,5,0,0,0,.28-.82,7.32,7.32,0,0,0,.14-3.29,8.16,8.16,0,0,0-2.46-4.52,6.82,6.82,0,0,0-2.81-1.56c-1.11-.32-2.36-.42-3.61-.86a4.83,4.83,0,0,1-1.76-1,4.89,4.89,0,0,1-1.17-1.78,10.62,10.62,0,0,1-.53-4.41,24.53,24.53,0,0,0,.07-4.7,6.12,6.12,0,0,0-.77-2.27,5.49,5.49,0,0,0-1.72-1.74,15.58,15.58,0,0,0-4.88-1.75,16.19,16.19,0,0,1-5.19-1.93,6.23,6.23,0,0,1-2-2.11,8.64,8.64,0,0,1-.95-2.75c-.37-1.93-.37-3.9-.73-5.83a11.25,11.25,0,0,0-7-8.34,19.6,19.6,0,0,0-5.36-.9,12.41,12.41,0,0,1-2.65-.5,5.53,5.53,0,0,1-2.3-1.35A11.63,11.63,0,0,1,277,90.09a11.28,11.28,0,0,0-2.34-4,11.84,11.84,0,0,0-7.31-3.75,10.76,10.76,0,0,0-6.66,1.44,12.25,12.25,0,0,0-3.82,3.54,10.94,10.94,0,0,0-1.47,3,8.21,8.21,0,0,0-.24.84,1.33,1.33,0,0,1-.09.28,9.35,9.35,0,0,1,.25-1.14,10.88,10.88,0,0,1,1.43-3,12.19,12.19,0,0,1,3.84-3.64,10.84,10.84,0,0,1,6.79-1.52,12.08,12.08,0,0,1,7.5,3.8,11.4,11.4,0,0,1,2.42,4.1c.56,1.52,1,3.19,2.2,4.38a7.41,7.41,0,0,0,4.74,1.74,19.68,19.68,0,0,1,5.45.91,11.63,11.63,0,0,1,7.26,8.61c.36,2,.36,3.95.72,5.83a9,9,0,0,0,.91,2.65,6,6,0,0,0,1.86,2c3.11,2,7,1.77,10.06,3.7a6,6,0,0,1,1.81,1.85,6.31,6.31,0,0,1,.8,2.4,24.17,24.17,0,0,1-.07,4.75,10.34,10.34,0,0,0,.48,4.3,4.47,4.47,0,0,0,1.1,1.68,4.64,4.64,0,0,0,1.65,1c1.21.43,2.46.54,3.59.87a7.08,7.08,0,0,1,2.89,1.64,8.22,8.22,0,0,1,2.46,4.65,7.31,7.31,0,0,1-.2,3.33,4,4,0,0,1-.33.81A1,1,0,0,1,324.52,147.31Z"/><path class="cls-14" d="M250.28,180.57l10.5-4.59,36.12,1,13.56,5.76,2.74,35.08s-51.37,18.49-51.57,18.49-30.58-30.14-30.58-30.14Z"/><path class="cls-17" d="M238.07,202.48a72.25,72.25,0,0,0,8.57,2.19,80.59,80.59,0,0,0,44.48-2.56L305,197.22s22.94,46.49,23.4,48.1-25.17,95.73-25.17,95.73l-72.55.41-2.05-45.18s-1.38-61.29-1.15-62Z"/><path class="cls-6" d="M258.25,174.55l-10.74,5.07c-8.16,2.62-21,7.25-25.38,11.65-6.65,6.66-16.94,57-16.94,57-3.82-3.05-6.64-4.57-9.28-2.56L182.1,272.59s2.65,22,8.39,24.07,17.16,2.58,17.38,2.58h9.87l-2.51,20.4,16.49-.23h3.08L234,292.36l3.58-43.26,9.9-40.28Z"/><path class="cls-8" d="M220,217.77a5.06,5.06,0,0,1,.07.84c0,.61.07,1.41.11,2.42.09,2.11.17,5.15.23,8.91.13,7.53.14,17.93-.2,29.41s-1,21.87-1.54,29.37c-.29,3.76-.55,6.79-.76,8.88-.11,1-.19,1.81-.26,2.42a4.56,4.56,0,0,1-.12.83,4.85,4.85,0,0,1,0-.84c0-.61.08-1.41.15-2.42.14-2.16.34-5.18.59-8.9.48-7.5,1-17.88,1.38-29.36s.39-21.86.36-29.38c0-3.72-.05-6.75-.06-8.91v-2.43A4.53,4.53,0,0,1,220,217.77Z"/><path class="cls-8" d="M217.85,264.34c-.08,0-.51-1.3-1.41-3.37a26.39,26.39,0,0,0-4.5-7.4c-2.53-2.24-5-4.19-6.82-5.5s-3.05-2-3-2a3.14,3.14,0,0,1,.91.38,24.1,24.1,0,0,1,2.32,1.35,63.2,63.2,0,0,1,7,5.43,23.88,23.88,0,0,1,4.48,7.64c.4,1.06.68,1.93.85,2.54A3.35,3.35,0,0,1,217.85,264.34Z"/><path class="cls-8" d="M219.75,214.51a27,27,0,0,1-1.5-5.15,26.41,26.41,0,0,1-1-5.28,26.21,26.21,0,0,1,1.5,5.15A26.41,26.41,0,0,1,219.75,214.51Z"/><g class="cls-9"><path d="M220.07,219.7c-.1.49-.19,1-.29,1.47-4.83,24.36-5.13,53.43-2,78.07.92.13,4.24-75.78,2.23-79.05Z"/></g><path class="cls-6" d="M338.63,305.07c1,1.64,3.5,7.51,7.93,5.64s9.8-16.34,9.8-16.34V280.64s5.37-3.09,3.74-6.13-3.27-11.44-3.27-11.44-4-41.57-6.3-51.15a34.28,34.28,0,0,0-8.73-15.55L321.59,225.7l.94,81.3Z"/><path class="cls-6" d="M342.91,202.31v-4.59s-11.55-15.05-18.59-16.59A77.5,77.5,0,0,0,310,179.6l-11.44-8.22-.85-.31-1.41,20.72s.5,58.36-.39,69-10.07,49.42-10.07,58.82h45.74l-6.92-26.37s4.7-43.59,5-45S342.91,202.31,342.91,202.31Z"/><path class="cls-8" d="M326.92,226.47a2.25,2.25,0,0,1,.05.61c0,.46,0,1,0,1.75,0,1.52,0,3.73-.05,6.45-.08,5.44-.25,12.95-.57,21.25s-.72,15.81-1.1,21.24c-.19,2.72-.36,4.91-.5,6.43-.07.71-.13,1.28-.17,1.74a2.79,2.79,0,0,1-.1.61,2.71,2.71,0,0,1,0-.62c0-.46,0-1,.07-1.75.08-1.59.19-3.77.33-6.43.28-5.43.62-12.94.94-21.24s.54-15.74.73-21.24c.09-2.67.16-4.85.22-6.44,0-.72.06-1.3.08-1.75A2.45,2.45,0,0,1,326.92,226.47Z"/><path class="cls-8" d="M345.46,201.94c.11.09-3.63,4.64-8.35,10.16s-8.66,9.91-8.77,9.81,3.63-4.65,8.36-10.16S345.35,201.84,345.46,201.94Z"/><path class="cls-8" d="M354.5,296.08a22.85,22.85,0,0,0-.84-6.17,18.74,18.74,0,0,0-3.07-6,16.86,16.86,0,0,0-6.34-5.12,17.84,17.84,0,0,0-8-1.7,17.62,17.62,0,0,0-6.54,1.47,22.39,22.39,0,0,0-5.22,3.38,1.84,1.84,0,0,1,.28-.34c.19-.21.5-.51.9-.87a17,17,0,0,1,3.89-2.52,17.39,17.39,0,0,1,6.67-1.62,18,18,0,0,1,8.23,1.71,17.07,17.07,0,0,1,6.5,5.31,18.19,18.19,0,0,1,3,6.16,16,16,0,0,1,.62,4.58,8.07,8.07,0,0,1-.07,1.26A1.31,1.31,0,0,1,354.5,296.08Z"/><path class="cls-8" d="M308.83,180.91a3.41,3.41,0,0,1,0,.73c0,.53,0,1.22,0,2.09,0,1.87-.07,4.47-.12,7.66-.07,6.47-.06,15.41.3,25.27.14,3.68.31,7.23.5,10.55l.05,1-.53-.85-8.4-13.29.33,0-2.35,6.54c-.26.72-.48,1.3-.65,1.75a2.77,2.77,0,0,1-.26.6,2.9,2.9,0,0,1,.16-.63c.15-.46.33-1,.57-1.78l2.18-6.6.12-.36.21.32c2.28,3.54,5.21,8.08,8.53,13.21l-.48.16c-.2-3.33-.38-6.88-.52-10.56-.37-9.88-.32-18.83-.14-25.3.08-3.24.2-5.86.29-7.66.05-.86.1-1.55.13-2.09A6,6,0,0,1,308.83,180.91Z"/><path class="cls-8" d="M241.31,217a1.5,1.5,0,0,1-.09-.46c0-.35-.09-.79-.15-1.34-.12-1.23-.28-2.92-.49-5l.29.1A77,77,0,0,0,231.93,223l-.57,1,.1-1.17a75.78,75.78,0,0,1,10.74-33.71c1.53-2.68,2.87-4.79,3.8-6.24l1.1-1.65a4.44,4.44,0,0,1,.41-.55,2.84,2.84,0,0,1-.32.62l-1,1.7c-.87,1.48-2.16,3.61-3.64,6.3a84.72,84.72,0,0,0-8.83,22.21A83.06,83.06,0,0,0,232,222.91l-.48-.15a71.92,71.92,0,0,1,9.14-12.69l.25-.29,0,.39c.14,2.1.25,3.79.33,5,0,.55,0,1,.07,1.34A2.79,2.79,0,0,1,241.31,217Z"/><path class="cls-14" d="M173.87,186.06s2.16,6.7,3.94,10.84,4.13,7.69,4.13,12.61v12.62l-18.36,8.08s-8.61-11.63-9.8-17a92.91,92.91,0,0,1-1.57-12.42s-2.17-7.09,2.36-7.69c0,0,1.18-4.13,5.12-2.36s1-1,1-1-.58-2.57,4.34-2c0,0,2,.4,3.94,3.16a23.15,23.15,0,0,1,2.76,4.92s-2.17-7.29-.4-9.85S173.87,186.06,173.87,186.06Z"/><path class="cls-7" d="M170.39,218a3.09,3.09,0,0,1-.66-.9,10.39,10.39,0,0,1-1.11-2.82,11,11,0,0,1-.13-4.51,11.33,11.33,0,0,1,5-7.43l-.11.29c-.73-2.93-1.34-5.47-1.75-7.28a19.49,19.49,0,0,1-.58-2.92,19.63,19.63,0,0,1,.9,2.84c.5,1.79,1.18,4.31,1.94,7.23l0,.18-.16.11a11.13,11.13,0,0,0-4.78,7.08,11.2,11.2,0,0,0,0,4.33A16.9,16.9,0,0,0,170.39,218Z"/><path class="cls-14" d="M153.72,208a6.84,6.84,0,0,0,2.49,3.2,2.44,2.44,0,0,0,1.72.55,1.9,1.9,0,0,0,1.4-1.26,3.79,3.79,0,0,0,.07-2c-.44-2.28-1.92-4.2-3.35-6Z"/><path class="cls-7" d="M156.05,202.48a9.27,9.27,0,0,1,1.64,1.87,12.67,12.67,0,0,1,1.4,2.34,6.38,6.38,0,0,1,.63,3.33,2.47,2.47,0,0,1-.93,1.61,1.87,1.87,0,0,1-1.74.26,5.51,5.51,0,0,1-2.21-1.69,4.26,4.26,0,0,1-1.12-2.23,16.29,16.29,0,0,0,1.41,2,5.5,5.5,0,0,0,2.07,1.46,1.35,1.35,0,0,0,1.27-.21,1.91,1.91,0,0,0,.71-1.27,6.21,6.21,0,0,0-.55-3,14.49,14.49,0,0,0-1.26-2.32A14.08,14.08,0,0,1,156.05,202.48Z"/><path class="cls-14" d="M152.21,200.84c1.31,1.74,3.84,3.08,5.8,4a1.62,1.62,0,0,0,1,.23c.71-.1,1-1,1-1.67a5.88,5.88,0,0,0-1-3.49Z"/><path class="cls-7" d="M159,199.94a3.43,3.43,0,0,1,1,1.81,5.07,5.07,0,0,1,.17,2.29,1.74,1.74,0,0,1-.84,1.23,1.8,1.8,0,0,1-1.57-.22,20.13,20.13,0,0,1-4.22-2.62c-1-.84-1.38-1.56-1.32-1.59s.55.56,1.56,1.29a27.36,27.36,0,0,0,4.22,2.43c.43.22.81.37,1.1.23a1.24,1.24,0,0,0,.58-.86,5,5,0,0,0-.06-2.09C159.35,200.64,158.88,200,159,199.94Z"/><path class="cls-14" d="M154.53,193a11.6,11.6,0,0,0,1.2,4.84,5.05,5.05,0,0,0,1.44,1.86,2.3,2.3,0,0,0,2.24.33,2.37,2.37,0,0,0,1.24-1.55,6.07,6.07,0,0,0,.11-2,24.27,24.27,0,0,0-1.33-6.36Z"/><path class="cls-7" d="M159.43,190.07a9.13,9.13,0,0,1,1,2.82,22,22,0,0,1,.55,3.23,7.61,7.61,0,0,1,0,2A3,3,0,0,1,160,200a2.33,2.33,0,0,1-2.21.27,3.53,3.53,0,0,1-1.59-1.28,9.55,9.55,0,0,1-1.34-3,10.14,10.14,0,0,1-.34-2.18,1.86,1.86,0,0,1,.06-.82c.09,0,.1,1.16.65,2.89a10.29,10.29,0,0,0,1.37,2.83,3,3,0,0,0,1.37,1.08,1.76,1.76,0,0,0,1.69-.2,2.42,2.42,0,0,0,.86-1.59,8.09,8.09,0,0,0,0-1.84,26.16,26.16,0,0,0-.43-3.18C159.71,191.18,159.36,190.09,159.43,190.07Z"/><path class="cls-14" d="M181.21,220l19.13,34.68a74.22,74.22,0,0,1,0,14.6c-2.24,8.3-4.83,14.69-7.72,19.32l-29.05-58.46Z"/><path class="cls-8" d="M198.85,248.24a8.5,8.5,0,0,1,.55,1.57,17.11,17.11,0,0,1,.52,1.88c.16.74.39,1.58.53,2.53s.34,2,.44,3.11.18,2.33.24,3.6a46.42,46.42,0,0,1-2.53,16.24c-.44,1.2-.84,2.34-1.32,3.36s-.92,2-1.36,2.83-.9,1.59-1.28,2.24a17.64,17.64,0,0,1-1.06,1.64,10.22,10.22,0,0,1-1,1.33,9.16,9.16,0,0,1,.82-1.44c.28-.45.62-1,1-1.68s.8-1.4,1.19-2.27.88-1.79,1.29-2.83.84-2.15,1.27-3.34a48.39,48.39,0,0,0,2.5-16.07c0-1.26-.06-2.46-.19-3.56s-.22-2.15-.37-3.1-.31-1.78-.45-2.52-.29-1.38-.42-1.9A12.14,12.14,0,0,1,198.85,248.24Z"/><path class="cls-33" d="M134.27,169.79c.64.42,44.47,33.54,52.38,39.6a1.63,1.63,0,0,1,.49,2h0a1.65,1.65,0,0,1-2.44.65L132,173.72Z"/><polygon class="cls-32" points="131.99 173.72 134.13 175.22 136.87 171.89 134.27 169.79 131.99 173.72"/><path class="cls-8" d="M134.27,169.79a2,2,0,0,1-.13.27c-.11.2-.25.44-.42.76l-1.65,3,0-.12,20.4,14.66,15.31,11.08,8.54,6.2,4.45,3.22,2.26,1.65,1.14.82a5.08,5.08,0,0,0,1.11.72,1.38,1.38,0,0,0,1.7-1.76,1.42,1.42,0,0,0-.42-.6l-.7-.54L184.41,208l-5.54-4.19-10.46-8-17.74-13.5-12-9.17-3.27-2.51-.85-.67a2.87,2.87,0,0,1-.3-.25l.29.19.84.62,3.26,2.41,12,9,17.89,13.42,10.56,8,5.59,4.21,1.42,1.08.72.55a1.75,1.75,0,0,1,.59.85,1.91,1.91,0,0,1-2.38,2.45,5,5,0,0,1-1.26-.8l-1.14-.82-2.26-1.65L176,206l-8.54-6.21-15.26-11.14L131.93,173.8l-.07-.05,0-.08,1.77-2.94c.19-.3.33-.53.44-.72Z"/><path class="cls-33" d="M134.27,169.79a55.68,55.68,0,0,0-5.94-2s-.54-.19-.09.64a7.38,7.38,0,0,0,.69,1.14l3,4.24Z"/><path class="cls-14" d="M160.91,188.72c-.63,2.05-.28,4,.06,6.1a4.06,4.06,0,0,0,.46,1.48,1.76,1.76,0,0,0,1.21.9,1.74,1.74,0,0,0,1.44-.51,4.21,4.21,0,0,0,.89-1.32,14.85,14.85,0,0,0,1.29-4.27Z"/><path class="cls-7" d="M166.26,191.1a6.51,6.51,0,0,1-.37,2.47,12.2,12.2,0,0,1-1,2.54,2.85,2.85,0,0,1-1.23,1.2,1.75,1.75,0,0,1-1.89-.23,2.81,2.81,0,0,1-.91-1.61c-.13-.57-.18-1.08-.26-1.59a15.1,15.1,0,0,1-.2-2.71,4.82,4.82,0,0,1,.54-2.45c.09,0-.21.94-.16,2.45a19.57,19.57,0,0,0,.31,2.64c.2,1,.22,2.19,1,2.85a1.19,1.19,0,0,0,1.32.16,2.38,2.38,0,0,0,1-1,14,14,0,0,0,1.09-2.39C166,192,166.17,191.08,166.26,191.1Z"/><path class="cls-6" d="M285.93,318.67s-2.21,28.23,1.22,36.7c0,0,47.75,2.32,52.18-.9,0,0-3.62-19.26-8.65-38.05Z"/><path class="cls-6" d="M235,318.27s3,32.87,2.12,35.9c0,0,.1,1.41-6.65.3,0,0-14.41-2-17-1.92,0,0-2.62-.7-1.41-5.85,0,0,2.42-24.9,3.43-28.43Z"/><path class="cls-10" d="M311.56,234a1.16,1.16,0,0,1,1.14,1.16,1.15,1.15,0,1,1-1.14-1.16Z"/><polygon class="cls-11" points="303.71 236.19 303.79 228.35 310.09 228.41 310.07 230.26 305.92 230.22 305.91 231.41 310.06 231.45 310.04 233.16 305.89 233.12 305.88 234.37 310.03 234.4 310.02 236.25 303.71 236.19"/><polygon class="cls-12" points="312.71 233.19 310.58 231.02 310.6 228.42 312.04 228.43 315.81 232.61 315.82 231.07 317.95 233.24 317.92 236.33 316.8 236.32 312.72 231.98 312.71 233.19"/><path class="cls-11" d="M319.15,230.4l-3.32,0,0-1.9,7.84.07,0,1.91-2.35,0,0,4.42c0,.85-1,1.51-2.19,1.5Z"/><g class="cls-9"><path d="M210.68,316.33s-2.17,2.82,2.6,3.69,58.89-3.13,58.89-3.13l1.88-1.09.91-2.56,1-5Z"/></g><path class="cls-25" d="M276.8,226.63l-68.13,3.48a3.14,3.14,0,0,0-3,3l-4.52,80.87a3.13,3.13,0,0,0,3.29,3.31l66.11-3.46a3.13,3.13,0,0,0,3-2.88L280.09,230A3.14,3.14,0,0,0,276.8,226.63Z"/><path class="cls-14" d="M278.19,279.59s3.92.22,7.39,6l6.64,4.23s6.77,6.32,1,14.85-13.78,4.11-13.78,4.11-7,3.48-9,2.87-15.26-7.76-17.2-9.41c-.58-.49-4.86-5.4-4.86-5.4s-5.93-1.28-6.61-2.63-.73-4.48,3.27-4.18c0,0-3.89-1.18-4.34-3.14s0-4.52,6.89-3.54,20.11,4.66,21.64,4.28a1,1,0,0,0-.15-1.73c-.49-.23-16.05-6.29-18.56-7-2.7-.74-3.09-6.76,2.49-5.33s23.77,5.81,23.77,5.81Z"/><path class="cls-7" d="M267.93,302.71a23.59,23.59,0,0,1-2.89-.87c-1.76-.58-4.21-1.37-6.93-2.16s-5.21-1.45-7-1.91a22.2,22.2,0,0,1-2.9-.82,3.24,3.24,0,0,1,.81.09c.51.09,1.25.23,2.17.42,1.82.39,4.32,1,7.05,1.8s5.17,1.62,6.91,2.28c.88.32,1.58.6,2.06.81A2.68,2.68,0,0,1,267.93,302.71Z"/><path class="cls-7" d="M270.16,295.48a3.75,3.75,0,0,1-1-.06c-.65-.07-1.59-.2-2.75-.37-2.32-.35-5.52-.9-9-1.66s-6.64-1.55-8.9-2.18c-1.13-.32-2-.59-2.67-.8a4.52,4.52,0,0,1-1-.35,4.5,4.5,0,0,1,1,.19l2.7.65c2.27.56,5.42,1.32,8.91,2.06s6.67,1.36,9,1.78l2.73.51A5.32,5.32,0,0,1,270.16,295.48Z"/><path class="cls-7" d="M289.05,293.93a2.29,2.29,0,0,1,0,.71,13,13,0,0,1-.25,1.93,17.34,17.34,0,0,1-6.94,10.53,13.86,13.86,0,0,1-1.67,1,2.24,2.24,0,0,1-.66.26c0-.07.86-.53,2.15-1.52a18.78,18.78,0,0,0,6.81-10.34C288.89,294.94,289,293.92,289.05,293.93Z"/><path class="cls-8" d="M291.25,309.75c-.07-.06.85-.94,1.88-2.67a15.37,15.37,0,0,0,.47-15c-.93-1.8-1.78-2.74-1.71-2.79a3.12,3.12,0,0,1,.61.64,12,12,0,0,1,1.37,2,14.83,14.83,0,0,1-.48,15.31,14.36,14.36,0,0,1-1.48,1.92A3.29,3.29,0,0,1,291.25,309.75Z"/><path class="cls-8" d="M230.47,186.3a25.79,25.79,0,0,0-7.81,4.58s-1-.38-3.67,5.85a248.89,248.89,0,0,0-9.16,31.09s7.88-30.71,12.23-36C222.06,191.85,226.71,187.8,230.47,186.3Z"/><path class="cls-8" d="M183.5,280.6a38.57,38.57,0,0,0,5,14.41s.5,1.8,5.1,2.51c0,0,5.6.7,7.6,1.1,0,0-7.55-.9-8.35-1.5,0,0-3.4-.61-4.1-2.41C188.75,294.71,185.3,290.16,183.5,280.6Z"/><path class="cls-8" d="M212.53,342.24s1.66-18.7,2.55-21.93C215.08,320.31,212.68,343.29,212.53,342.24Z"/><path class="cls-8" d="M195.8,246.16s1.51-2.7,5.11-.6C200.91,245.56,197.91,244.56,195.8,246.16Z"/><path class="cls-31" d="M183.43,270.16l-1.33,2.43s.72,5.38,1.4,8c0,0-1.12-6.46-1.12-7.89Z"/><path class="cls-7" d="M153.49,211.82a37.36,37.36,0,0,0,4.35,9.61l5.69,8.68L182,266.78l-17.7-37.09S155.59,218.73,153.49,211.82Z"/><path class="cls-7" d="M180,201.61s-3.6-7.9-6-15.11c0,0-.4-2.7-2.4-.9a6.2,6.2,0,0,0-.95,2.6s1.8-5.56,3.15-1.65C173.8,186.55,178,198.56,180,201.61Z"/><path class="cls-14" d="M292.21,290s24.38-.15,32.51-2.05c0,0,.37-1.19,0-5,0,0,7.29-8.75,19.41-3.92,0,0,9.52,4,10,16.78,0,0,1.35,13.86-19.68,14.59,0,0-41.64,3.46-52.48-.73C282,309.63,292,298,292.21,290Z"/><path class="cls-7" d="M325.56,288.44s-1.07-.74-.77-.61,2,1.13,2.48,1.44a12.26,12.26,0,0,1,3.35,3.19,12.48,12.48,0,0,1,2,4.22,8.51,8.51,0,0,1,.24,1.4,1.63,1.63,0,0,1,0,.52c-.06,0-.14-.73-.47-1.86a13.53,13.53,0,0,0-5.21-7.28C326.19,288.8,325.53,288.49,325.56,288.44Z"/><path class="cls-19" d="M104.87,397.76l.47,3.32c-.18-1.12-.35-2.23-.52-3.32Z"/><path class="cls-34" d="M236.7,482.33a26.21,26.21,0,1,1-26.21,26.21A26.19,26.19,0,0,1,236.7,482.33Z"/><polygon class="cls-35" points="57.72 534.75 57.72 355.66 201.77 355.66 201.77 397.88 106.84 397.88 106.84 425 201.77 425 201.77 464.14 106.84 464.14 106.84 492.53 201.77 492.53 201.77 534.75 57.72 534.75"/><polygon class="cls-36" points="262.66 464.14 213.54 414.99 213.54 355.66 246.32 355.66 333.53 450.32 333.53 414.99 382.65 464.14 382.65 534.75 356.92 534.75 262.66 436.5 262.66 464.14"/><path class="cls-35" d="M409.36,399.14H333.53V355.66H512.74v43.48H459V500c0,19.37-22.55,34.71-49.64,34.71Z"/><path class="cls-7" d="M325.43,310.88a75.75,75.75,0,0,0,19-2.27"/></g></svg>