<svg id="Layer_2" data-name="Layer 2" xmlns="http://www.w3.org/2000/svg" xmlns:xlink="http://www.w3.org/1999/xlink" viewBox="0 0 595.28 595.28"><defs><style>.cls-1,.cls-3,.cls-8{fill:none;}.cls-2{clip-path:url(#clip-path);}.cls-3{opacity:0.1;font-size:93.52px;stroke:#fff;font-family:Poppins-Bold, Poppins;font-weight:700;}.cls-3,.cls-8{stroke-miterlimit:10;}.cls-4{fill:#2e2e2e;}.cls-5{fill:#14487a;}.cls-6{fill:#25b3b4;}.cls-7{fill:#a97d33;}.cls-8{stroke:#2e2e2e;}.cls-9{fill:#6f6f70;}</style><clipPath id="clip-path"><rect class="cls-1" x="-878.13" y="-8.13" width="850.99" height="1208.54"/></clipPath></defs><g class="cls-2"><text class="cls-3" transform="translate(-98.8 650)">#ENTGEN17</text><text class="cls-3" transform="translate(-333.95 565.26)">#ENTGEN17</text></g><rect class="cls-4" x="382.1" y="234.92" width="50.1" height="50.1" transform="translate(667.12 -147.18) rotate(90)"/><rect class="cls-5" x="382.1" y="285.02" width="50.1" height="50.1" transform="translate(717.22 -97.08) rotate(90)"/><rect class="cls-6" x="382.1" y="335.12" width="50.1" height="50.1" transform="translate(767.31 -46.99) rotate(90)"/><rect class="cls-7" x="382.1" y="385.21" width="50.1" height="50.1" transform="translate(817.41 3.11) rotate(90)"/><path class="cls-8" d="M185.41,95.23s83.19-83.18,187.18,0"/><path class="cls-4" d="M188.35,97.36a5.44,5.44,0,1,1-5.44-5.43A5.45,5.45,0,0,1,188.35,97.36Z"/><circle class="cls-4" cx="372.59" cy="97.36" r="5.44"/><rect class="cls-4" x="274.4" y="53.66" width="9.2" height="9.2"/><path class="cls-4" d="M247.79,236.58l-30.09,6.15a.41.41,0,0,1-.49-.38l-.57-11.66a.41.41,0,0,1,.33-.43L242.51,225a.41.41,0,0,1,.46.24l4.82,11.3Z"/><path class="cls-4" d="M248.64,182.31,216.5,147.5a.74.74,0,0,0-1.26.65l7.25,35.42a3.62,3.62,0,1,1-1.88.36l-7.26-35.51a.73.73,0,0,0-1.4-.12l-17.67,45.46a.73.73,0,0,0,.07.67L215.56,226a.74.74,0,0,0,.76.31l25.21-5.16a.72.72,0,0,0,.58-.59l6.71-37.66A.72.72,0,0,0,248.64,182.31Z"/><rect class="cls-6" x="232.41" y="237.66" width="31.11" height="154.84" transform="translate(-58.11 56.08) rotate(-11.56)"/><rect class="cls-7" x="264.25" y="193.41" width="31.11" height="154.84" transform="translate(-7.12 7.56) rotate(-1.53)"/><path class="cls-8" d="M293.31,193.5l-30.7.82a.42.42,0,0,1-.42-.46l1.47-11.59a.43.43,0,0,1,.4-.36l26.06-.7a.43.43,0,0,1,.41.32l2.78,12Z"/><path class="cls-8" d="M303.6,140.21,278,100.33a.73.73,0,0,0-1.35.42l1,36.14a3.63,3.63,0,1,1-1.9,0l-1-36.23a.73.73,0,0,0-1.36-.36L248.08,142a.71.71,0,0,0-.05.68l15.38,34.82a.72.72,0,0,0,.69.43l25.73-.68a.75.75,0,0,0,.67-.48l13.17-35.93A.73.73,0,0,0,303.6,140.21Z"/><polygon class="cls-4" points="346.21 234.6 315.94 227.1 319.05 214.41 349.07 222.21 346.21 234.6 346.21 234.6"/><rect class="cls-6" x="297.04" y="228.13" width="31.11" height="154.84" transform="translate(82.7 -66.24) rotate(13.92)"/><polygon class="cls-8" points="348.84 217.46 354.29 193.77 345.78 164.48 326.73 186.99 320.93 210.51 348.84 217.46"/><line class="cls-8" x1="334.76" y1="177.37" x2="350.55" y2="180.9"/><path class="cls-4" d="M208.25,335.12H347a2.44,2.44,0,0,1,2.44,2.44v185.5a18.56,18.56,0,0,1-18.56,18.56H223.73a17.89,17.89,0,0,1-17.89-17.89V337.52a2.41,2.41,0,0,1,2.41-2.41Z"/><rect class="cls-9" x="205.84" y="357.35" width="143.62" height="19.18"/><rect class="cls-9" x="205.84" y="389.28" width="143.62" height="19.18"/></svg>