<?xml version="1.0" encoding="utf-8"?>
<!-- Generator: Adobe Illustrator 16.0.0, SVG Export Plug-In . SVG Version: 6.00 Build 0)  -->
<!DOCTYPE svg PUBLIC "-//W3C//DTD SVG 1.1//EN" "http://www.w3.org/Graphics/SVG/1.1/DTD/svg11.dtd">
<svg version="1.1" id="Layer_1" xmlns="http://www.w3.org/2000/svg" xmlns:xlink="http://www.w3.org/1999/xlink" x="0px" y="0px"
	 width="1080px" height="500px" viewBox="0 0 1080 500" enable-background="new 0 0 1080 500" xml:space="preserve">
<g>
	<path fill-rule="evenodd" clip-rule="evenodd" fill="#A97D34" d="M433.061,327.679c31.76,0,57.513,25.74,57.513,57.507
		c0,31.756-25.752,57.507-57.513,57.507s-57.513-25.751-57.513-57.507C375.548,353.419,401.301,327.679,433.061,327.679z"/>
	<polygon fill-rule="evenodd" clip-rule="evenodd" fill="#FFFFFF" points="40.173,442.735 40.173,49.611 356.368,49.611 
		356.368,142.271 148.01,142.271 148.01,201.807 356.368,201.807 356.368,287.725 148.01,287.725 148.01,350.064 356.368,350.064 
		356.368,442.735 	"/>
	<polygon fill-rule="evenodd" clip-rule="evenodd" fill="#25B3B5" points="490.068,287.725 382.233,179.835 382.233,49.611 
		454.189,49.611 645.634,257.409 645.634,179.835 753.463,287.725 753.463,442.735 696.965,442.735 490.068,227.076 	"/>
	<path fill-rule="evenodd" clip-rule="evenodd" fill="#FFFFFF" d="M812.109,145.08H645.634V49.611h393.372v95.469H921.067v221.455
		c0,42.523-49.515,76.2-108.958,76.2V145.08z"/>
</g>
</svg>
