<?xml version="1.0" encoding="utf-8"?>
<!-- Generator: Adobe Illustrator 16.0.0, SVG Export Plug-In . SVG Version: 6.00 Build 0)  -->
<!DOCTYPE svg PUBLIC "-//W3C//DTD SVG 1.1//EN" "http://www.w3.org/Graphics/SVG/1.1/DTD/svg11.dtd">
<svg version="1.1" id="Layer_1" xmlns="http://www.w3.org/2000/svg" xmlns:xlink="http://www.w3.org/1999/xlink" x="0px" y="0px"
	 width="1080px" height="500px" viewBox="0 0 1080 500" enable-background="new 0 0 1080 500" xml:space="preserve">
<g>
	<path fill-rule="evenodd" clip-rule="evenodd" fill="#A97D34" d="M437.478,326.108c31.554,0,57.141,25.575,57.141,57.139
		c0,31.55-25.587,57.137-57.141,57.137c-31.556,0-57.143-25.587-57.143-57.137C380.335,351.684,405.921,326.108,437.478,326.108z"/>
	<polygon fill-rule="evenodd" clip-rule="evenodd" fill="#14477A" points="47.12,440.428 47.12,49.832 361.276,49.832 
		361.276,141.9 154.261,141.9 154.261,201.048 361.276,201.048 361.276,286.412 154.261,286.412 154.261,348.35 361.276,348.35 
		361.276,440.428 	"/>
	<polygon fill-rule="evenodd" clip-rule="evenodd" fill="#25B3B5" points="494.118,286.412 386.976,179.217 386.976,49.832 
		458.469,49.832 648.679,256.297 648.679,179.217 755.815,286.412 755.815,440.428 699.682,440.428 494.118,226.154 	"/>
	<path fill-rule="evenodd" clip-rule="evenodd" fill="#14477A" d="M814.083,144.686H648.679V49.832h390.84v94.854H922.34v220.03
		c0,42.249-49.196,75.712-108.257,75.712V144.686z"/>
</g>
</svg>
