<svg xmlns="http://www.w3.org/2000/svg" xmlns:xlink="http://www.w3.org/1999/xlink" viewBox="0 0 595.28 595.28"><defs><style>.cls-1,.cls-4{fill:none;}.cls-2{isolation:isolate;}.cls-3{clip-path:url(#clip-path);}.cls-4{opacity:0.1;font-size:93.52px;stroke:#fff;stroke-miterlimit:10;font-family:Poppins-Bold, Poppins;font-weight:700;}.cls-5{fill:#6fb2d4;}.cls-13,.cls-15,.cls-6,.cls-7{fill:#202021;}.cls-13,.cls-15,.cls-7,.cls-9{mix-blend-mode:multiply;}.cls-7{opacity:0.65;}.cls-8{fill:#4e5154;}.cls-9{fill:#a5a5a7;}.cls-10{fill:#6f6f70;}.cls-11{fill:#373636;}.cls-12{fill:#3f4245;}.cls-13{opacity:0.55;}.cls-14{fill:#3f3f40;}.cls-15{opacity:0.5;}.cls-16{fill:#fff;}.cls-17{fill:#2e2e2e;}.cls-18{fill:#28a79f;}.cls-19{fill:#f8991d;}</style><clipPath id="clip-path"><rect class="cls-1" x="-878.13" y="-8.13" width="850.99" height="1208.54"/></clipPath></defs><g class="cls-2"><g id="Layer_2" data-name="Layer 2"><g class="cls-3"><text class="cls-4" transform="translate(-98.8 650)">#ENTGEN17</text><text class="cls-4" transform="translate(-333.95 565.26)">#ENTGEN17</text></g><path class="cls-5" d="M210.68,297.26H154.37V269.65a10.25,10.25,0,0,1,10.25-10.25h35.8a10.25,10.25,0,0,1,10.26,10.25Z"/><rect class="cls-6" x="318.92" y="224.93" width="57.28" height="55.34"/><polygon class="cls-7" points="376.2 235.75 318.92 277.84 318.92 224.93 376.2 224.93 376.2 235.75"/><path class="cls-8" d="M423.77,533.16H159.71a48.06,48.06,0,0,1-48.06-48V325.9a48.06,48.06,0,0,1,48.06-48.06H423.77a48.06,48.06,0,0,1,48.05,48.06V485.11A48.06,48.06,0,0,1,423.77,533.16Z"/><path class="cls-9" d="M219.14,277.84H159.71a48.06,48.06,0,0,0-48.06,48.06V485.11a48.06,48.06,0,0,0,48.06,48h59.43Z"/><path class="cls-10" d="M195.14,277.84H159.71a48.06,48.06,0,0,0-48.06,48.06V485.11a48.06,48.06,0,0,0,48.06,48h35.43Z"/><polygon class="cls-11" points="291.74 271.11 219.41 343.29 219.41 403.17 320.15 301.22 291.74 271.11"/><path class="cls-12" d="M434,372H261.16l22.64-96a30.34,30.34,0,0,1,29.53-23.37h68.46A30.35,30.35,0,0,1,411.32,276Z"/><polygon class="cls-13" points="351.73 532.8 418.75 465.61 291.74 330.99 219.41 403.17 219.41 532.8 351.73 532.8"/><rect class="cls-14" x="295.62" y="111.35" width="103.87" height="124.4" rx="15.05"/><path class="cls-12" d="M384.45,111.35H310.67a15.05,15.05,0,0,0-15.05,15.05v13.22l11.77-11.77,81.43,50.49L331.4,235.75h53.05A15.05,15.05,0,0,0,399.5,220.7V126.4A15.05,15.05,0,0,0,384.45,111.35Z"/><path class="cls-14" d="M307.39,127.85l-11.77,11.77V220.7a15.05,15.05,0,0,0,15.05,15.05H331.4l57.42-57.41Z"/><path class="cls-15" d="M307.39,127.85l-11.77,11.77V220.7a15.05,15.05,0,0,0,15.05,15.05H331.4l57.42-57.41Z"/><rect class="cls-16" x="307.39" y="127.85" width="81.42" height="50.48"/><circle class="cls-17" cx="347.56" cy="405.5" r="93.2" transform="translate(-128 162.45) rotate(-22.33)"/><path class="cls-18" d="M347.56,312.3a93.2,93.2,0,1,0,93.2,93.2A93.2,93.2,0,0,0,347.56,312.3Zm0,159.7a66.5,66.5,0,1,1,66.5-66.5A66.5,66.5,0,0,1,347.56,472Z"/><path class="cls-16" d="M337.25,375.89A14.93,14.93,0,1,1,322.32,361,14.94,14.94,0,0,1,337.25,375.89Z"/><polygon class="cls-19" points="463.42 90.93 472.52 109.38 492.88 112.34 478.15 126.69 481.63 146.97 463.42 137.39 445.21 146.97 448.69 126.69 433.96 112.34 454.31 109.38 463.42 90.93"/><polygon class="cls-19" points="238.35 140.78 244.29 152.81 257.56 154.74 247.95 164.1 250.22 177.32 238.35 171.08 226.48 177.32 228.75 164.1 219.14 154.74 232.41 152.81 238.35 140.78"/><polygon class="cls-19" points="307.39 38.22 313.33 50.25 326.6 52.18 317 61.54 319.26 74.76 307.39 68.52 295.52 74.76 297.79 61.54 288.18 52.18 301.45 50.25 307.39 38.22"/></g></g></svg>