<svg xmlns="http://www.w3.org/2000/svg" xmlns:xlink="http://www.w3.org/1999/xlink" viewBox="0 0 283.46 425.2"><defs><style>.cls-1,.cls-16{fill:none;}.cls-2{fill:#f9b89a;}.cls-3{fill:#13487a;}.cls-4{fill:#ec996f;}.cls-5{fill:#263238;}.cls-6{opacity:0.3;}.cls-7{fill:#a87d32;}.cls-7,.cls-8,.cls-9{fill-rule:evenodd;}.cls-8{fill:#fff;}.cls-9{fill:#22b2b3;}.cls-10{fill:#dfdfdf;}.cls-11{fill:#fbbd9d;}.cls-12{fill:#455b64;}.cls-13{fill:#182226;}.cls-14{clip-path:url(#clip-path);}.cls-15{clip-path:url(#clip-path-2);}.cls-16{opacity:0.1;font-size:93.52px;stroke:#fff;stroke-miterlimit:10;font-family:Poppins-Bold, Poppins;font-weight:700;}</style><clipPath id="clip-path"><rect class="cls-1" x="-1026.14" y="-85.04" width="843.09" height="1193.96"/></clipPath><clipPath id="clip-path-2"><rect class="cls-1" x="-1034.03" y="-93.17" width="850.99" height="1208.54"/></clipPath></defs><g id="Layer_1" data-name="Layer 1"><path class="cls-2" d="M212.64,180.32,214.8,251a23,23,0,0,1-10.29,19.16h0a23,23,0,0,1-28.65-2.61l-23.1-22.29,2.49-52.08,30.86,31.73,1.56-45.11Z"/><polygon class="cls-3" points="120.4 153.52 151.08 167.54 183.55 215.44 156.46 250.9 135.72 241.8 120.4 153.52"/><path class="cls-4" d="M186.49,224.48c-.11,0-.2,5.28-.2,11.79s.09,11.8.2,11.8.2-5.28.2-11.8S186.6,224.48,186.49,224.48Z"/><polygon class="cls-3" points="139.82 163.5 123.86 155.29 114.69 144.88 71.94 142.07 60.16 151.06 30.9 159.79 36.95 239.79 31.05 329.31 151.08 329.04 151.08 242.04 139.82 163.5"/><path class="cls-5" d="M151.24,213.08c-.11,0-.23,23.09-.28,51.56s0,51.56.12,51.56.24-23.08.28-51.56S151.35,213.08,151.24,213.08Z"/><path class="cls-5" d="M90.08,224.49a2.59,2.59,0,0,0,.61,0l1.73-.06,6.4-.3H99V224c-.1-5-.24-11.84-.39-19.34-.2-7.74-.39-14.74-.52-19.86-.09-2.51-.15-4.55-.2-6,0-.69-.06-1.23-.08-1.64a3.54,3.54,0,0,0-.05-.57,2.06,2.06,0,0,0,0,.57v1.64c0,1.46,0,3.51.07,6,.11,5.12.25,12.12.41,19.86.19,7.49.37,14.3.5,19.34l.14-.15-6.38.43-1.74.13A4,4,0,0,0,90.08,224.49Z"/><path class="cls-5" d="M92.46,187.59a1,1,0,0,0-.61.1,2.57,2.57,0,0,0-1.28,1.13,2.87,2.87,0,0,0-.23,2.53,2.31,2.31,0,0,0,1.07,1.14,3.06,3.06,0,0,0,3.19-.26,2.31,2.31,0,0,0,.86-1.3,2.86,2.86,0,0,0-.63-2.46,2.67,2.67,0,0,0-1.45-.91,1.23,1.23,0,0,0-.62,0c0,.05.22,0,.58.16a2.57,2.57,0,0,1,1.27.93,2.65,2.65,0,0,1,.49,2.19,2.46,2.46,0,0,1-4.42.36,2.62,2.62,0,0,1,.13-2.24,2.71,2.71,0,0,1,1.1-1.13C92.25,187.65,92.47,187.63,92.46,187.59Z"/><path class="cls-5" d="M92.55,203a1.16,1.16,0,0,0-.61.1,2.66,2.66,0,0,0-1.29,1.14,2.9,2.9,0,0,0-.22,2.53,2.36,2.36,0,0,0,1.07,1.14,3.1,3.1,0,0,0,1.63.31,3.14,3.14,0,0,0,1.56-.57,2.35,2.35,0,0,0,.86-1.3,2.85,2.85,0,0,0-.63-2.46,2.62,2.62,0,0,0-1.44-.91,1.13,1.13,0,0,0-.63,0s.22,0,.58.15a2.74,2.74,0,0,1,1.76,3.12,2.45,2.45,0,0,1-4.41.36,2.6,2.6,0,0,1,.12-2.23,2.74,2.74,0,0,1,1.1-1.14C92.34,203.1,92.56,203.07,92.55,203Z"/><g class="cls-6"><path d="M132.53,228.3c-10.83,14.76-19.31,31.25-31.39,45s-29,24.9-47.31,24c-5.84-.29-16.11-2.25-20.26-6.35l1.53-15.68a199,199,0,0,0,80.95-43.06c4.06-3.59,8.76-7.6,14.13-6.92Z"/></g><path class="cls-7" d="M129,197.05a1.24,1.24,0,1,1-1.24,1.23A1.23,1.23,0,0,1,129,197.05Z"/><polygon class="cls-8" points="120.59 199.52 120.59 191.08 127.38 191.08 127.38 193.07 122.9 193.07 122.9 194.35 127.38 194.35 127.38 196.19 122.9 196.19 122.9 197.53 127.38 197.53 127.38 199.52 120.59 199.52"/><polygon class="cls-9" points="130.25 196.19 127.93 193.88 127.93 191.08 129.48 191.08 133.59 195.54 133.59 193.88 135.9 196.19 135.9 199.52 134.69 199.52 130.25 194.89 130.25 196.19"/><path class="cls-8" d="M137.16,193.13h-3.57v-2H142v2H139.5v4.75c0,.92-1.06,1.64-2.34,1.64Z"/><path class="cls-10" d="M114.67,88.38c0,7.13,5.41,12.91,12.06,12.91s12.06-5.78,12.06-12.91-5.4-12.91-12.06-12.91S114.67,81.25,114.67,88.38Z"/><path class="cls-5" d="M125.78,75.47a13.05,13.05,0,0,1-1.33.68,10.78,10.78,0,0,0-3.17,2.43,12.05,12.05,0,0,0-2.61,5.25,13.76,13.76,0,0,0,0,7.18,14,14,0,0,0,3.61,6.2,11.13,11.13,0,0,0,5.06,2.93,8,8,0,0,0,4,.07c.92-.24,1.39-.51,1.41-.46s-.1.09-.32.22a4.54,4.54,0,0,1-1,.45,7.69,7.69,0,0,1-4.11.11,11.14,11.14,0,0,1-5.33-3,14.12,14.12,0,0,1-3.78-13.88A12.22,12.22,0,0,1,121,78.31,10.19,10.19,0,0,1,124.35,76a7.35,7.35,0,0,1,1.05-.39A1.61,1.61,0,0,1,125.78,75.47Z"/><path class="cls-5" d="M116.27,95.08c-.07,0-.18-.24-.13-.65A2.21,2.21,0,0,1,116.9,93a2.19,2.19,0,0,1,1.52-.53c.41,0,.64.17.62.24s-1,0-1.77.72S116.43,95.08,116.27,95.08Z"/><path class="cls-5" d="M116.78,91.11c-.06-.15.3-.42.83-.43s.92.22.86.37-.41.19-.84.2S116.83,91.26,116.78,91.11Z"/><path class="cls-5" d="M116.78,80.44c-.08-.14.64-.51,1.49-.17s1.13,1.09,1,1.14-.53-.37-1.18-.61S116.82,80.6,116.78,80.44Z"/><path class="cls-11" d="M95.19,175.19h0a22.06,22.06,0,0,0,20.28-23.08c-.42-8.35-.85-15.89-.85-15.89s17.91-2.79,18.13-20.7-2.88-59-2.88-59h0a62.26,62.26,0,0,0-62.55,7.86l-2.66,2,6.79,88.51A22.05,22.05,0,0,0,95.19,175.19Z"/><path class="cls-4" d="M114.65,136a41.68,41.68,0,0,1-23.36-6.64s5.53,12.89,23.4,11.28Z"/><path class="cls-5" d="M101.31,104.51c.45,0,.46,3,3,5.08s5.74,1.79,5.76,2.21c0,.19-.7.58-2,.62a7.47,7.47,0,0,1-4.81-1.68,6.45,6.45,0,0,1-2.33-4.26C100.77,105.23,101.1,104.49,101.31,104.51Z"/><path class="cls-5" d="M100.13,71.4c-.27.75-3,.4-6.25.79s-5.84,1.26-6.26.59c-.19-.32.26-1,1.31-1.75a11,11,0,0,1,9.54-1C99.66,70.46,100.25,71.05,100.13,71.4Z"/><path class="cls-5" d="M126.9,77.57c-.49.68-2.71.25-5.3.47s-4.75.89-5.32.29c-.25-.29,0-1,.94-1.63a8.61,8.61,0,0,1,8.55-.62C126.75,76.63,127.11,77.25,126.9,77.57Z"/><path class="cls-11" d="M66.87,84.94c-.31-.13-12.31-3.64-11.92,8.61s12.61,9.32,12.62,9S66.87,84.94,66.87,84.94Z"/><path class="cls-4" d="M63.68,98c-.06,0-.21.16-.56.33a2.1,2.1,0,0,1-1.6.09C60.21,98,59.06,96,58.93,93.76a7,7,0,0,1,.5-3.08A2.43,2.43,0,0,1,61,89a1.09,1.09,0,0,1,1.28.54c.17.34.1.58.17.6s.26-.21.14-.71a1.34,1.34,0,0,0-.51-.75,1.63,1.63,0,0,0-1.19-.28,3,3,0,0,0-2.16,2,7.15,7.15,0,0,0-.63,3.44c.15,2.46,1.49,4.73,3.28,5.19a2.32,2.32,0,0,0,1.94-.39C63.67,98.3,63.72,98,63.68,98Z"/><path class="cls-5" d="M136.73,41a18.94,18.94,0,0,0-29.42-5.65A18.9,18.9,0,0,0,93.12,25.28c-.37-.05-.75-.09-1.12-.11a16.16,16.16,0,0,0-16.58,13l-.88,4.25s-15.14,5.15-18.64,8A13.52,13.52,0,0,0,60.72,74c-3.84,6.92-.24,16.86,7.15,19.72L69.66,93a25.49,25.49,0,0,0,3.7-28.12c.23,0,.43,0,.65,0a14.3,14.3,0,0,0,18.64-4.26,15.87,15.87,0,0,0,17.06.72,6.64,6.64,0,0,1,2.57-1.17,6.1,6.1,0,0,1,3.21,1,15.07,15.07,0,0,0,8.67,1.75,8.35,8.35,0,0,0,6.51-4.66l.2,0a9.64,9.64,0,0,0,7.18-6.95A14.36,14.36,0,0,0,136.73,41Z"/><path class="cls-10" d="M57.81,84.38S50.28,48.15,71.19,42.47h3.35s-15,11.63-9.88,40.8Z"/><path class="cls-10" d="M75.75,95.08c0,7.13-5.4,12.91-12.06,12.91s-12.06-5.78-12.06-12.91S57,82.17,63.69,82.17,75.75,88,75.75,95.08Z"/><path class="cls-5" d="M64.65,82.17s.13,0,.38.08a7.8,7.8,0,0,1,1,.39A10,10,0,0,1,69.44,85a12.11,12.11,0,0,1,2.83,5.4,13.93,13.93,0,0,1,0,7.45,14.09,14.09,0,0,1-3.78,6.43,11.21,11.21,0,0,1-5.34,3,7.8,7.8,0,0,1-4.11-.11,5.31,5.31,0,0,1-1-.45c-.21-.13-.33-.21-.32-.23s.49.23,1.42.47a8,8,0,0,0,4-.08,11,11,0,0,0,5.06-2.93,13.9,13.9,0,0,0,3.63-13.37,12.16,12.16,0,0,0-2.62-5.26A11.07,11.07,0,0,0,66,82.84,13.22,13.22,0,0,1,64.65,82.17Z"/><path class="cls-5" d="M74.15,101.77c-.15,0-.2-1-1-1.63s-1.76-.57-1.77-.73.2-.21.62-.24a2.27,2.27,0,0,1,1.52.54,2.19,2.19,0,0,1,.76,1.41C74.33,101.53,74.22,101.78,74.15,101.77Z"/><path class="cls-5" d="M73.65,97.8c-.05.15-.43.16-.86.15s-.8,0-.84-.2.33-.39.86-.38S73.7,97.66,73.65,97.8Z"/><path class="cls-5" d="M73.65,87.14c-.05.15-.65.09-1.29.36s-1,.68-1.19.6.13-.81,1-1.14S73.72,87,73.65,87.14Z"/><path class="cls-5" d="M87.62,29c0,.09-1.49.06-3.84.18a19.31,19.31,0,0,0-4.06.62,10.5,10.5,0,0,0-4.33,2.35,6.79,6.79,0,0,0-2.23,4.25,8.48,8.48,0,0,0,.62,4c.89,2.17,1.86,3.31,1.76,3.38a3.24,3.24,0,0,1-.69-.78,12.4,12.4,0,0,1-1.44-2.44,8.59,8.59,0,0,1-.78-4.18A7.18,7.18,0,0,1,75,31.74a10.5,10.5,0,0,1,4.58-2.43,17.83,17.83,0,0,1,4.19-.53c1.19,0,2.15,0,2.81.09A3.6,3.6,0,0,1,87.62,29Z"/><path class="cls-5" d="M72.64,28.35c.08.06-.47.81-1,2.19a10.84,10.84,0,0,0-.53,5.61,10.7,10.7,0,0,0,2.46,5.07c1,1.12,1.75,1.63,1.69,1.71a5.33,5.33,0,0,1-2-1.43,10,10,0,0,1-2-11.12A5.32,5.32,0,0,1,72.64,28.35Z"/><path class="cls-12" d="M125.67,43.5a1.69,1.69,0,0,1-.08.43,8.24,8.24,0,0,1-.39,1.17,10.69,10.69,0,0,1-2.65,3.72,10.47,10.47,0,0,1-6.23,2.77,11.2,11.2,0,0,1-8.06-2.52l.42,0a12.95,12.95,0,0,1-10.56,5.51,12.72,12.72,0,0,1-10.78-6.31,8,8,0,0,1-.61-1.28,1.46,1.46,0,0,1-.15-.47s.3.61,1,1.63a13.05,13.05,0,0,0,3.53,3.65A12.16,12.16,0,0,0,98.12,54a12.6,12.6,0,0,0,8.35-3.32,11.55,11.55,0,0,0,1.74-2l.19-.25.23.2a10.74,10.74,0,0,0,7.65,2.44,10.24,10.24,0,0,0,6-2.55A11.13,11.13,0,0,0,125,45C125.47,44.06,125.62,43.49,125.67,43.5Z"/><path class="cls-12" d="M126.88,56.09a4.32,4.32,0,0,1-1.51,1.45,9,9,0,0,1-9.71.26,4.21,4.21,0,0,1-1.59-1.37c.07-.07.67.45,1.79,1a9.63,9.63,0,0,0,9.29-.25C126.24,56.57,126.81,56,126.88,56.09Z"/><path class="cls-5" d="M126.72,85.75c-.32.34-2.26-1.1-5-1.09s-4.78,1.38-5.07,1c-.15-.15.17-.76,1.05-1.4a7.1,7.1,0,0,1,4.07-1.25,6.74,6.74,0,0,1,4,1.29C126.59,85,126.88,85.61,126.72,85.75Z"/><path class="cls-5" d="M97.13,85.59a2.56,2.56,0,0,1-2.47,2.59A2.46,2.46,0,0,1,92,85.87a2.56,2.56,0,0,1,2.46-2.59A2.45,2.45,0,0,1,97.13,85.59Z"/><path class="cls-5" d="M99.61,82.58c-.31.33-2.25-1.11-5-1.1s-4.78,1.39-5.08,1c-.15-.15.18-.75,1.06-1.39a7.06,7.06,0,0,1,4.06-1.26,6.85,6.85,0,0,1,4,1.29C99.48,81.82,99.77,82.43,99.61,82.58Z"/><path class="cls-5" d="M109.62,103c0-.16,1.7-.46,4.48-.81.71-.07,1.37-.21,1.49-.69a3.56,3.56,0,0,0-.47-2.09q-1-2.55-2.08-5.36c-2.9-7.64-5-13.91-4.67-14s2.9,6,5.79,13.62c.69,1.88,1.36,3.68,2,5.39a4,4,0,0,1,.36,2.76,1.76,1.76,0,0,1-1.15,1,5.09,5.09,0,0,1-1.2.16C111.37,103.17,109.63,103.18,109.62,103Z"/><polygon class="cls-3" points="115.11 145.29 98.71 168.78 97.23 174.93 94.57 168.78 69.18 144.18 69.18 167.78 88.14 179.18 98.71 180.32 114.69 174.32 119.29 164.74 115.11 145.29"/><path class="cls-5" d="M99.37,168.79s.43,0,1.2.17a7.55,7.55,0,0,1,3,1.43c2.3,1.7,4.68,5.14,6.38,9.47l.15.39.2-.36c.91-1.62,1.89-3.37,2.91-5.16,3-5.34,5.63-10.16,7.61-13.71.93-1.73,1.7-3.14,2.26-4.17l.6-1.15a2.93,2.93,0,0,0,.19-.41s-.1.12-.26.37l-.66,1.1-2.38,4.12-7.72,13.65L110,179.7l.35,0c-1.75-4.38-4.19-7.83-6.59-9.53a7.41,7.41,0,0,0-3.11-1.36,6.08,6.08,0,0,0-.91-.07Z"/><path class="cls-5" d="M61.83,151.09a2,2,0,0,0,.27.47l.86,1.29c.76,1.11,1.88,2.71,3.31,4.65a176,176,0,0,0,12,14.46c3.26,3.52,6.48,6.68,9.28,9.28l.19.19.09-.25A57.2,57.2,0,0,1,92,172.37c.59-1,1.08-1.81,1.42-2.34a6.33,6.33,0,0,0,.5-.84,1.07,1.07,0,0,0-.16.19l-.43.58c-.37.52-.89,1.3-1.51,2.3a53.21,53.21,0,0,0-4.32,8.79l.29-.06c-2.78-2.63-6-5.79-9.22-9.3-5-5.38-9.18-10.55-12.1-14.37-1.47-1.91-2.62-3.47-3.42-4.56l-.92-1.25A2.75,2.75,0,0,0,61.83,151.09Z"/><g class="cls-6"><path d="M97.7,184.3c-1.32-1.6-1.14-4.47-3.1-5.18a2.61,2.61,0,0,0-2.77.78c-1.81,1.95-1.29,4.81-2.94,6.86a3,3,0,0,1-1.14.89c-1.87.82-3.44-.62-4.66-1.94q-3.47-3.75-6.85-7.57a67.24,67.24,0,0,1-8-10.31,24.93,24.93,0,0,1-3.79-12.33,204.44,204.44,0,0,0,23.23,25.61c1-3.56,3.15-7.14,5.13-10.23.27-.44,1.25-1.92,1.73-2.1.25-.1-.24-.11,0,0l2.66,6.15s1.19-5,1.48-6.15a7.17,7.17,0,0,1,3.15.49A11.93,11.93,0,0,1,104,170.6a14.33,14.33,0,0,1,5.69,8.88c-1.64-.38-2.84-1.73-4.1-2.84s-3-2.06-4.58-1.44-2.21,2.6-2.3,4.33.08,3.57-.77,5.09Z"/></g><polygon class="cls-12" points="64.88 72.42 64.66 80.11 56.01 81.2 55.72 73.17 64.88 72.42"/><path class="cls-12" d="M58.71,35.11c-.11,0-.21,10.27-.21,22.94s.1,23,.21,23,.2-10.28.2-23S58.82,35.11,58.71,35.11Z"/><path class="cls-12" d="M60.68,213.69s0-.15,0-.43,0-.71.06-1.25c0-1.11.09-2.73.17-4.8.13-4.18.31-10.21.54-17.66s.48-16.33.76-26.19c.09-2.46.1-5,.25-7.55A4.53,4.53,0,0,1,64,152.5a2.74,2.74,0,0,1,1.73-.58,1.7,1.7,0,0,1,1.44.9A2.44,2.44,0,0,1,66,156a3.41,3.41,0,0,1-3.55-1,5.87,5.87,0,0,1-1.47-3.68,12.53,12.53,0,0,1,.31-4.14,4.8,4.8,0,0,1,1.13-2.08,3.51,3.51,0,0,1,2-1,2.14,2.14,0,0,1,2,.8,2,2,0,0,1,.34,2.07,1.73,1.73,0,0,1-1.84.84,2.59,2.59,0,0,1-1.84-1.13,7.42,7.42,0,0,1-.87-4.41,6.6,6.6,0,0,1,.49-2.18,2.94,2.94,0,0,1,1.42-1.54,2.73,2.73,0,0,1,2.06-.08,1.54,1.54,0,0,1,1,1.53,1.52,1.52,0,0,1-.38.89,2.82,2.82,0,0,1-.81.59,3,3,0,0,1-2,.19,2.81,2.81,0,0,1-1.52-1.24,5.59,5.59,0,0,1-.73-1.89,14,14,0,0,1-.05-4,4,4,0,0,1,1.79-3.17,2.6,2.6,0,0,1,1.74-.27,1.53,1.53,0,0,1,1.19,1.08,1.93,1.93,0,0,1-.38,1.59,2.65,2.65,0,0,1-1.33,1,2,2,0,0,1-1.57-.19A2.92,2.92,0,0,1,62,133.35a4.22,4.22,0,0,1-.41-3.06,6.49,6.49,0,0,1,1.45-2.62,16.49,16.49,0,0,1,2.08-2l0,0v-.07c-.34-5.41-.61-9.69-.79-12.64-.1-1.46-.18-2.58-.24-3.35,0-.37,0-.66-.06-.87s0-.29,0-.29v.3c0,.21,0,.49,0,.86.05.78.1,1.9.17,3.35.16,3,.39,7.24.69,12.66l0-.11a18.59,18.59,0,0,0-2.12,2,6.88,6.88,0,0,0-1.53,2.72,4.61,4.61,0,0,0,.42,3.28A3.29,3.29,0,0,0,63,134.76a2.25,2.25,0,0,0,1.8.22,2.94,2.94,0,0,0,1.5-1.1,2.23,2.23,0,0,0,.44-1.86,1.88,1.88,0,0,0-1.44-1.33,3,3,0,0,0-2,.3,3.32,3.32,0,0,0-1.4,1.47,6.06,6.06,0,0,0-.57,2,14,14,0,0,0,0,4.14,5.67,5.67,0,0,0,.77,2,3.65,3.65,0,0,0,.73.84,2.45,2.45,0,0,0,1,.55,3.33,3.33,0,0,0,2.24-.2,3.18,3.18,0,0,0,1-.68,1.87,1.87,0,0,0-.81-3,3.11,3.11,0,0,0-2.36.07,3.37,3.37,0,0,0-1.62,1.73,6.45,6.45,0,0,0-.51,2.32,11.88,11.88,0,0,0,.09,2.38,5.38,5.38,0,0,0,.83,2.29,3,3,0,0,0,2.12,1.3,2.12,2.12,0,0,0,2.25-1.06,2.43,2.43,0,0,0-.37-2.5,2.59,2.59,0,0,0-1-.8,3,3,0,0,0-1.31-.15,3.93,3.93,0,0,0-2.29,1.17,5.19,5.19,0,0,0-1.23,2.25,13.2,13.2,0,0,0-.33,4.28,6.25,6.25,0,0,0,1.59,3.93,3.8,3.8,0,0,0,4,1.05,2.73,2.73,0,0,0,1.46-1.56,2.69,2.69,0,0,0,0-2.12,2.06,2.06,0,0,0-1.79-1.12,3.18,3.18,0,0,0-2,.65,3.64,3.64,0,0,0-1.21,1.64,6.64,6.64,0,0,0-.44,2c-.15,2.6-.16,5.11-.24,7.58-.25,9.86-.48,18.73-.67,26.2s-.32,13.47-.42,17.65c0,2.08-.07,3.7-.1,4.81,0,.54,0,1,0,1.25S60.68,213.69,60.68,213.69Z"/><polygon class="cls-10" points="65.25 107.88 65.25 112.42 62.99 112.42 62.66 107.99 65.25 107.88"/><path class="cls-5" d="M177.72,103.68c.07,0-.06-1.23.05-3.17a10.41,10.41,0,0,1,.73-3.3,6.16,6.16,0,0,1,2.71-3,9.35,9.35,0,0,1,4-1.06,16.6,16.6,0,0,1,3.4.25c1.93.33,3.11.62,3.13.55a4.25,4.25,0,0,0-.81-.28c-.53-.15-1.3-.36-2.27-.56a16,16,0,0,0-3.47-.33A9.13,9.13,0,0,0,181,93.88a6.37,6.37,0,0,0-2.85,3.18,9.88,9.88,0,0,0-.67,3.43,16.8,16.8,0,0,0,.09,2.34A2.77,2.77,0,0,0,177.72,103.68Z"/><path class="cls-12" d="M147.67,121.8l16.39.58L212.64,137,176.9,153.08l-6,19-18.79-7.29L135,157l-.37-18.8a15.67,15.67,0,0,1,6.83-12.12Z"/><path class="cls-12" d="M196.27,92.69l-4.19-.38a1.68,1.68,0,0,0-1.82,1.53h0a1.67,1.67,0,0,0,1.52,1.82l3.61.32Z"/><path class="cls-12" d="M226.42,100.52c-.19-1.32,0,2.63,0,3.85a4.11,4.11,0,0,1-4.25,4.06l-5.37-.2-4.17-3.78,8.1,0v-4.23Z"/><path class="cls-11" d="M191.14,134.73s-4.15-3.54-5.81-3.73-12.32-.1-12.32-.1l-7,4.79-17,31.14-6.63,8.48,18.43,21.74L173,186.91l14.33-4.68-10.94.15c-2.21-3.5-6.13-8.84-6.13-8.84L167.56,158l-.12-6.18,3.57-9.73,5.5-5.83Z"/><path class="cls-2" d="M210.32,135.67l-5.09-7.13-19.58-6.74s-3.05,3.69,1.52,6.94h1.53s-2.19,4.86,4,3.49c.58-.13,6.3.89,6.3.89l3.05,2.55Z"/><polygon class="cls-12" points="230.08 135.68 236 141.34 235.37 173.79 230.06 179.65 176.49 182.89 169.51 173.83 170.89 145.36 172.73 140.69 177.88 137.18 230.08 135.68"/><path class="cls-5" d="M180.64,139.48l-.33.28-1,.88-3.74,3.45,0,0v0c0,6.71-.05,18.17-.09,32.76V177l0,0c.9,1.05,1.89,2.23,2.9,3.42l.05.06h.09l49.38-2.2,1.2,0h.09l.06-.06,4.55-5.29.06,0v-.08c.14-10.57.27-20.6.39-29.75v-.07l-.05-.06-5-5-.05-.05h-.08L194,139l-9.87.35-2.59.1-.67,0-.22,0h.91l2.61-.06,9.88-.25,35.11-1-.12,0,5,5-.06-.13c-.13,9.14-.28,19.18-.43,29.75l.05-.13L229,177.9l.14-.07-1.19.06-49.38,2.26.13.06c-1-1.19-2-2.36-2.9-3.42l0,.11c0-14.59-.07-26.05-.09-32.76l0,.06,3.67-3.49c.41-.39.71-.7.94-.91Z"/><polygon class="cls-5" points="231.64 141.55 230.09 174.31 176.91 177.31 177.74 143 231.64 141.55"/><polygon class="cls-12" points="215.16 144.97 214.23 166.33 179.19 167.78 179.19 145.7 215.16 144.97"/><path class="cls-5" d="M178.81,154.87a12,12,0,1,0,12-12A12,12,0,0,0,178.81,154.87Z"/><path class="cls-13" d="M179.19,161A12,12,0,1,0,197,145.18l-16.57.49a8.81,8.81,0,0,0-1.2,1.39Z"/><path class="cls-12" d="M230.08,174.33c0-.1-3.46-2-7.84-4.19s-8-3.91-8-3.81,3.46,2,7.83,4.18S230,174.42,230.08,174.33Z"/><path class="cls-12" d="M190.78,103l-39.7.2v21.65l5.62-1,7.41-.89v-5.33l.06-3.49,12.27.4-.1,6.82-4.87,7.47-.05,1.1,12.13-.65,4.56-7.92s.1-3.13,0-3.43l2.85,1.15a12.82,12.82,0,0,0,4.74.92h14.62a6.54,6.54,0,0,0,6.52-6.53v-4.71c0-3.07-3.27-5.7-6.34-5.73Z"/><rect class="cls-5" x="188.92" y="103.04" width="28.34" height="16.98" rx="5.32" transform="translate(406.18 223.07) rotate(180)"/><rect class="cls-12" x="195.13" y="109.32" width="17.51" height="3.88" rx="1.23" transform="translate(407.78 222.51) rotate(180)"/><path class="cls-5" d="M185.82,103.06a2.67,2.67,0,0,0-.72.29,6.48,6.48,0,0,0-1.7,1.25,6.58,6.58,0,0,0-1.55,2.74,10.77,10.77,0,0,0-.38,3.83,6.64,6.64,0,0,0,1.71,3.45,12,12,0,0,0,2.38,2,14.18,14.18,0,0,0,1.83,1,2.81,2.81,0,0,0,.72.28c0-.06-1-.53-2.39-1.55a13.54,13.54,0,0,1-2.26-2,6.44,6.44,0,0,1-1.58-3.27,10.71,10.71,0,0,1,.33-3.67,6.49,6.49,0,0,1,1.4-2.64A12.08,12.08,0,0,1,185.82,103.06Z"/><path class="cls-12" d="M231.21,93.74,199.3,90.8a4.16,4.16,0,0,0-4.52,3.71h0a4.17,4.17,0,0,0,3.69,4.59l31.37,3.41Z"/><rect class="cls-12" x="118.08" y="84.43" width="43.61" height="28.84"/><path class="cls-5" d="M118.08,113.27s0-.18,0-.53,0-.88,0-1.53c0-1.36,0-3.31,0-5.81,0-5,.06-12.2.09-21l-.16.17,43.59,0c.05.05-.37-.38-.19-.19h0V99.39c0,4.83,0,9.47,0,13.88l.18-.18-31.37.09-9,0-2.4,0h0l2.36,0,9,.05,31.49.09h.18v-.19c0-4.41,0-9,0-13.88V92c0-1.25,0-2.51,0-3.78V84.46h0c.18.18-.25-.25-.22-.21l-43.59,0h-.16v.16c0,8.81.06,16,.08,21.07,0,2.48,0,4.43,0,5.77,0,.65,0,1.14,0,1.5S118.08,113.27,118.08,113.27Z"/><path class="cls-5" d="M212,100.59a11.11,11.11,0,0,0,2.14.41c1.34.19,3.18.4,5.22.6l5.23.49a12.5,12.5,0,0,0,2.18.13,9.8,9.8,0,0,0-2.15-.42c-1.33-.19-3.18-.39-5.22-.6l-5.22-.48A12.5,12.5,0,0,0,212,100.59Z"/><path class="cls-5" d="M220.74,104.44s-.25.19-.39.65a2.66,2.66,0,0,0,.17,1.84,2.55,2.55,0,0,0,1.39,1.22c.45.16.75.12.75.07s-.26-.12-.64-.33a2.77,2.77,0,0,1-1.13-1.15,2.72,2.72,0,0,1-.26-1.59C220.69,104.73,220.8,104.47,220.74,104.44Z"/><path class="cls-5" d="M195.82,97.74c.05,0-.19-.32-.42-.85a5.54,5.54,0,0,1-.44-2.17,3.56,3.56,0,0,1,.65-2.07c.33-.47.58-.76.53-.8s-.35.17-.76.63a3.32,3.32,0,0,0-.82,2.23,4.58,4.58,0,0,0,.59,2.31C195.46,97.56,195.79,97.78,195.82,97.74Z"/><path class="cls-5" d="M260.15,93.72l-23-2.13a7.49,7.49,0,0,0-8.07,6.19h0a7.49,7.49,0,0,0,6.48,8.71l22.91,2.77a7.82,7.82,0,0,0,8.7-6.77h0A7.81,7.81,0,0,0,260.15,93.72Z"/><path class="cls-12" d="M256.14,108a15.13,15.13,0,0,1-1.33-1.83,9,9,0,0,1-1-5.25,7.83,7.83,0,0,1,2.52-4.65,7.33,7.33,0,0,1,1.92-1.16,1.42,1.42,0,0,0-.61.11,4.61,4.61,0,0,0-1.5.83,7.6,7.6,0,0,0-1.66,1.91,7,7,0,0,0-1.08,2.92,8.73,8.73,0,0,0,1.16,5.43,5.75,5.75,0,0,0,1.08,1.32C255.94,107.87,256.13,108,256.14,108Z"/><path class="cls-5" d="M187.67,121.39a3.4,3.4,0,0,0-.85-.07l-2.35,0-8.13-.08h-.11l-.06.09-2.67,4.08-2.2,3.39-.2.31h.37l8.71-.08,2.54-.06a5.7,5.7,0,0,0,.92-.06,4,4,0,0,0-.92-.07l-2.54-.06-8.71-.07.16.3,2.21-3.38,2.66-4.09-.16.09,8.13-.08,2.35,0A4.8,4.8,0,0,0,187.67,121.39Z"/><path class="cls-5" d="M151.14,122.57a49.55,49.55,0,0,0,6.28.2,49.65,49.65,0,0,0,6.29-.2,49.65,49.65,0,0,0-6.29-.2A49.55,49.55,0,0,0,151.14,122.57Z"/><path class="cls-5" d="M150.55,164.08a2.29,2.29,0,0,0,0-.53c0-.4,0-.9.06-1.52.06-1.32.14-3.23.3-5.58s.38-5.15.71-8.26q.24-2.33.57-4.86a51.08,51.08,0,0,1,.82-5.16,16.89,16.89,0,0,1,2-4.78,10,10,0,0,1,3.44-3.31,30.27,30.27,0,0,1,7.59-3.13c2.27-.62,4.14-1,5.44-1.22l1.5-.25a2.33,2.33,0,0,0,.52-.11,3.48,3.48,0,0,0-.53,0l-1.52.17a52.35,52.35,0,0,0-5.49,1.1,30.27,30.27,0,0,0-7.72,3.09,10.36,10.36,0,0,0-3.56,3.42,17.3,17.3,0,0,0-2,4.89,20.46,20.46,0,0,0-.47,2.65c-.13.87-.24,1.72-.35,2.56-.21,1.69-.39,3.32-.54,4.88-.32,3.1-.51,5.91-.63,8.27s-.16,4.27-.16,5.59c0,.66,0,1.17,0,1.52A3.85,3.85,0,0,0,150.55,164.08Z"/><path class="cls-5" d="M145.07,161.58a4.23,4.23,0,0,0,0-.51c0-.38,0-.86,0-1.47,0-1.32.1-3.14.17-5.38a168.29,168.29,0,0,1,1.38-17.68,14.88,14.88,0,0,1,1.58-4.71A13,13,0,0,1,151,128.1a15.46,15.46,0,0,1,3.51-2.32,24.37,24.37,0,0,1,3.43-1.36,40,40,0,0,1,5.21-1.24l1.45-.25a2.6,2.6,0,0,0,.5-.1,1.8,1.8,0,0,0-.51,0c-.34,0-.83.08-1.46.17a34.73,34.73,0,0,0-5.28,1.13,23.22,23.22,0,0,0-3.49,1.33,15.26,15.26,0,0,0-3.61,2.35,13,13,0,0,0-2.84,3.81,15.81,15.81,0,0,0-1.64,4.84A146.7,146.7,0,0,0,145,154.22c0,2.27,0,4.11,0,5.38,0,.61,0,1.09,0,1.46A1.93,1.93,0,0,0,145.07,161.58Z"/><path class="cls-4" d="M176.51,136.24s.09,0,.25-.07.09-.1.06-.17a.47.47,0,0,0-.13-.15,1.5,1.5,0,0,0-.38-.19,5.92,5.92,0,0,0-2.63-.09,7.61,7.61,0,0,0-1.75.49,3.65,3.65,0,0,0-.92.47,10.27,10.27,0,0,0-.84.67c-1.09,1-2.2,2.13-3.34,3.35l-1.62,1.79v0l0,0c-1.15,2.52-2.15,4.73-2.85,6.32l-.8,1.87a2.86,2.86,0,0,0-.25.69s.16-.21.38-.63.54-1.11.91-1.83c.76-1.55,1.8-3.74,3-6.25l0,.05,1.62-1.78c1.14-1.22,2.23-2.38,3.29-3.35.27-.24.53-.47.8-.67a4.48,4.48,0,0,1,.84-.45,8.61,8.61,0,0,1,1.68-.51,6.3,6.3,0,0,1,2.52,0c.28.07.55.21.44.3S176.5,136.23,176.51,136.24Z"/><path class="cls-4" d="M165.36,173.68c0,.12,1.17-.08,2.54.19s2.37.86,2.43.75a5,5,0,0,0-5-.94Z"/><path class="cls-4" d="M165.69,155.37a24.64,24.64,0,0,0,.82,2.66c.52,1.64,1.19,3.91,1.77,6.46s.95,4.89,1.18,6.58.35,2.76.41,2.76a2.86,2.86,0,0,0,0-.76c0-.48-.06-1.17-.14-2a54.57,54.57,0,0,0-3-13.1c-.29-.81-.56-1.45-.75-1.89A2.61,2.61,0,0,0,165.69,155.37Z"/><path class="cls-3" d="M24.19,263.1c-5.7-2.8-7.71-9.51-6.93-15.62.81-6.3,7.18-11.6,12.92-14.33s12.14-3.67,18.45-4.35c3.57-.39,7.27-.69,10.67.49s6.4,4.2,6.41,7.79Z"/><g class="cls-6"><path d="M24.19,263.1c-5.7-2.8-7.71-9.51-6.93-15.62.81-6.3,7.18-11.6,12.92-14.33s12.14-3.67,18.45-4.35c3.57-.39,7.27-.69,10.67.49s6.4,4.2,6.41,7.79Z"/></g><path class="cls-11" d="M54.72,195.67l9.86,41.79,83.73-69.68,13.92,28.12L86.66,276.09a39.86,39.86,0,0,1-35.89,11.26h0C34,284.17,23.51,269.52,21.1,252.63l-4.91-34.2Z"/><path class="cls-3" d="M21.71,165l9.19-5.16s21.5,1.71,23.82,35.87l3.34,8.86,6.52,32.93c-1.25-6.42-33.07-29.73-47.32,10l-5-56.6C13.56,179.08,12.45,171.12,21.71,165Z"/><path class="cls-5" d="M57.69,191.92s0,.15-.1.44-.14.73-.2,1.3a28.58,28.58,0,0,0-.14,4.82A57.84,57.84,0,0,0,60.67,214c1.07,2.92,2.25,5.63,3.16,8.15A39.7,39.7,0,0,1,65.74,229a19.1,19.1,0,0,1,.27,4.76c-.11,1.12-.22,1.73-.18,1.74a2.12,2.12,0,0,0,.11-.44,11.37,11.37,0,0,0,.23-1.29A18,18,0,0,0,66,228.9,38.22,38.22,0,0,0,64.18,222c-.9-2.54-2.07-5.26-3.13-8.16a61.49,61.49,0,0,1-3.51-15.37,30.94,30.94,0,0,1,0-4.78C57.64,192.55,57.73,191.92,57.69,191.92Z"/><path class="cls-5" d="M28.86,162a9.65,9.65,0,0,0,1.37-.17A25.46,25.46,0,0,1,34,161.6a22.53,22.53,0,0,1,19.84,12.75,23.83,23.83,0,0,1,1.39,3.5,9.05,9.05,0,0,0,.42,1.32,1.17,1.17,0,0,0,0-.35,7.67,7.67,0,0,0-.22-1,20.19,20.19,0,0,0-1.28-3.58A22.17,22.17,0,0,0,34,161.31a20.52,20.52,0,0,0-3.79.32c-.44.07-.78.16-1,.21A1.4,1.4,0,0,0,28.86,162Z"/><path class="cls-5" d="M17.31,251.23a3.42,3.42,0,0,0,.07-.68c0-.23,0-.51,0-.82a8,8,0,0,1,.11-1.11,25.42,25.42,0,0,1,1.77-6.87A27.65,27.65,0,0,1,25,233a28.42,28.42,0,0,1,4.8-3.92,26.17,26.17,0,0,1,6-2.76,24,24,0,0,1,6.58-1,25.15,25.15,0,0,1,6.16.64A27.1,27.1,0,0,1,54,227.77a24.71,24.71,0,0,1,4.22,2.48,21.69,21.69,0,0,1,5,5,6.25,6.25,0,0,1,.62.93c.16.26.31.49.43.7a4.41,4.41,0,0,0,.37.56,5,5,0,0,0-.3-.6c-.12-.21-.24-.45-.4-.73a6.52,6.52,0,0,0-.59-.95A20.53,20.53,0,0,0,58.34,230a25.84,25.84,0,0,0-4.25-2.56,26.65,26.65,0,0,0-5.39-1.83,25.28,25.28,0,0,0-6.25-.68,23.59,23.59,0,0,0-6.68,1,25.46,25.46,0,0,0-6.14,2.81,28,28,0,0,0-4.86,4A27.31,27.31,0,0,0,19,241.65a24,24,0,0,0-1.67,6.95,7.8,7.8,0,0,0-.07,1.12c0,.32,0,.6,0,.83A3.6,3.6,0,0,0,17.31,251.23Z"/><g class="cls-6"><path d="M69.18,233.63c-1.51-10.92-4.42-19-10.74-28.09,2.21,10.57,4.67,20,7.27,31Z"/></g><path class="cls-4" d="M51.23,247.05a81,81,0,0,0,6.66-4.69c3.61-2.68,6.49-4.92,6.42-5A81.25,81.25,0,0,0,57.65,242,81.09,81.09,0,0,0,51.23,247.05Z"/><path class="cls-5" d="M95.5,426.18h-63c.24-8,.47-16.23.71-24.21.73-25.2,1.39-48.17,1.54-55.65v-.59c0-.8,0-1.36,0-1.67l21.13-1.18h.2l.19,0,93.3-5.21.14,3.68,3.44,84.85H98l0-.7-.11.7H95.5Z"/><path class="cls-3" d="M31.72,323.18s-8.35,27.93,10.05,23.17A57.83,57.83,0,0,1,59.48,346s35.43-.34,91.63-4.77c0,0,7.33-2.73,0-13.46S31.72,323.18,31.72,323.18Z"/><path class="cls-5" d="M96.22,426.18c.54-3.24,1.1-6.59,1.65-10,2.27-14.19,4-27.1,5.11-36.45.56-4.69,1-8.47,1.23-11.1.12-1.25.22-2.25.27-3a5.73,5.73,0,0,0,.06-1.07,4.54,4.54,0,0,0-.19,1c-.11.76-.24,1.76-.41,3-.36,2.69-.86,6.44-1.46,11.06-1.24,9.33-3,22.23-5.31,36.42-.55,3.47-1.11,6.86-1.67,10.13Z"/></g><g id="Layer_3" data-name="Layer 3"><g class="cls-14"><g class="cls-15"><text class="cls-16" transform="translate(-489.86 480.22)">#ENTGEN17</text></g></g></g></svg>