<svg xmlns="http://www.w3.org/2000/svg" xmlns:xlink="http://www.w3.org/1999/xlink" viewBox="0 0 283.46 425.2"><defs><style>.cls-1,.cls-17{fill:none;}.cls-2{fill:#263238;}.cls-3{fill:#cdcdce;}.cls-4{fill:#fbbd9d;}.cls-5{fill:#ec996f;}.cls-6{fill:#455b64;}.cls-7{fill:#13487a;}.cls-8{fill:#f6af90;}.cls-9{fill:#fff;}.cls-10{opacity:0.3;}.cls-11{fill:#1f2528;}.cls-12{fill:#1a1919;}.cls-13{fill:#1e1e1e;}.cls-14{fill:#212121;}.cls-15{clip-path:url(#clip-path);}.cls-16{clip-path:url(#clip-path-2);}.cls-17{opacity:0.1;font-size:93.52px;stroke:#fff;stroke-miterlimit:10;font-family:Poppins-Bold, Poppins;font-weight:700;}</style><clipPath id="clip-path"><rect class="cls-1" x="-1026.14" y="-85.04" width="843.09" height="1193.96"/></clipPath><clipPath id="clip-path-2"><rect class="cls-1" x="-1034.03" y="-93.17" width="850.99" height="1208.54"/></clipPath></defs><g id="Layer_1" data-name="Layer 1"><path class="cls-2" d="M225.91,426.13H160.16l-.35-2,0,.88v.44l0,.71H104.12l2.23-55.36,1.43-35.26,13.68.76,4.3.24,51.32,2.87,3.77.2,6.61.38.5,0h.12l.59,0,16.63.92.39,0,17.88,1c0,1.54.2,9.27.5,20.4.09,3,.17,6.24.28,9.68C224.79,387.79,225.37,407.55,225.91,426.13Z"/><path class="cls-3" d="M201.09,138.08l-11.69-4-43.66,10-3.87,3.2-23.12,214c9.92,10.24,41.22,12.27,59,9.24Z"/><path class="cls-2" d="M160.62,430.91c-.26-1.61-.5-3.21-.75-4.78,0-.25-.07-.48-.11-.71-1.88-12.13-3.4-23.05-4.48-31.24-.55-4.08-1-7.47-1.33-10.08L159.77,425l.17,1.15Z"/><path class="cls-4" d="M188.61,71.3l.9,71.9c-.85,2.94-4.62,12.9-20.08,16.68l-2.06.34c-16.74-1.82-20.5-5.12-20.64-16.53-.06-5.41-.12-9.92-.16-10.48,0,0-18.33-1.5-19.87-19.59-.75-8.75-.82-26.88-.7-43.3a33.83,33.83,0,0,1,31.38-33.46l1.75-.13C178.06,36.45,188.86,52.37,188.61,71.3Z"/><path class="cls-5" d="M146.57,133.21a43.84,43.84,0,0,0,23.07-8.69s-4.78,13.65-23,13.34Z"/><path class="cls-2" d="M156.94,77.74c.36.37,2.45-1.32,5.49-1.4s5.29,1.41,5.61,1c.16-.18-.22-.84-1.21-1.54a7.62,7.62,0,0,0-4.5-1.28A7.31,7.31,0,0,0,158,76.13C157.06,76.89,156.77,77.58,156.94,77.74Z"/><path class="cls-2" d="M155.66,86.32a2.43,2.43,0,0,0,2.53,2.29,2.33,2.33,0,0,0,2.36-2.39A2.44,2.44,0,0,0,158,83.93,2.33,2.33,0,0,0,155.66,86.32Z"/><path class="cls-2" d="M149.35,98.83c0-.16-1.75-.33-4.58-.48-.72,0-1.4-.12-1.56-.59a3.73,3.73,0,0,1,.32-2.15c.55-1.76,1.11-3.61,1.71-5.56,2.36-7.92,4-14.41,3.69-14.5s-2.49,6.25-4.85,14.17l-1.61,5.59a4.14,4.14,0,0,0-.17,2.82,1.81,1.81,0,0,0,1.24,1,4.45,4.45,0,0,0,1.22.08C147.6,99.11,149.35,99,149.35,98.83Z"/><path class="cls-2" d="M158.23,64.84c.3.67,2.72.17,5.63.31s5.3.79,5.63.15c.15-.31-.3-.93-1.29-1.53a9.5,9.5,0,0,0-8.58-.35C158.6,63.94,158.11,64.52,158.23,64.84Z"/><path class="cls-2" d="M129.44,69.38c.31.55,2.68-.06,5.55-.15s5.24.28,5.55-.3c.13-.26-.34-.76-1.34-1.19A9.89,9.89,0,0,0,135,67a10.27,10.27,0,0,0-4.22,1C129.75,68.59,129.3,69.12,129.44,69.38Z"/><path class="cls-4" d="M188.11,84.82c.3-.15,12.18-4.59,12.69,7.82s-12.06,10.37-12.09,10S188.11,84.82,188.11,84.82Z"/><path class="cls-5" d="M192.31,97.79c.05,0,.22.15.59.3a2.2,2.2,0,0,0,1.62,0c1.29-.54,2.31-2.67,2.28-4.91a7.34,7.34,0,0,0-.73-3.07,2.5,2.5,0,0,0-1.7-1.59,1.1,1.1,0,0,0-1.25.65c-.16.35-.07.59-.13.62s-.28-.2-.2-.72a1.4,1.4,0,0,1,.46-.79,1.61,1.61,0,0,1,1.18-.37,3,3,0,0,1,2.34,1.83,7.33,7.33,0,0,1,.89,3.43c0,2.51-1.16,4.9-2.93,5.49a2.32,2.32,0,0,1-2-.24C192.34,98.09,192.26,97.82,192.31,97.79Z"/><path class="cls-2" d="M152.28,107.43c-.14-.32,2.29-1.05,4-3.33a13.57,13.57,0,0,0,1.72-3.24c.36-.9.64-1.47.77-1.43s.1.66-.1,1.64a9.19,9.19,0,0,1-1.6,3.63,7.4,7.4,0,0,1-3.17,2.43C153,107.51,152.31,107.53,152.28,107.43Z"/><path class="cls-2" d="M102,54.08a2.94,2.94,0,0,1,1.38-1.72c1.41-.83,3.05-.72,4.62-.74a26.21,26.21,0,0,0,13.61-4.14,59.73,59.73,0,0,1,6.34-7.68c5.48-5.65,10-9.5,14.66-11.38,6-2.43,16.14-3.42,22.44-1.77s12,6.76,12.83,13.21c3.53-3,8.83-3,13.13-1.23l.11-.05c4.79,1.71,7.51,6.77,8.92,11.66s2,10.11,4.61,14.49c.54.91,1.18,2,.71,3a2,2,0,0,1-2.12.92,6,6,0,0,1-2.23-1l1.61,3.84a11.35,11.35,0,0,1-5.21-.35A110.35,110.35,0,0,1,194,84c-2,0-3.83.14-5.07,1.25-1.68,1.51-2.43,4.35-5.21,3.27-1.42-.55-2.72-3.53-3.19-5a70.63,70.63,0,0,1-3.06-29.9,22.93,22.93,0,0,0-7-5.06l.21.19c-5.06-1.75-10.78-3.48-15.58-1.11-3.72,1.85-5.91,5.71-8.69,8.79a28.4,28.4,0,0,1-20.25,9.35c-.27,5.1.16,12.3-.11,17.4L121.72,75v0c-.35-.6-.64-1.2-.92-1.81l-.1-.18v0c-.45-1-.87-1.94-1.43-2.9l0,0c-2.76,2.44-6.83-1.29-4.65-4.26a7.25,7.25,0,0,1,1.54-1.54,5.06,5.06,0,0,1-4.8,1.24,4,4,0,0,1-2.8-3.91,3.35,3.35,0,0,1,2-2.69,11.38,11.38,0,0,1-6.46-1.43C102.79,56.88,101.54,55.68,102,54.08Z"/><path class="cls-6" d="M172.15,41.94A15.6,15.6,0,0,1,174,43.6a13,13,0,0,1,2.78,6,23.19,23.19,0,0,1,.46,4.6c0,1.66-.13,3.45-.25,5.33a46.28,46.28,0,0,0-.14,5.94,20,20,0,0,0,.41,3.13,6.65,6.65,0,0,0,1.27,3,2.73,2.73,0,0,0,2.56.85,4,4,0,0,0,2.3-1.29,9.36,9.36,0,0,0,1.74-4.6l-.38,0a15,15,0,0,0,2.21,3.79,5.38,5.38,0,0,0,3.52,1.92,3.4,3.4,0,0,0,1.87-.33,3,3,0,0,0,1.26-1.25,3.06,3.06,0,0,0,.39-1.6,2.25,2.25,0,0,0-.58-1.41l-.2.17a11.54,11.54,0,0,0,3.89,2.92,10.35,10.35,0,0,0,1.21.47l.43.11a2,2,0,0,0-.41-.18c-.27-.11-.67-.27-1.17-.52a12.22,12.22,0,0,1-3.75-3l-.19.16a2.34,2.34,0,0,1,.12,2.7,2.77,2.77,0,0,1-1.15,1.1,3.11,3.11,0,0,1-1.69.28,5,5,0,0,1-3.27-1.83,14.67,14.67,0,0,1-2.12-3.71l-.26-.58-.12.63a9.11,9.11,0,0,1-1.66,4.4A3.68,3.68,0,0,1,181,72.1a2.31,2.31,0,0,1-2.17-.73,6.15,6.15,0,0,1-1.18-2.84,20.19,20.19,0,0,1-.41-3.07,47.47,47.47,0,0,1,.12-5.88c.11-1.89.23-3.68.21-5.37a22.21,22.21,0,0,0-.52-4.66,12.9,12.9,0,0,0-2.95-6.06A7.47,7.47,0,0,0,172.15,41.94Z"/><path class="cls-6" d="M116.15,59.56s0,0,.14.12l.45.33a6.93,6.93,0,0,0,.77.5,12.22,12.22,0,0,0,1.1.57,16.14,16.14,0,0,0,7.75,1.4,20.51,20.51,0,0,0,10.93-4,35.49,35.49,0,0,0,9.38-10.82c1.32-2.19,2.39-4.43,3.58-6.51a23.7,23.7,0,0,1,4-5.51,12.38,12.38,0,0,1,5.22-3.17,8.75,8.75,0,0,1,2.75-.31,9.31,9.31,0,0,1,2.52.48,10.31,10.31,0,0,1,3.77,2.27,10.73,10.73,0,0,1,2,2.65,12.14,12.14,0,0,1,.93,2.72.69.69,0,0,0,0-.19c0-.16-.05-.34-.09-.56a9,9,0,0,0-.69-2,10.16,10.16,0,0,0-2-2.75,10.53,10.53,0,0,0-3.84-2.38,9.84,9.84,0,0,0-2.6-.53,9.09,9.09,0,0,0-2.86.3,12.72,12.72,0,0,0-5.4,3.23,23.57,23.57,0,0,0-4.13,5.59c-1.2,2.09-2.27,4.33-3.58,6.5a35.51,35.51,0,0,1-9.25,10.72,20.46,20.46,0,0,1-10.72,4,16.37,16.37,0,0,1-7.66-1.25A23.12,23.12,0,0,1,116.15,59.56Z"/><path class="cls-6" d="M114.5,51.6s.22.19.65.46a14.48,14.48,0,0,0,1.92,1,18.5,18.5,0,0,0,3.05,1,21.53,21.53,0,0,0,3.89.52,22.15,22.15,0,0,0,3.92-.27,19,19,0,0,0,3.1-.8,14.26,14.26,0,0,0,2-.85,3.31,3.31,0,0,0,.68-.41c0-.07-1,.44-2.76,1a20.35,20.35,0,0,1-3.07.71,24.47,24.47,0,0,1-3.84.23,24.14,24.14,0,0,1-3.82-.48,22.68,22.68,0,0,1-3-.89C115.5,52.11,114.54,51.53,114.5,51.6Z"/><path class="cls-2" d="M129.3,77.74c.36.37,2.45-1.32,5.48-1.4s5.3,1.41,5.62,1c.15-.18-.22-.84-1.21-1.54a7.63,7.63,0,0,0-4.51-1.28,7.36,7.36,0,0,0-4.35,1.59C129.42,76.89,129.12,77.58,129.3,77.74Z"/><path class="cls-2" d="M129.94,86.32a2.45,2.45,0,0,0,2.54,2.29,2.34,2.34,0,0,0,2.36-2.39,2.45,2.45,0,0,0-2.54-2.29A2.34,2.34,0,0,0,129.94,86.32Z"/><path class="cls-7" d="M199.05,137.38l-5.27-1.94s-11.45,50.45-11.45,83.77-7.2,154.11-7.2,154.11l54.56-1.41,2.06-175.22Z"/><path class="cls-7" d="M122,375.34l-20.67-6,7.21-97.66-1.37-70.8,11.95-37.6,24.53-17.7S123.39,363.57,122,375.34Z"/><path class="cls-4" d="M56.87,174.6S50,206.47,48.78,218.9c-1,10,.88,21.86,10.89,25.61,4.64,1.74,16.34,1.26,20.57-1.57,15-10,31.17-31.24,31.17-31.24l8-52.79s-6.59-2.8-13.19,4.38-29.63,36-29.63,36L79,177.15Z"/><path class="cls-2" d="M160.18,170.48c9.11,0,18.23-4.23,26.71-12.49,7.87-7.65,14.69-19.25,14.88-19.6L197,136.63c-.17.31-18.62,34.82-42.83,29-24.76-5.94-39.78-42.5-39.93-42.87l-3.82,1.54a114.5,114.5,0,0,0,11.11,20.1c9.69,14,20.35,22.52,31.68,25.24A29.51,29.51,0,0,0,160.18,170.48Z"/><path class="cls-5" d="M75.45,226.9a4.08,4.08,0,0,0,.62-1,9.33,9.33,0,0,0,.58-1.28,12.4,12.4,0,0,0,.6-1.76,33.28,33.28,0,0,0,1-10.65c-.15-4.18-.54-7.93-.74-10.65a32.81,32.81,0,0,0-.43-4.39,22.39,22.39,0,0,0-.08,4.42c.07,2.73.39,6.5.54,10.64a38.92,38.92,0,0,1-.8,10.5C76.12,225.33,75.33,226.84,75.45,226.9Z"/><path class="cls-8" d="M57.48,139.13s-1.74,10.84,3.39,15.2l-6.8,34.36,24.85-11.21,4.47-36-2.83-10.84Z"/><path class="cls-6" d="M42.6,101.75S46.34,98,53.43,99s16.76,3.49,16.76,3.49a20.14,20.14,0,0,1,8.71,17.23c-.06,12-5.14,17.42-5.14,17.42l-20.33,4.49s-12.12-2.69-12.12-4.49,3.55-3.91,3.55-3.91.81-1-1.61-3.08-5.33-4.82-5-9.91.33-5.57,3.07-8,4.36-2.58,3.71-3.87S41.63,102.55,42.6,101.75Z"/><path class="cls-6" d="M71.45,104.45H82.2s9,1.78,11.51,12.4-6.17,18.28-6.17,18.28L73,136.26l1.83-17.72Z"/><path class="cls-6" d="M76.13,104.45l-.45-2.28s-.51-2.91,0-3.85.56-.52,1.47-1.13A26.57,26.57,0,0,1,86.32,95c3.05,0,9.87-.2,12.21,1.33A4.81,4.81,0,0,1,101,99.7s5.58,2.46,6.62,3c.37.19.72.39,1,.57a4.28,4.28,0,0,1,1.8,2.24c.22.64.49,1.47.74,2.49a18.39,18.39,0,0,1,.41,5.09s1-.31,1.73,3,.07,13.4,0,14.77c-.2,3.79-2.52,5.19-7.32,4.27l-23.17.13-1.08-28.43Z"/><path class="cls-2" d="M101,99.66a3.74,3.74,0,0,0-1.85-.9,18,18,0,0,0-4.91-.52c-3.86.06-6.89.87-6.85,1.05S90.52,99,94.29,99a26,26,0,0,1,4.78.3A17.09,17.09,0,0,0,101,99.66Z"/><path class="cls-2" d="M112.33,113.52c.07-.23-1.67-.67-3.74-.37s-3.65.93-3.58,1.12,1.67-.16,3.67-.41S112.28,113.68,112.33,113.52Z"/><path class="cls-9" d="M95.26,109.06a1,1,0,0,0-.47,1.23,1,1,0,0,0,1.22.47.93.93,0,0,0-.71-1.71Z"/><path class="cls-2" d="M74.28,104.56a8.87,8.87,0,0,0,1.81.18l5,.23a14.66,14.66,0,0,1,6.77,2.24A14.18,14.18,0,0,1,93.18,114a26.58,26.58,0,0,1,1.59,8.71,17.26,17.26,0,0,1-1.28,7.06A13.77,13.77,0,0,1,91,134c-.77.86-1.35,1.19-1.31,1.24s.16,0,.43-.2a5.17,5.17,0,0,0,1.08-.85A12.84,12.84,0,0,0,94,130a17.3,17.3,0,0,0,1.47-7.28,26,26,0,0,0-1.58-9,14.68,14.68,0,0,0-5.67-7.09,14.93,14.93,0,0,0-7.11-2.19c-2.1,0-3.79,0-5,0A9.08,9.08,0,0,0,74.28,104.56Z"/><path class="cls-2" d="M76.94,104.71a9.25,9.25,0,0,0,1.52.32,15.28,15.28,0,0,1,3.94,1.35,13.26,13.26,0,0,1,4.67,3.92,17.12,17.12,0,0,1,3,6.87,28.92,28.92,0,0,1,.58,7.55A18.67,18.67,0,0,1,89,130.66a13.37,13.37,0,0,1-2.26,3.49c-.68.71-1.16,1-1.13,1s.14,0,.38-.16a5.5,5.5,0,0,0,.95-.69,11.89,11.89,0,0,0,2.51-3.47,18,18,0,0,0,1.82-6.09,27.88,27.88,0,0,0-.54-7.77,17.42,17.42,0,0,0-3.16-7.12,13.4,13.4,0,0,0-5-4,13.55,13.55,0,0,0-4.12-1.17A5,5,0,0,0,76.94,104.71Z"/><g class="cls-10"><path d="M57.69,140.81h0a1.18,1.18,0,0,1,0-1.79c.89-1.09,12.42-5.59,12.42-5.59l1.34-4.32L70,127a8.6,8.6,0,0,1-1.29-2.76,24.7,24.7,0,0,1-.9-5.4c-.09-3.16,2.5-8.48,2.5-8.48l-1-2.09c-3.38-1.87-8.72-4.37-12.53-5-1.24-2.39-4.15-3.53-6.84-3.45a20.22,20.22,0,0,0-7.21,2l-.1.09c-1,.81,1.78,5.32,2.42,6.62s-1,1.45-3.71,3.87-2.74,2.91-3.07,8,2.59,7.82,5,9.91,1.61,3.08,1.61,3.08-3.55,2.1-3.55,3.91,12.12,4.49,12.12,4.49Z"/></g><path class="cls-2" d="M57.69,140.69a1.26,1.26,0,0,1-.3-1,1.48,1.48,0,0,1,.71-1c.45-.27,1-.54,1.61-.83,2.46-1.13,6.09-2.6,10.51-4.31l.13-.05.05-.13c.43-1.37.88-2.82,1.36-4.33l0-.14-.08-.14c-.65-1-1.46-2-2-3a13.64,13.64,0,0,1-1.13-3.63,17.56,17.56,0,0,1-.42-4,16.92,16.92,0,0,1,.93-4,37.11,37.11,0,0,1,1.53-3.77l.07-.15-.07-.16-1-2.08,0-.1-.1,0a45.84,45.84,0,0,0-12.65-5L57,103a7.25,7.25,0,0,0-5.64-3.47,12.11,12.11,0,0,0-5.1.63,25.48,25.48,0,0,0-3.05,1.2,5.47,5.47,0,0,0-1,.53c0,.09,1.5-.6,4.18-1.4a12.08,12.08,0,0,1,4.94-.48,6.76,6.76,0,0,1,5.18,3.27l.06.13.15,0a47.22,47.22,0,0,1,12.41,5l-.15-.15,1,2.08v-.31a37.19,37.19,0,0,0-1.57,3.84,17.56,17.56,0,0,0-1,4.22,18,18,0,0,0,.45,4.15,13.93,13.93,0,0,0,1.21,3.8c.66,1.17,1.43,2.08,2.1,3.07l0-.28c-.46,1.52-.9,3-1.32,4.34l.18-.18c-4.41,1.77-8,3.31-10.45,4.55a14.94,14.94,0,0,0-1.6.91,1.69,1.69,0,0,0-.75,1.17C57.19,140.51,57.72,140.71,57.69,140.69Z"/><path class="cls-2" d="M57.47,137.88c0-.06-.6-.12-1.63-.48A11.16,11.16,0,0,1,52,135c-2.88-2.59-5.32-7.78-5.43-13.73a19.71,19.71,0,0,1,1.42-8.15,18,18,0,0,1,3.81-5.59,42.45,42.45,0,0,1,4.93-4,6.26,6.26,0,0,0-1.54.77,20.94,20.94,0,0,0-3.75,2.83,17.93,17.93,0,0,0-4,5.7,19.86,19.86,0,0,0-1.54,8.42c.12,6.13,2.72,11.49,5.81,14.1a10.54,10.54,0,0,0,4.15,2.25A4.13,4.13,0,0,0,57.47,137.88Z"/><path class="cls-2" d="M70.81,127.91A7.63,7.63,0,0,1,66.08,133a10.51,10.51,0,0,1-8.65-1.52,13.17,13.17,0,0,1-5.08-7.29,19.73,19.73,0,0,1,0-9c.93-4.93,6.44-9.72,10.3-10.1l6.28,2.8,1.23,2s-2.87,7.45-2.42,11.25A13.71,13.71,0,0,0,70.81,127.91Z"/><path class="cls-2" d="M53.43,99a7,7,0,0,0,1.21.24c.78.14,1.92.37,3.36.68,2.88.61,7,1.54,11.76,2.69l-.08,0a18,18,0,0,1,7.26,8.18,20.94,20.94,0,0,1,2.2,10.41,31.85,31.85,0,0,1-1.82,8.61,35.12,35.12,0,0,1-2.46,5.44c-.69,1.24-1.15,1.88-1.1,1.92a2.26,2.26,0,0,0,.39-.43,15.79,15.79,0,0,0,.94-1.34,29.83,29.83,0,0,0,2.7-5.41,30.58,30.58,0,0,0,2-8.75,21.23,21.23,0,0,0-2.21-10.76A18.35,18.35,0,0,0,70,102h-.07c-4.82-1.1-8.92-1.94-11.83-2.45-1.46-.25-2.62-.42-3.41-.5A4.89,4.89,0,0,0,53.43,99Z"/><g class="cls-10"><path d="M74.68,136l3-.07s3.9-9.08,3.91-14.07c0-11.44-6.92-17.49-6.92-17.49l-2.07.26a19.91,19.91,0,0,1,6.81,17.47C78.26,131.63,74.68,136,74.68,136Z"/></g><path class="cls-2" d="M105.05,135.08a12.92,12.92,0,0,0,.18-2.29c0-1.48.09-3.61.1-6.25v-9.25c0-1.74,0-3.57.06-5.46a12.48,12.48,0,0,0-.16-3,5.1,5.1,0,0,0-1.54-2.73,12.18,12.18,0,0,0-5.42-2.51c-1.82-.53-3.62-1-5.32-1.35l-2.5-.52-1.19-.25a3.69,3.69,0,0,1-1-.27,5.25,5.25,0,0,1-1.11-1.75,4,4,0,0,0-1.29-1.74A3.54,3.54,0,0,0,84,97.07a12.57,12.57,0,0,0-1.71,0,24.33,24.33,0,0,0-2.69.25,10,10,0,0,0-2.25.46,22.83,22.83,0,0,0,2.28-.19c.74-.06,1.63-.12,2.67-.12s2.31,0,3.24.73c1.11.7,1,2.31,2.37,3.57a1.45,1.45,0,0,0,.35.18l.3.08.59.14,1.19.26,2.48.54c1.71.36,3.45.84,5.26,1.38a26.91,26.91,0,0,1,2.72.86,8,8,0,0,1,2.41,1.5,4.34,4.34,0,0,1,1.34,2.36,12.44,12.44,0,0,1,.16,2.8c0,1.9,0,3.73,0,5.47.06,3.46.11,6.59.16,9.26s.09,4.64.12,6.24A16,16,0,0,0,105.05,135.08Z"/><path class="cls-2" d="M107.77,103.61c-.06.38-1.7.43-3.66.11s-3.5-.92-3.44-1.3c0-.14-.07-1.29.27-1.35.65-.09,2.11,1,3.4,1.24,1.45.24,3-.32,3.51,0C108,102.44,107.79,103.51,107.77,103.61Z"/><path class="cls-6" d="M107.89,102.45c-.07.38-1.71.43-3.67.1s-3.5-.91-3.43-1.3,1.7-.43,3.66-.1S108,102.06,107.89,102.45Z"/><path class="cls-2" d="M107.89,102.45s0-.28-.36-.46a6.4,6.4,0,0,0-1.52-.61,16.71,16.71,0,0,0-2.37-.48,12.77,12.77,0,0,0-1.43-.11,6.52,6.52,0,0,0-.76,0,2.57,2.57,0,0,0-.4.08c-.13,0-.32.07-.41.33a.51.51,0,0,0,.27.44l.36.21a5.69,5.69,0,0,0,.71.27,11.51,11.51,0,0,0,1.39.37,17.41,17.41,0,0,0,2.39.32,6.14,6.14,0,0,0,1.64-.08c.4-.06.54-.31.49-.31s0,0-.11.09a1,1,0,0,1-.4.11,7.76,7.76,0,0,1-1.6,0,17.83,17.83,0,0,1-2.36-.38,13.08,13.08,0,0,1-1.35-.37c-.23-.08-.46-.17-.68-.27s-.47-.29-.46-.35a1.12,1.12,0,0,1,.55-.17,5.94,5.94,0,0,1,.73,0,12.51,12.51,0,0,1,1.4.09,19.16,19.16,0,0,1,2.35.41,7.87,7.87,0,0,1,1.51.51,1.09,1.09,0,0,1,.35.24C107.88,102.39,107.87,102.44,107.89,102.45Z"/><path class="cls-9" d="M77.42,99.12h6.24a.78.78,0,0,1,.78.78v1.48a.79.79,0,0,1-.79.79H77.42a.78.78,0,0,1-.78-.78V99.91A.78.78,0,0,1,77.42,99.12Z"/><path class="cls-4" d="M95.74,111.53l6.86,9.35,15,19.14a9,9,0,0,1,1.87,4.71l2.32,5.1,10,11.17-22.91,18.29-7.65-11.51L76.67,157.1s-2.73-1.49-.38-6.7c0,0-3.43-3.53-1-7.24l-11.42-3.79,11.78-3.79,9.35-1.68,11.61.93-.09-3.62-2.1-5.47a9,9,0,0,1-2.44-4.8c-.5-3-2.1-6.81,0-8.33A4.73,4.73,0,0,1,95.74,111.53Z"/><path class="cls-5" d="M85.44,143.76c0-.2-2.43-.37-5.43-.54s-5.43-.28-5.45-.07,2.39.62,5.41.78S85.44,144,85.44,143.76Z"/><path class="cls-5" d="M83.36,152.62c0-.21-1.67-.36-3.64-.93s-3.47-1.31-3.57-1.13,1.3,1.24,3.38,1.82S83.37,152.8,83.36,152.62Z"/><path class="cls-7" d="M99.62,171.05S86.56,186.2,79.31,195.49c0,0,.57-22.33,1.49-27.37,0,0-15.12-1.25-25.2-5.61,0,0-3.2,31.38-6.64,53.59,0,0-8.24,35.73,25.42,29.09,0,0,17.26-2.62,37-33.49l4-17.81S101,174.32,99.62,171.05Z"/><path class="cls-7" d="M199.43,137.55s43.66,12.91,34.31,55.81c0,0-20.11,53.21-59.73,61.68,0,0-17.41,8.24-33.21-22.67l-38.71-54.74,25.72-21.24,44.82,53.78,30.49-30.91Z"/><path class="cls-11" d="M79.31,195.49s-2.87,11.73-4.7,33.9Z"/><path class="cls-11" d="M173,210.59s6.24,6.2,5.32,18.11C178.36,228.7,178.54,218.47,173,210.59Z"/><path class="cls-12" d="M180.87,253.17S212.61,241,229.42,202C229.42,202,214,235.9,180.87,253.17Z"/><path class="cls-12" d="M77.1,244.82s25.82-13,35.36-37.14C112.46,207.68,103.48,228.85,77.1,244.82Z"/><path class="cls-13" d="M136.42,225.73,102.5,177s20.18-17.74,25.16-21.06L143,175.73,127.5,156.54l-24,20.85Z"/><path class="cls-13" d="M183.67,199.33s14.16-15.09,22.56-22.87c0,0-.52,3.21,1-4.57,0,0-.41,4.41-.73,5.5Z"/><path class="cls-2" d="M198.87,143a29.06,29.06,0,0,0,2.73-4.73l-4.6-1.59Z"/><path class="cls-14" d="M146.89,148.09s-.19,7.75,9.63,10.58c0,0,16.63,5.48,29.1-7.93a28,28,0,0,1-29.81,7.93S146.42,155.84,146.89,148.09Z"/></g><g id="Layer_3" data-name="Layer 3"><g class="cls-15"><g class="cls-16"><text class="cls-17" transform="translate(-489.86 480.22)">#ENTGEN17</text></g></g></g></svg>