<svg xmlns="http://www.w3.org/2000/svg" xmlns:xlink="http://www.w3.org/1999/xlink" viewBox="0 0 283.46 425.2"><defs><style>.cls-1,.cls-22{fill:none;}.cls-2{fill:#263238;}.cls-3{fill:#455b64;}.cls-4{fill:#cdcdce;}.cls-5{opacity:0.3;}.cls-6{fill:#fbbd9d;}.cls-7{fill:#ec996f;}.cls-8{fill:#f3725f;}.cls-9{fill:#13487a;}.cls-10{fill:#5a6968;}.cls-11{opacity:0.4;}.cls-12{fill:#fafbfb;}.cls-13{fill:#a87d32;}.cls-13,.cls-14,.cls-15{fill-rule:evenodd;}.cls-14{fill:#fff;}.cls-15{fill:#22b2b3;}.cls-16{fill:#3e3e3d;}.cls-17{fill:#161616;}.cls-18{fill:#212526;}.cls-19{fill:#2b2b2b;}.cls-20{clip-path:url(#clip-path);}.cls-21{clip-path:url(#clip-path-2);}.cls-22{opacity:0.1;font-size:93.52px;stroke:#fff;stroke-miterlimit:10;font-family:Poppins-Bold, Poppins;font-weight:700;}</style><clipPath id="clip-path"><rect class="cls-1" x="-1026.14" y="-85.04" width="843.09" height="1193.96"/></clipPath><clipPath id="clip-path-2"><rect class="cls-1" x="-1034.03" y="-93.17" width="850.99" height="1208.54"/></clipPath></defs><g id="Layer_1" data-name="Layer 1"><path class="cls-2" d="M71.41,425.28c-.25-3.33-.45-6.58-.63-9.75,0-.16,0-.33,0-.5-.35-6.58-.53-12.74-.47-18.14v-.06c0-.82,0-1.62,0-2.4a88.24,88.24,0,0,1,.66-9.21,67.78,67.78,0,0,1,3.35-13.55c1-2.83,2.14-5.62,3.39-8.34a149.55,149.55,0,0,1,15.81-25.88c4.73-6.34,8.3-10.37,8.33-10.89,0-.21,1.71-.41,4.61-.64h.08l.75-.06c9.36-.67,29.25-1.4,47.19-2h0l3.35-.1h0l12.63-.39,7.42-.21,6.33-.18c.85,0,1.63,0,2.31-.06h.19l3.33-.09a232.33,232.33,0,0,1,11.44,20.28v0h0c1.5,3,3,6.15,4.42,9.44q.15.31.27.63a100,100,0,0,1,6.44,19.95A177.87,177.87,0,0,1,215.13,396c.05,1,.1,2.13.14,3.2v0c.09,1.82.15,3.68.2,5.56v.08c.18,6.58.21,13.49.12,20.47H71.41Z"/><path class="cls-3" d="M145.25,386.83c.14,0,.8-11.53,1.48-25.78s1.12-25.81,1-25.81-.81,11.53-1.49,25.79S145.11,386.83,145.25,386.83Z"/><path class="cls-3" d="M137.32,338.86c1.6-.08,3.18,1.6,3.62,3a5,5,0,0,1-2.1,5.65,4.69,4.69,0,0,1-5.81-1,5,5,0,0,1-.17-6.05,4.72,4.72,0,0,1,5.75-1.35Z"/><path class="cls-4" d="M167.4,165l-5.79-15L127.06,148l-14.12,1.86-1.55,4.17L101.81,328s33.47,6.93,50.2,4.52,36.4-10.25,36.4-10.25V223.36Z"/><path class="cls-2" d="M115.4,172a1.49,1.49,0,0,0,.24.31l.75.87c.66.74,1.65,1.81,3,3.13a120.62,120.62,0,0,0,11.31,10.17l.16.13.14-.16a131.81,131.81,0,0,0,10.38-13.32l1-1.53h-.42l8.31,11.48a5.63,5.63,0,0,0,1.15,1.19,2.09,2.09,0,0,0,1.6.45,2.51,2.51,0,0,0,1.39-.81,10.82,10.82,0,0,0,1-1.14l3.28-4.21,4.71-6.11,1.25-1.67a4.4,4.4,0,0,0,.41-.6,5.1,5.1,0,0,0-.49.54l-1.32,1.61-4.83,6L155,182.53c-.59.72-1.19,1.61-2.08,1.77s-1.72-.66-2.33-1.49l-8.26-11.5-.21-.29-.2.3-1,1.52a138,138,0,0,1-10.29,13.3l.31,0a139.44,139.44,0,0,1-11.4-10c-1.32-1.29-2.34-2.34-3-3l-.8-.81C115.51,172.09,115.41,172,115.4,172Z"/><g class="cls-5"><path d="M154.87,183s-4.38,5.54-5.61,4.15-7.72-11.71-8.5-12.13-8.61,14-11.69,13-14-12.27-14-12.27l-.22-4.43,16,14.93,11.36-14.84,9.55,12.76S153.71,185.84,154.87,183Z"/></g><path class="cls-2" d="M182.33,65s9,34.68,9.82,59.22l.26,8.17s-19.94,17-36.67,18l-14-35.38Z"/><path class="cls-2" d="M93.76,86.23c3.81-16.92,5.27-36.61,19-47.63,10.17-8.19,21.76-10.47,34.67-9.92,6.36.28,13.54,3.29,19.07,6.5,7.6,4.42,10.81,13.36,14.48,21.49C188.3,73,187.37,95,182.4,101.13l-66.3,35.93c-13.23-7.07-21.53-9.89-23.64-28A67.94,67.94,0,0,1,93.76,86.23Z"/><path class="cls-6" d="M113.44,52,155.17,39.4c13.44-2,23.06,14.69,24.45,28.55,1.54,15.41,2.83,34.28,1.49,45.88-2.7,23.31-19.89,27-19.89,27s.12,9.36.12,9.36l-19,20.72-29-19.91-6.63-90.37A8.09,8.09,0,0,1,113.44,52Z"/><path class="cls-2" d="M172,89.05a3,3,0,0,1-2.68,3.11,2.77,2.77,0,0,1-3.08-2.55,3,3,0,0,1,2.67-3.12A2.8,2.8,0,0,1,172,89.05Z"/><path class="cls-2" d="M176.86,81.92c-.35.41-2.61-1.17-5.72-1s-5.34,1.82-5.69,1.44c-.17-.17.17-.88,1.13-1.66A7.87,7.87,0,0,1,171.12,79a7.51,7.51,0,0,1,4.57,1.31C176.68,81.06,177,81.75,176.86,81.92Z"/><path class="cls-2" d="M144.61,89.05a3,3,0,0,1-2.68,3.11,2.79,2.79,0,0,1-3.09-2.55,3,3,0,0,1,2.68-3.12A2.8,2.8,0,0,1,144.61,89.05Z"/><path class="cls-2" d="M146.21,82.3c-.34.4-2.61-1.17-5.72-1s-5.34,1.83-5.69,1.45c-.17-.17.17-.88,1.14-1.66a7.81,7.81,0,0,1,4.53-1.65A7.51,7.51,0,0,1,145,80.72C146,81.43,146.38,82.12,146.21,82.3Z"/><path class="cls-2" d="M158.35,103c0-.19,1.9-.61,5-1.15.79-.11,1.54-.3,1.65-.87a4.24,4.24,0,0,0-.62-2.4q-1.25-2.91-2.59-6.12c-3.61-8.72-6.25-15.9-5.91-16s3.55,6.8,7.15,15.53c.87,2.15,1.71,4.2,2.5,6.16a4.87,4.87,0,0,1,.53,3.19,2,2,0,0,1-1.26,1.24,5.34,5.34,0,0,1-1.35.25C160.32,103.12,158.37,103.22,158.35,103Z"/><path class="cls-7" d="M161.31,140.79a56.17,56.17,0,0,1-30.55-7.06s8.09,15.92,30.61,12.84Z"/><path class="cls-8" d="M148.24,110.14a4.53,4.53,0,0,1,3.68-2.25,5.78,5.78,0,0,1,5.45,2.51,3.88,3.88,0,0,1,.35,2.69c-.18.47,0,.24-.37.57a10.27,10.27,0,0,1-4.11,2.84,4.34,4.34,0,0,1-4.72-1.57A4.75,4.75,0,0,1,148.24,110.14Z"/><path class="cls-2" d="M148.7,105.75c.51,0,.67,3.42,3.67,5.75s6.59,1.78,6.63,2.27c.06.21-.77.71-2.29.82a8.31,8.31,0,0,1-5.53-1.69,7.54,7.54,0,0,1-2.85-4.83C148.13,106.63,148.47,105.75,148.7,105.75Z"/><path class="cls-2" d="M147.39,70.6c-.22.89-3.36.79-7,1.61s-6.45,2.12-7,1.39c-.25-.34.18-1.21,1.29-2.17a11.65,11.65,0,0,1,5.06-2.4,11.52,11.52,0,0,1,5.58.11C146.75,69.56,147.48,70.17,147.39,70.6Z"/><path class="cls-2" d="M176.6,73.32c-.71.63-3-.47-5.83-.93s-5.34-.3-5.79-1.14c-.19-.4.29-1.06,1.44-1.58a9.16,9.16,0,0,1,9.36,1.66C176.69,72.22,176.92,73,176.6,73.32Z"/><path class="cls-2" d="M155.31,36.9c0,.17.07.34.11.51l-.08,0Z"/><path class="cls-2" d="M122.34,149.06a3.78,3.78,0,0,0,4.74-3.07,48.65,48.65,0,0,0,.11-14.1c-.73-6.43-5-13.17-5.51-19.62-1-12.32,0-19.23,1.39-29.57C128.72,82,134,78.51,137.75,74c4.53-5.42,7.27-12.13,9.94-18.73a31.89,31.89,0,0,1-6.15,18,8.1,8.1,0,0,0,7-2.35,18.82,18.82,0,0,0,4.13-6.58,52.41,52.41,0,0,0,4-18.54,68.32,68.32,0,0,1-3,27.07c1.58-.5,3.27,0,4.91.19s3.51.2,4.67-1A6.19,6.19,0,0,0,164.62,69a71.27,71.27,0,0,0,.75-23.58,73.17,73.17,0,0,1,5.18,13.07,25.88,25.88,0,0,1,.09,13.94,2,2,0,0,0,2.81,0,5,5,0,0,0,1.23-2.91c.59-3.9-.08-7.86-.75-11.75,2.26,4.11,3,8.88,4.26,13.42s3.24,9.19,7.08,11.78a63.41,63.41,0,0,0-.57-17.79c-.76-4.86-3-9.68-5.08-14.12a42.08,42.08,0,0,0-9.15-13.08c-6.65-6-9.44-3.4-13.68-1.12l-.51.21c0-.1,0-.21,0-.31l-.19-.94A62.18,62.18,0,0,0,122.5,37.4c-8,2.67-8.75,20.37-10.7,12-1.19-5.09-7.61-.44-7.69-.3-9.45,17.49-19.46,45.23-19.92,89.07h0Z"/><g class="cls-5"><path d="M178,263.36Q187,324.5,196.12,385.62l-1.41,13.24c-1.59,1.87-4.77,1.25-6.39-.59s-2.09-4.43-2.49-6.87C178.91,349.13,175.18,306.13,178,263.36Z"/></g><path class="cls-9" d="M178.52,160.38,199,164.5a25.15,25.15,0,0,1,18.83,17.55,42.56,42.56,0,0,1,1.38,6.63c1.8,14.22,10.26,52.64,10.26,52.64s18.88,9.22,19.7,17.11-6.53,22.23-6.53,22.23-8.17,22-19,26.58c-11.87,5.05-20.14-10.13-20.14-10.13h0c-.08,1.38-.12,2.16-.12,2.16l31.07,72.14c-7.9,14.49-22.75,31.45-37.84,35.14,0,0-17.51-112.15-18.49-136.64s-16.31-119.69-16.31-119.69Z"/><path class="cls-6" d="M248.17,177.43a2.85,2.85,0,0,1,3.72,1.85c.59,1.83.72,4,1.5,7.19.45,1.86-.48,4.7-.28,6.36l.41,3.88s1.72,4.07.61,7.54c0,0,3.86,4,3.36,7.56,0,0,4.94,3.22,3.69,8.6s-15.89,21.64-15.89,21.64l-9.36,3-12-9.37s-2.72-15-2.23-21.52c.58-7.78,3.42-8.54,3.42-8.54l12.59-12.17,4.5-6.56s4.22.68,3.46,6.29l2.07-3.47v-4.24S245.33,180.58,248.17,177.43Z"/><polygon class="cls-2" points="241.68 157.74 256.52 237.97 240.93 241.92 220.85 163.12 241.68 157.74"/><path class="cls-2" d="M222.89,155.08c-5.42.55-10.47-7.36-12.67-12.47-3-6.91,1.49-13.06,6.13-16a13.37,13.37,0,0,1,15.29,1.15,15.1,15.1,0,0,1,4.61,15.13,15.62,15.62,0,0,1-11.32,11Z"/><polygon class="cls-10" points="246.98 140.14 256.17 171.97 207.72 182.37 203.91 151.99 246.98 140.14"/><g class="cls-11"><polygon class="cls-12" points="204.97 160.44 238.52 150.4 240.51 164.28 206.5 172.66 204.97 160.44"/></g><path class="cls-12" d="M210.53,143.33a19.74,19.74,0,0,0,3.87-1c2.36-.69,5.6-1.75,9.12-3.07s6.65-2.67,8.89-3.71a19.6,19.6,0,0,0,3.54-1.85,23.45,23.45,0,0,0-3.74,1.37c-2.29.91-5.44,2.16-9,3.49s-6.7,2.45-9,3.27A22,22,0,0,0,210.53,143.33Z"/><polygon class="cls-2" points="244.77 174.42 224.82 178.7 225.61 180.54 245.05 175.95 244.77 174.42"/><path class="cls-6" d="M244.28,206.21c.3.94,2.16,1.16,4.16.5s3.39-2,3.09-2.91-2.16-1.16-4.16-.5S244,205.27,244.28,206.21Z"/><path class="cls-6" d="M248.92,192.71s-12.73,6.15-16.86,12.71c-2.86,4.56,1.63,5.5,1.63,5.5s3.82-1.17,13.3-8.11a7.45,7.45,0,0,1,3.39-1.74,2,2,0,0,1,2.21.77Z"/><path class="cls-6" d="M250.84,203s-7.09-.42-15.93,13.19c-2.79,4.29,1.8,6,1.8,6s1.63.17,9.6-8.84c0,0,1.8-1.43,3.95-3,0,0,3.26.42,3.61.35Z"/><path class="cls-6" d="M252.77,210.66l2.43,9.57a10.23,10.23,0,0,1-3.4-1l-.16-.1s-6.26,3.84-6.9,3.9c0,0-3.79,1.08-5.12.48a8.14,8.14,0,0,1-1.22-2.09s7.21-6.56,7.91-8c0,0,3.19-2.43,3.92-3.15C250.23,210.27,252.26,211,252.77,210.66Z"/><path class="cls-7" d="M247,202.81a2.55,2.55,0,0,0-.44.26l-1.23.81-4.5,3c-1,.62-2,1.31-3.15,2-.58.35-1.17.7-1.79,1a5.92,5.92,0,0,1-2,.73,1.84,1.84,0,0,1-1-.12,1.42,1.42,0,0,1-.67-.73,6.49,6.49,0,0,1-.41-2.3,5.76,5.76,0,0,1,0-1.19,3.91,3.91,0,0,1,.52-1.07A13,13,0,0,1,234,203.3a59.82,59.82,0,0,1,7.67-6.1,51.27,51.27,0,0,1,6.84-4.1,2.44,2.44,0,0,1,2.67.56,8.72,8.72,0,0,1,1.5,1.75c.7,1.07,1,1.74,1,1.72a1.38,1.38,0,0,0-.17-.5,10.25,10.25,0,0,0-.69-1.33,8.1,8.1,0,0,0-1.48-1.86,3.24,3.24,0,0,0-1.29-.77,2.36,2.36,0,0,0-1.69.09,47.35,47.35,0,0,0-7,4.05,55.48,55.48,0,0,0-7.77,6.12,13.74,13.74,0,0,0-1.71,2,4.37,4.37,0,0,0-.59,1.23,6.15,6.15,0,0,0,0,1.34,6.82,6.82,0,0,0,.48,2.51,1.91,1.91,0,0,0,.91.95,2.33,2.33,0,0,0,1.24.15,6.35,6.35,0,0,0,2.12-.8c.64-.35,1.23-.71,1.8-1.07,1.15-.71,2.19-1.42,3.13-2.06,1.89-1.3,3.39-2.39,4.42-3.15l1.18-.9C246.87,202.94,247,202.83,247,202.81Z"/><path class="cls-7" d="M253.63,210.86a4.11,4.11,0,0,0-.86-.2l-2.45-.41h0l0,0-3.91,2.9h0v0c-1.6,1.73-3.52,3.76-5.73,5.89-.55.53-1.13,1.06-1.74,1.57a5.26,5.26,0,0,1-2,1.23,1.82,1.82,0,0,1-1.94-.8,5.24,5.24,0,0,1-.92-2.31,1.85,1.85,0,0,1,.29-1.16,12.25,12.25,0,0,1,.67-1.15c.48-.73,1-1.44,1.52-2.13,1.06-1.36,2.14-2.62,3.19-3.81a61.59,61.59,0,0,1,5.92-5.95,6.69,6.69,0,0,1,2.72-1.5,4.75,4.75,0,0,1,2.33,0,7,7,0,0,1,1.86.84,1.59,1.59,0,0,0-.41-.36,5.1,5.1,0,0,0-1.39-.68,4.78,4.78,0,0,0-2.45-.11,6.68,6.68,0,0,0-2.89,1.49,59.68,59.68,0,0,0-6,5.91c-1.06,1.19-2.15,2.45-3.22,3.83-.54.69-1.07,1.4-1.56,2.16a11.61,11.61,0,0,0-.7,1.19,2.47,2.47,0,0,0-.35,1.48,6,6,0,0,0,1,2.55,2.81,2.81,0,0,0,1.08.88,2.06,2.06,0,0,0,1.38.09,5.6,5.6,0,0,0,2.15-1.33c.62-.53,1.2-1.07,1.75-1.61,2.22-2.16,4.1-4.22,5.68-6l0,0,3.84-3-.1,0,2.47.3A4.83,4.83,0,0,0,253.63,210.86Z"/><path class="cls-7" d="M238.25,221.12a3.21,3.21,0,0,0,.23.86,9.16,9.16,0,0,0,.38,1,1.77,1.77,0,0,0,1.17.86,9.1,9.1,0,0,0,3.59-.17,19.69,19.69,0,0,0,4-1.84c1.6-.91,3.06-1.83,4.31-2.67l-.28,0,.28.29,0,0a2.14,2.14,0,0,0,1.14.72,7.25,7.25,0,0,0,1.11.25,13.78,13.78,0,0,0,1.8.11,3.68,3.68,0,0,0,1.56-.18,2.31,2.31,0,0,0-.41,0L256,220.2a13.56,13.56,0,0,1-1.76-.22,6,6,0,0,1-1-.27,1.72,1.72,0,0,1-.89-.57l0,0h0l-.28-.29-.12-.14-.16.11c-1.26.79-2.74,1.7-4.32,2.6a20.48,20.48,0,0,1-3.85,1.83,9.69,9.69,0,0,1-3.4.28,1.53,1.53,0,0,1-1-.65,10.14,10.14,0,0,1-.43-.92A2.76,2.76,0,0,0,238.25,221.12Z"/><path class="cls-6" d="M223.47,231.7l21,10.58-.93,20.15s-15,2-28.31-15.37Z"/><path class="cls-6" d="M230.6,200.58s5.12-6.5,4.77-10.44a7.64,7.64,0,0,0-1.92-4.83s-3.78,3.46-5.81,5.55c0,0-4.6,3.94-5.35,5.91,0,0-2.33,5.18-.47,16.35Z"/><path class="cls-2" d="M234.48,371.41a1.59,1.59,0,0,0-.13-.37c-.1-.26-.25-.61-.43-1.06l-1.72-4.11c-1.53-3.58-3.73-8.76-6.47-15.21-5.55-12.93-13.29-31-22.09-51.5l0,.12c.16-5.53.36-11.29.63-17.17.6-13.24,1.31-25.86,1.78-37.34s.76-21.84.85-30.53,0-15.73,0-20.59c0-2.41-.1-4.29-.12-5.59,0-.63,0-1.11,0-1.46s0-.5,0-.5a4.79,4.79,0,0,0,0,.5c0,.35,0,.83,0,1.46,0,1.3,0,3.18,0,5.59,0,4.86,0,11.9-.12,20.58s-.45,19-1,30.51-1.17,24.1-1.82,37.35c-.27,5.88-.46,11.64-.62,17.17v.06l0,.05,22.25,51.43c2.8,6.42,5,11.58,6.6,15.15l1.8,4.06c.21.45.36.8.48,1.05S234.48,371.41,234.48,371.41Z"/><path class="cls-2" d="M179.26,257.77a.91.91,0,0,0,.09-.26l.19-.78c.16-.73.39-1.74.68-3,.53-2.62,1.28-6.44,2-11.19s1.38-10.43,1.92-16.76,1-13.31,1.31-20.62q.18-4.11.35-8c.06-1.31.11-2.61.17-3.88l.09-1.91,0-.94v-.49c0-.07,0-.16,0-.25a1,1,0,0,0-.05-.17.21.21,0,0,0-.06-.1c0-.08-.23-.12-.27-.08s-.13.11-.18.15l.35-.07-5.48-3.93,0,.41,6-2.87.16-.07,0-.18c-.9-3.48-2-6.57-2.91-9.3s-1.83-5.09-2.56-7-1.32-3.44-1.74-4.47l-.48-1.16a2,2,0,0,0-.19-.39,2.68,2.68,0,0,0,.13.42c.11.3.25.69.42,1.19.4,1.07.94,2.58,1.63,4.5s1.54,4.31,2.46,7,2,5.84,2.83,9.29l.11-.25-6,2.83-.36.17.32.23,5.47,4,.35-.08s-.17-.13-.16-.13,0,0,0,0a.14.14,0,0,1-.1.05l-.08,0h0v0l0,.2v.46l0,.93c0,.63-.06,1.27-.1,1.9,0,1.28-.11,2.57-.17,3.88-.11,2.62-.23,5.31-.35,8-.34,7.32-.76,14.28-1.27,20.6s-1.16,12-1.82,16.75S180.49,251,180,253.67c-.25,1.29-.44,2.3-.59,3-.05.32-.1.58-.14.79Z"/><path class="cls-2" d="M205.91,248.73c.09,0,.13-.9.61-2.25a9.19,9.19,0,0,1,3.22-4.35,8.85,8.85,0,0,1,5.07-1.62c1.4,0,2.25.27,2.27.18a4.62,4.62,0,0,0-2.26-.55,8.53,8.53,0,0,0-5.38,1.56,8.92,8.92,0,0,0-3.26,4.66A5.13,5.13,0,0,0,205.91,248.73Z"/><path class="cls-2" d="M213.23,243.77a10.56,10.56,0,0,0,.73,1.49,14.33,14.33,0,0,0,1,1.66,22.28,22.28,0,0,0,1.47,2.11l.92,1.17c.32.41.7.79,1.08,1.21A35.25,35.25,0,0,0,221,253.9a38.4,38.4,0,0,0,6.67,4.62,37.31,37.31,0,0,0,7.52,3,33,33,0,0,0,3.45.7c.54.08,1.07.18,1.58.22l1.46.1a24.07,24.07,0,0,0,2.52,0,15.89,15.89,0,0,0,1.9-.13,10.59,10.59,0,0,0,1.61-.24c0-.13-2.31.24-6,0l-1.44-.13c-.51-.05-1-.16-1.56-.24-1.08-.15-2.2-.45-3.39-.74a39.3,39.3,0,0,1-7.4-2.95,38.8,38.8,0,0,1-6.6-4.53,33.1,33.1,0,0,1-2.54-2.43c-.37-.4-.76-.77-1.09-1.17l-.93-1.13C214.36,245.84,213.33,243.7,213.23,243.77Z"/><path class="cls-7" d="M236,222c-.15,0-.08,2.07-.76,4.47s-1.76,4.11-1.63,4.2a8.63,8.63,0,0,0,2.12-4.06A8.93,8.93,0,0,0,236,222Z"/><path class="cls-9" d="M83.07,311.53,63.18,174.14,99.9,160.32s8.59-8.11,13.18-12.32l1.61,21.24s5,86.87-2.85,130.62-6.71,42.27-12.43,70.73c-4.17,20.71-4.85,38.8-11.12,40.63s-27.95-30.79-27.95-30.79Z"/><path class="cls-13" d="M188.38,211.73a1.47,1.47,0,0,1,0,2.94,1.47,1.47,0,0,1,0-2.94Z"/><polygon class="cls-14" points="178.58 214.68 178.58 204.61 186.47 204.61 186.47 206.99 181.28 206.99 181.28 208.51 186.47 208.51 186.47 210.71 181.28 210.71 181.28 212.31 186.47 212.31 186.47 214.68 178.58 214.68"/><polygon class="cls-15" points="189.8 210.71 187.12 207.95 187.12 204.61 188.91 204.61 193.69 209.93 193.69 207.95 196.37 210.71 196.37 214.68 194.96 214.68 189.8 209.16 189.8 210.71"/><path class="cls-14" d="M197.84,207.06h-4.15v-2.45h9.8v2.45h-2.94v5.67c0,1.09-1.23,2-2.71,2Z"/><path class="cls-9" d="M63.18,174.14s-11.13,5.6-12.8,21.55c-1.47,14-3.87,100.2-3.58,107.15s6.14,26.59,16.63,27.28c16.55,1.08,21.11-12,21.11-12l-4.45-44Z"/><path class="cls-2" d="M105.28,253.12a.86.86,0,0,0,0-.26c0-.2-.08-.44-.13-.75-.14-.7-.32-1.66-.56-2.87-.44-2.5-1.12-6.12-1.74-10.62-1.31-9-2.42-21.52-3.07-35.39-.15-3.26-.29-6.45-.44-9.54-.06-1.55-.13-3.07-.2-4.55,0-.75-.07-1.48-.11-2.21,0-.36,0-.72,0-1.08v-.53c0-.08,0-.17,0-.24a.55.55,0,0,1,0-.09s0,0,0,0l0,0a.3.3,0,0,1-.15.05c-.06,0-.16-.07-.14-.06v0l.34.08,5.47-4,.31-.23-.35-.16-6-2.83.11.23a72.58,72.58,0,0,0,1.21-7.47c.28-2.21.55-4.11.85-5.65a35.2,35.2,0,0,1,.85-3.51c.11-.37.21-.67.28-.9a1,1,0,0,0,.08-.32s0,.1-.13.29-.21.5-.34.89a26.7,26.7,0,0,0-1,3.5c-.34,1.54-.64,3.45-.94,5.66s-.64,4.72-1.29,7.42l0,.16.15.07,6,2.87,0-.39-5.49,3.92.34.08-.06-.07a.23.23,0,0,0-.36,0l-.06.06a.29.29,0,0,0,0,.09.86.86,0,0,0,0,.18c0,.11,0,.2,0,.29v.55c0,.36,0,.73,0,1.09,0,.73.07,1.47.11,2.21.06,1.48.12,3,.18,4.55.14,3.09.29,6.28.44,9.55a345,345,0,0,0,3.22,35.41c.67,4.5,1.39,8.12,1.9,10.61.27,1.21.49,2.16.65,2.86.07.3.13.54.18.73A1.26,1.26,0,0,0,105.28,253.12Z"/><g class="cls-5"><path d="M159.28,323.94s2.5,3.34-3,4.37-68-3.71-68-3.71l-11.87,7.08L78,326.56l9.9-10.84Z"/></g><path class="cls-16" d="M84.21,217.31l78.64,4.12a3.68,3.68,0,0,1,3.44,3.5l5.22,95.75a3.68,3.68,0,0,1-3.81,3.92l-76.3-4.1A3.66,3.66,0,0,1,88,317.09l-7.56-95.77A3.67,3.67,0,0,1,84.21,217.31Z"/><path class="cls-2" d="M67.71,196.33a5.47,5.47,0,0,0,.13.86c.11.6.27,1.42.46,2.44.41,2.17,1,5.23,1.72,9,1.44,7.59,3.32,18.09,5.11,29.73s3.16,22.24,4.07,29.91c.45,3.8.81,6.89,1.06,9.09.13,1,.23,1.85.3,2.47a4.32,4.32,0,0,0,.14.85,5.68,5.68,0,0,0,0-.87c0-.61-.11-1.43-.2-2.48-.18-2.15-.48-5.26-.9-9.11-.82-7.68-2.13-18.28-3.93-29.94s-3.73-22.15-5.26-29.72c-.76-3.79-1.4-6.84-1.88-8.95-.23-1-.42-1.83-.55-2.42A5.46,5.46,0,0,0,67.71,196.33Z"/><path class="cls-6" d="M82.61,280s-4.53.27-8.54,7.15l-7.66,5s-6.71,10.82,0,20.92,14.81,1.52,14.81,1.52,8.09,4.12,10.36,3.4,17.61-9.19,19.86-11.13c.66-.58,5.6-6.41,5.6-6.41s6.85-1.5,7.63-3.11.84-5.3-3.78-5c0,0,4.5-1.38,5-3.71s0-5.35-8-4.19-23.2,5.52-25,5.07a1.14,1.14,0,0,1,.18-2.05c.57-.28,18.53-7.44,21.42-8.26,3.12-.88,3.57-8-2.88-6.31s-27.43,6.88-27.43,6.88Z"/><path class="cls-7" d="M94.45,307.39a29.15,29.15,0,0,0,3.33-1c2-.69,4.87-1.62,8-2.56s6-1.71,8.09-2.26a28.68,28.68,0,0,0,3.35-1,2.89,2.89,0,0,0-.94.11c-.59.1-1.44.26-2.5.49-2.11.46-5,1.18-8.15,2.12s-6,1.93-8,2.71c-1,.38-1.81.71-2.36,1A3,3,0,0,0,94.45,307.39Z"/><path class="cls-7" d="M91.87,298.83a5.21,5.21,0,0,0,1.18-.08c.75-.09,1.84-.23,3.18-.44,2.68-.41,6.37-1.07,10.41-1.95s7.67-1.84,10.28-2.6c1.3-.37,2.35-.69,3.07-.94a4.54,4.54,0,0,0,1.11-.42,5.62,5.62,0,0,0-1.16.23l-3.11.77c-2.63.67-6.26,1.56-10.3,2.44s-7.7,1.61-10.36,2.11l-3.15.6A6.21,6.21,0,0,0,91.87,298.83Z"/><path class="cls-7" d="M70.08,297a2.55,2.55,0,0,0,0,.85,14,14,0,0,0,.3,2.28,20.53,20.53,0,0,0,2.85,7,20.12,20.12,0,0,0,5.15,5.46,13.77,13.77,0,0,0,1.93,1.18,2.39,2.39,0,0,0,.76.32c0-.09-1-.64-2.48-1.8a22.78,22.78,0,0,1-4.94-5.44,23.22,23.22,0,0,1-2.92-6.8C70.25,298.18,70.16,297,70.08,297Z"/><path class="cls-2" d="M67.54,315.72c.07-.07-1-1.11-2.18-3.16a18.6,18.6,0,0,1-.54-17.77c1.07-2.12,2.06-3.23,2-3.29a3.54,3.54,0,0,0-.72.75,15.28,15.28,0,0,0-1.57,2.37,17.91,17.91,0,0,0,.55,18.13A15,15,0,0,0,66.78,315,3.28,3.28,0,0,0,67.54,315.72Z"/><path class="cls-2" d="M49.82,281.35c.06.09,1.29-.88,3.5-2a25.26,25.26,0,0,1,4-1.58,28,28,0,0,1,5.19-1,27.57,27.57,0,0,1,5.28.16,24.61,24.61,0,0,1,4.22.95c2.35.76,3.7,1.53,3.75,1.44a4.16,4.16,0,0,0-.93-.59,10,10,0,0,0-1.14-.57,15.49,15.49,0,0,0-1.57-.63,21.62,21.62,0,0,0-4.26-1.08,26.22,26.22,0,0,0-5.38-.2,25.59,25.59,0,0,0-5.29,1A23,23,0,0,0,53.16,279c-.57.28-1,.61-1.46.87a10.18,10.18,0,0,0-1.05.74A5.21,5.21,0,0,0,49.82,281.35Z"/><g class="cls-5"><path d="M101.22,162.06s-6.62,15.87-5.71,17.19,4.42,2.27,4.42,2.27-5.71,2.53-5.7,4.78c0,4.48,6.12,31,6.12,31l-1.51-32.39,5.48-3.94-6-2.85Z"/></g><path class="cls-17" d="M70.51,394.1A162.6,162.6,0,0,0,71,423.78S70.35,400.46,70.51,394.1Z"/><path class="cls-17" d="M76.07,333.27s-14,41-15.73,47.16L67.72,391l-6.59-10.68Z"/><path class="cls-2" d="M79.77,324.79s-16.31,13-25.95-1.63C53.82,323.16,60.39,336.54,79.77,324.79Z"/><path class="cls-2" d="M217.27,180.41s3.07,15.44,3.91,20.66C221.18,201.07,217.27,184.33,217.27,180.41Z"/><path class="cls-18" d="M214.72,396.22a242.73,242.73,0,0,1,1.36,27.4A93.22,93.22,0,0,0,214.72,396.22Z"/><path class="cls-18" d="M234.48,371.41S224,388.88,217.64,393.94A245.84,245.84,0,0,0,234.48,371.41Z"/><path class="cls-19" d="M247.51,255.48s6.35,1.8,2.06,9.46c0,0-14.3,28.22-24.94,39,0,0-6.52,9.7-17.08-1.39,0,0,8.58,9.71,16.68,1.06,0,0,12.79-13.86,25-38.89C249.18,264.7,253.47,258.5,247.51,255.48Z"/><polygon class="cls-9" points="185.02 203 184.35 215.97 178.07 215.97 178.07 202.87 185.02 203"/></g><g id="Layer_3" data-name="Layer 3"><g class="cls-20"><g class="cls-21"><text class="cls-22" transform="translate(-489.86 480.22)">#ENTGEN17</text></g></g></g></svg>