<svg xmlns="http://www.w3.org/2000/svg" xmlns:xlink="http://www.w3.org/1999/xlink" viewBox="0 0 283.46 425.2"><defs><style>.cls-1,.cls-17{fill:none;}.cls-2{fill:#263238;}.cls-3{fill:#13487a;}.cls-4{fill:#fbbd9d;}.cls-5{opacity:0.3;}.cls-6{fill:#ec996f;}.cls-7{fill:#f3725f;}.cls-8{fill:#455b64;}.cls-9{fill:#3e3e3d;}.cls-10{fill:#d0957b;}.cls-11,.cls-13{fill:#fff;}.cls-12{fill:#a87d32;}.cls-12,.cls-13,.cls-14{fill-rule:evenodd;}.cls-14{fill:#22b2b3;}.cls-15{clip-path:url(#clip-path);}.cls-16{clip-path:url(#clip-path-2);}.cls-17{opacity:0.1;font-size:93.52px;stroke:#fff;stroke-miterlimit:10;font-family:Poppins-Bold, Poppins;font-weight:700;}</style><clipPath id="clip-path"><rect class="cls-1" x="-1026.14" y="-85.04" width="843.09" height="1193.96"/></clipPath><clipPath id="clip-path-2"><rect class="cls-1" x="-1034.03" y="-93.17" width="850.99" height="1208.54"/></clipPath></defs><g id="Layer_1" data-name="Layer 1"><path class="cls-2" d="M248.38,425.82c.32-9.69.32-17.81-.27-22.33-.32-2.48-.72-5.18-1.17-8-1.13-7-2.57-14.81-3.92-21.72a.43.43,0,0,0,0-.12c-2.14-10.95-4-19.67-4-19.67l-.85,0h-.36l-69.14,1.05-19.62.31h-.31l-13.38.21h-.27c-.09,0-.21.23-.32.72-.08.34-.18.78-.27,1.31-.05.28-.08.55-.12.81-.1.83-.22,1.67-.32,2.49-.27,2.29-.56,5.2-.81,8.53a1.66,1.66,0,0,1,0,.22c-.13,1.57-.25,3.22-.38,4.94-.19,2.66-.37,5.49-.54,8.39-.74,13.17-1.16,27.9-.51,36.42q.23,3.09.66,6.41h116Z"/><path class="cls-2" d="M212.38,142.06l-44.32-15.92c2.89,34.6,5.72,70.05-3.48,103.53-1,3.62-1.87,8.16,1,10.57,1.72,1.44,4.18,1.48,6.43,1.42,4.6-.15,9.2-.48,13.77-1,4.86-.56,10.06-1.52,13.53-5,2.91-2.9,4.08-7.07,5.06-11.07A290.57,290.57,0,0,0,212.38,142.06Z"/><path class="cls-3" d="M139.77,284.85,145,278l3.51-18.42,8-44.81s3.52-16.86,14.39-21.69l2.31,44.78-22.18,56.26Z"/><path class="cls-3" d="M187.43,180.88l-6.53,7.73-10,4.43S149,235,148.41,235.35s-4.11,12.34-2.16,22.52a177.18,177.18,0,0,1,3.14,33.1c-.2,9.6-12.73,41.14-13.52,48.38s-3.33,35.26-3.33,35.26l110.86-.85a204.71,204.71,0,0,0-4.11-20.89s-.39-27.81-4.51-33.1c0,0,3.14-7.25,2.74-11.37s16.46-26,19.79-33.68,16.45-25.07,16.64-37.61-1.76-23.11-8-31.73-17.62-14.49-22.33-17.62L234.39,176Z"/><path class="cls-2" d="M147.91,374.61v-.34c0-.24,0-.56,0-1,0-.89.09-2.15.16-3.77.14-3.3.33-8,.58-13.88.1-2.93.2-6.14.24-9.59,0-1.72,0-3.5,0-5.33a23.92,23.92,0,0,1,.56-5.67,88.86,88.86,0,0,1,3.62-11.63,56.34,56.34,0,0,0,1.92-6.11,27.8,27.8,0,0,0,.43-3.24c.11-1.1.22-2.2.33-3.32.45-4.45.88-8.79,1.3-13q.31-3.15.63-6.18c.18-2,.46-4,.52-5.93A152.34,152.34,0,0,1,161,265.23c1.14-5.76,2.17-10.39,2.84-13.6l.77-3.7q.13-.6.21-1a2.29,2.29,0,0,1,.08-.32,2.08,2.08,0,0,1,0,.33c0,.24-.09.56-.16,1-.17.87-.4,2.12-.7,3.71-.61,3.22-1.6,7.87-2.7,13.63a157.3,157.3,0,0,0-2.69,20.38c-.06,1.95-.33,3.92-.51,5.94s-.4,4.08-.61,6.18c-.42,4.2-.85,8.55-1.3,13l-.33,3.31a26.49,26.49,0,0,1-.44,3.29,56,56,0,0,1-1.93,6.16,88.57,88.57,0,0,0-3.63,11.57,23.9,23.9,0,0,0-.58,5.58c.05,1.84.05,3.62,0,5.35,0,3.45-.18,6.66-.29,9.59-.26,5.86-.52,10.6-.72,13.88-.11,1.61-.19,2.88-.25,3.77,0,.41-.06.73-.08,1A1.73,1.73,0,0,1,147.91,374.61Z"/><path class="cls-4" d="M165.17,246.29c0-.89,3.93-16.08,12.15-28.77s10-23.78,10-23.78l.13-16.38.7,2.11,41.68-6,1.26,6-27.85,25.2s-12.88,2.5-13.42,2.86S165.17,246.29,165.17,246.29Z"/><path class="cls-2" d="M243.59,187.76a3,3,0,0,1-.36.58c-.25.37-.63.92-1.13,1.62-1,1.4-2.46,3.39-4.32,5.82s-4.14,5.28-6.58,8.5c-1.22,1.61-2.48,3.31-3.76,5.1a12.84,12.84,0,0,1-1.05,1.34,2.52,2.52,0,0,1-1.6.83,3.16,3.16,0,0,1-1.75-.49c-.51-.3-1-.63-1.48-.94-2-1.26-3.89-2.49-5.74-3.69-.92-.58-1.84-1.19-2.72-1.74a4.55,4.55,0,0,0-2.81-.82,5.62,5.62,0,0,0-2.55,1.2c-.76.57-1.5,1.16-2.28,1.63a16.7,16.7,0,0,1-11.89,2.1c-.42-.09-.8-.17-1.11-.27s-.59-.17-.8-.25A3.64,3.64,0,0,1,191,208a4.73,4.73,0,0,1,.67.18,8.09,8.09,0,0,0,.8.21,10.71,10.71,0,0,0,1.11.23,16.76,16.76,0,0,0,7.13-.3,16.05,16.05,0,0,0,4.54-1.94c.75-.47,1.47-1,2.24-1.63a6.06,6.06,0,0,1,2.74-1.29,4.87,4.87,0,0,1,3.06.87c.92.56,1.81,1.15,2.74,1.74l5.74,3.67c1,.59,1.93,1.42,3,1.37a2.13,2.13,0,0,0,1.32-.7,10.86,10.86,0,0,0,1-1.29c1.29-1.79,2.56-3.49,3.79-5.09,2.47-3.22,4.76-6,6.66-8.45s3.4-4.37,4.42-5.73l1.2-1.57A3.76,3.76,0,0,1,243.59,187.76Z"/><path class="cls-2" d="M180.9,235.57a6.55,6.55,0,0,1,.62-1.19c.42-.75,1.06-1.82,1.88-3.12,1.62-2.61,4-6.15,6.83-9.9s5.59-7,7.66-9.26c1-1.15,1.89-2,2.5-2.66a7.8,7.8,0,0,1,1-.92,7.59,7.59,0,0,1-.85,1l-2.38,2.75c-2,2.32-4.72,5.59-7.56,9.32s-5.22,7.24-6.91,9.8c-.81,1.24-1.48,2.27-2,3.05A10.26,10.26,0,0,1,180.9,235.57Z"/><path class="cls-2" d="M184.5,238.78l.16,0,.47.1,1.86.39c1.61.35,4,.87,7,1.48,1.51.3,3.19.63,5,.94.92.16,1.87.3,2.88.45s2,.4,3.06.67c2.1.55,4.29,1.24,6.57,2,1.15.4,2.31.83,3.5,1.3.59.23,1.19.47,1.79.73l.9.39.45.22.23.12.12.08.06,0a.32.32,0,0,1,.1.19V248c-2.57,8.23-5.55,17.74-8.73,27.9v0h0a15.54,15.54,0,0,1-1.64,2.55,11.74,11.74,0,0,1-2.2,2.26,4.18,4.18,0,0,1-1,.55l-1,.35-2.06.69-4.06,1.38-7.85,2.63-.12,0-.09-.09-8.2-7.61-1.95-1.81a21.64,21.64,0,0,1-1.87-1.84,4.67,4.67,0,0,1-1.11-2.35,8.49,8.49,0,0,1,0-2.52c1.12-6.41,2.39-12,3.53-16.68s2.2-8.33,3-10.85c.38-1.24.68-2.2.89-2.88l.24-.74a1.1,1.1,0,0,1,.1-.25l-.06.26q-.08.28-.21.75c-.19.68-.47,1.65-.82,2.9-.7,2.53-1.71,6.22-2.82,10.88s-2.35,10.28-3.43,16.67a7.73,7.73,0,0,0,0,2.4,4.38,4.38,0,0,0,1,2.17A24.09,24.09,0,0,0,180,276.6l2,1.81,8.22,7.59-.21,0,7.84-2.65,4.06-1.38,2.06-.69,1-.35a3.77,3.77,0,0,0,.9-.49,11.77,11.77,0,0,0,2.12-2.17,16.82,16.82,0,0,0,1.6-2.48l0,0c3.2-10.15,6.2-19.66,8.8-27.88l.16,0a114.36,114.36,0,0,0-13.6-4.81c-1-.27-2-.51-3-.68L199,242c-1.83-.33-3.51-.68-5-1-3-.64-5.4-1.19-7-1.58l-1.84-.45-.47-.12Z"/><g class="cls-5"><path d="M185.41,335.42c-9.69-1.46-23.15-5.51-34.2-7.81-3.94-.83-7.35-1.78-11.3-2.6l-.71,2.19a132.58,132.58,0,0,1,32.22,11.49c6.13,3.14,12.2,6.8,19,7.81,7.63,1.11,15.29-1.23,22.63-3.55,4.15-1.31,8.49-2.74,11.45-5.93,2.08-2.24,3.27-5.15,4.36-8q4.33-11.36,7.58-23.09C223.29,320.67,205,338.38,185.41,335.42Z"/></g><path class="cls-3" d="M231.1,240.05l-27.85,51.21s-6.46,1.31-6.46,8.14c0,0-2.25-1.8-5.52.15-2.1,1.25-8,2.91-11.29,4.66a3.89,3.89,0,0,0-1.92,4.48l8.64,31.4s10.5,0,11.43-2.6l14.4-4.51s9.3-2.46,12.88-8.65,25.05-38.17,25.05-38.17Z"/><path class="cls-2" d="M250.46,286.16l-.19.32-.59.91L247.34,291l-8.78,13.29c-1.86,2.85-3.92,6-6.14,9.37s-4.6,7.05-7,11a16.23,16.23,0,0,1-5.11,5,29.53,29.53,0,0,1-6.82,3.24l-15.31,4.8.14-.13a2.35,2.35,0,0,1-1.1,1.12,7.76,7.76,0,0,1-1.4.57,19.46,19.46,0,0,1-3,.63,48.18,48.18,0,0,1-6.17.42h-.17l0-.15-4.88-17.72q-1.32-4.79-2.6-9.47c-.42-1.57-.88-3.07-1.26-4.67a4.12,4.12,0,0,1,2.06-4.23,83.6,83.6,0,0,1,8.6-3.47c.7-.27,1.4-.55,2.07-.87a18.19,18.19,0,0,1,2-1,4.93,4.93,0,0,1,4.41.5l-.34.16a8.36,8.36,0,0,1,1.88-5.43,9.13,9.13,0,0,1,4.76-2.9l-.14.1c8.32-15.23,15.31-28,20.22-37L229,243.73l1.52-2.75c.18-.3.31-.53.4-.7l.15-.23-.12.25-.37.71c-.34.65-.84,1.57-1.47,2.78-1.32,2.44-3.22,6-5.64,10.48l-20.07,37.08,0,.08-.1,0a8.76,8.76,0,0,0-4.53,2.77A7.94,7.94,0,0,0,197,299.4v.39l-.33-.23a4.5,4.5,0,0,0-4-.42,18.92,18.92,0,0,0-2,1c-.68.33-1.38.61-2.09.88a86.62,86.62,0,0,0-8.54,3.45,3.69,3.69,0,0,0-1.84,3.79c.36,1.5.83,3.08,1.24,4.63l2.61,9.46c1.67,6.08,3.31,12,4.87,17.72l-.2-.15a49.1,49.1,0,0,0,6.11-.42,21,21,0,0,0,2.9-.61,6.65,6.65,0,0,0,1.32-.54,2,2,0,0,0,.91-.89l0-.1.09,0,15.31-4.77a29.34,29.34,0,0,0,6.73-3.19,16,16,0,0,0,5-4.88c2.4-4,4.81-7.6,7-11l6.19-9.35c3.78-5.63,6.79-10.13,8.87-13.22,1-1.53,1.84-2.71,2.4-3.52l.62-.91A3.54,3.54,0,0,1,250.46,286.16Z"/><path class="cls-2" d="M217.94,310.81a3,3,0,0,1-.73-.34c-.45-.24-1.09-.62-1.86-1.13a36.14,36.14,0,0,1-10.14-10.13c-.5-.77-.88-1.41-1.13-1.87a3.14,3.14,0,0,1-.34-.73c.06,0,.66.94,1.73,2.42a43.77,43.77,0,0,0,4.61,5.44,46.45,46.45,0,0,0,5.44,4.62C217,310.15,218,310.75,217.94,310.81Z"/><path class="cls-2" d="M218.85,294.74a9.78,9.78,0,0,1-2.37.44A28.45,28.45,0,0,1,204.94,294a9,9,0,0,1-2.23-.92,20.38,20.38,0,0,1,2.32.63,35.5,35.5,0,0,0,11.43,1.21A21.48,21.48,0,0,1,218.85,294.74Z"/><path class="cls-2" d="M159,215.19l-.06.2c-.06.15-.13.34-.23.57-.18.5-.5,1.23-.92,2.15-.86,1.85-2.29,4.43-4.15,7.56A68.78,68.78,0,0,0,147.91,237c-.11.28-.21.57-.31.85l-.24.88c-.17.59-.33,1.19-.49,1.79a11.25,11.25,0,0,0-.39,1.85c-.11.63-.22,1.26-.32,1.9-.16,1.29-.23,2.62-.31,4v2a17.8,17.8,0,0,0,.07,2.06,130.32,130.32,0,0,0,2.14,15.45,111.43,111.43,0,0,1,1.73,12.66c.16,1.82.08,3.47.11,4.92-.12,1.44-.19,2.69-.31,3.69s-.31,1.75-.41,2.32c-.05.24-.09.43-.12.59a.64.64,0,0,1-.06.21,1.6,1.6,0,0,1,0-.22c0-.16,0-.36.07-.6l.33-2.32c.1-1,.14-2.24.23-3.68s0-3.08-.17-4.89a117.78,117.78,0,0,0-1.81-12.61,127.3,127.3,0,0,1-2.19-15.51,20.33,20.33,0,0,1-.06-2.06c0-.69,0-1.38,0-2.06.08-1.35.17-2.69.32-4l.33-1.93a12.67,12.67,0,0,1,.4-1.87c.17-.61.34-1.22.5-1.81l.26-.89c.1-.29.2-.57.31-.86a66.84,66.84,0,0,1,5.87-11.35c1.89-3.11,3.35-5.65,4.25-7.47.45-.91.79-1.62,1-2.11.1-.23.19-.41.25-.55A.58.58,0,0,1,159,215.19Z"/><path class="cls-2" d="M187.43,180.88s0,.06-.1.17-.2.3-.34.49c-.29.43-.77,1.05-1.4,1.82-1.25,1.54-3.18,3.7-5.59,6.36l-3.94,4.37c-1.39,1.59-2.9,3.29-4.3,5.22a33.89,33.89,0,0,0-5.42,14.48l-.41-.12a23.93,23.93,0,0,1,2.36-3.63c.44-.62.89-1.23,1.31-1.85.22-.31.42-.62.61-.94l.28-.47.12-.25.07-.11,0-.07s0,0,0-.08a.27.27,0,0,1,.23-.08.28.28,0,0,1,.18.14l0,0,0,.06,0,.14.1.26a2.85,2.85,0,0,1,.18.54,7.22,7.22,0,0,1,.24,1.1,11.78,11.78,0,0,1,.14,2.21,44.49,44.49,0,0,1-1.37,8.22c-1,5.22-2.77,9.69-3.83,13.53a34.55,34.55,0,0,0-1.55,9.28c0,1.12.06,2,.11,2.56,0,.28.06.5.08.67a.58.58,0,0,1,0,.23,15.57,15.57,0,0,1-.37-3.46,33.73,33.73,0,0,1,1.42-9.37c1-3.87,2.79-8.32,3.74-13.53a45.65,45.65,0,0,0,1.34-8.14,11.74,11.74,0,0,0-.15-2.13,6.58,6.58,0,0,0-.23-1.05A5,5,0,0,0,171,207l-.1-.25-.05-.13,0-.07h0c.07,0-.16.06.16-.08,0,0,0,0,0,0h0c-.14-.07.2.09.16.09h0l0,.07-.06.13-.13.25-.29.49c-.19.33-.4.64-.62,1-.42.63-.87,1.24-1.32,1.85a23.82,23.82,0,0,0-2.32,3.57l-.62,1.3.21-1.43a34.12,34.12,0,0,1,5.53-14.65c1.44-1.94,2.95-3.64,4.37-5.22s2.76-3,4-4.34c2.45-2.63,4.4-4.75,5.69-6.27.65-.75,1.14-1.34,1.46-1.75l.36-.47Z"/><path class="cls-2" d="M189.17,300.31s.11.08.29.29l.78.87a16.61,16.61,0,0,1,1.16,1.45c.43.58.95,1.22,1.43,2s1,1.59,1.55,2.54,1,2,1.56,3.05a42.07,42.07,0,0,1,3.72,15.17c0,1.21.09,2.35,0,3.42a29.56,29.56,0,0,1-.2,3c-.07.91-.23,1.72-.34,2.43a15.18,15.18,0,0,1-.37,1.82l-.28,1.14c-.07.25-.11.39-.13.38a1.72,1.72,0,0,1,0-.4c.06-.32.13-.7.21-1.16s.21-1.1.29-1.82.23-1.52.27-2.42.15-1.89.15-2.95,0-2.21-.07-3.4a48,48,0,0,0-1.17-7.68,46.69,46.69,0,0,0-2.52-7.34c-.51-1.08-1-2.13-1.5-3s-1-1.79-1.5-2.56-.95-1.43-1.36-2a18.43,18.43,0,0,0-1.1-1.48l-.72-.93A1.66,1.66,0,0,1,189.17,300.31Z"/><path class="cls-2" d="M215.74,254.73a7.37,7.37,0,0,1-1.27-.42l-3.41-1.26c-2.88-1-6.9-2.37-11.42-3.57s-8.67-2-11.69-2.57l-3.58-.6a9.3,9.3,0,0,1-1.31-.25,7.73,7.73,0,0,1,1.33.08c.86.08,2.09.25,3.61.47a110.61,110.61,0,0,1,11.75,2.45,112.55,112.55,0,0,1,11.42,3.7c1.44.56,2.58,1,3.37,1.39A8.22,8.22,0,0,1,215.74,254.73Z"/><g class="cls-5"><path d="M211.21,313.75a11.64,11.64,0,0,0-2.36-3l-12-12.23,0,.9c2.67,1.82,3.24,5.49,4,8.64s1.44,6.49,3.63,8.87a5.76,5.76,0,0,0,3.32,1.92,3.49,3.49,0,0,0,3.42-1.4A3.87,3.87,0,0,0,211.21,313.75Z"/></g><g class="cls-5"><path d="M194.69,284.73a5.53,5.53,0,0,1-7.21-1.35l-10-9.11c2.86,4.21,5.15,8.47,8,12.68a6.63,6.63,0,0,0,2.9,2.8,6.13,6.13,0,0,0,4.19-.45,35.66,35.66,0,0,0,12.75-8.42Z"/></g><g class="cls-5"><path d="M182.13,233.05c9.35-4.48,12.71-16.91,22-21.55A16.71,16.71,0,0,1,221,212.86c1.61,1.16,3.39,2.7,5.29,2.16,1.44-.42,2.27-1.88,3-3.21l7-13.64L227,208.93a5,5,0,0,1-2.36,1.84c-1.84.48-3.17-1.59-4.87-2.43-5.3-2.65-9-6-12-3.73,0,0-5.14,3.54-7.21,3.91L182.13,232.7Z"/></g><g class="cls-5"><path d="M166.22,242.15a21.74,21.74,0,0,1,1.84-12.49c1.7-3.83,3.83-7.51,4.88-11.57a23,23,0,0,0,.34-9.93,12,12,0,0,1-.4-4.64,8.8,8.8,0,0,1,1.26-2.71,60.7,60.7,0,0,1,7.29-9.45l5.84-8.79s.25,10.21.06,11.17a64.15,64.15,0,0,1-2.55,8.9,70.27,70.27,0,0,1-6.63,13.56,108.12,108.12,0,0,0-8.22,15.45Z"/></g><path class="cls-4" d="M203.25,204.65c-11.85-2.8-15.5-8.7-15.64-19.13l-.18-13.27s-13.12-.68-16.18-20.23a193.76,193.76,0,0,1-2-38.46c.77-11.73,12.95-32.4,24.62-31.14L226,98a6.88,6.88,0,0,1,6.14,7h0l-2.49,75.8Z"/><path class="cls-2" d="M174.26,127.93a2.51,2.51,0,0,0,2.41,2.53,2.39,2.39,0,0,0,2.59-2.25,2.51,2.51,0,0,0-2.41-2.54A2.4,2.4,0,0,0,174.26,127.93Z"/><path class="cls-2" d="M172.71,122.53c.27.24,2.24,0,4.86.61s4.41,1.81,4.72,1.71c.15,0-.1-.42-.88-.94a11.85,11.85,0,0,0-3.74-1.58,10.89,10.89,0,0,0-3.91-.28C172.9,122.18,172.57,122.42,172.71,122.53Z"/><path class="cls-2" d="M199.37,128.68a2.51,2.51,0,0,0,2.41,2.53,2.4,2.4,0,0,0,2.59-2.25,2.5,2.5,0,0,0-2.41-2.53A2.39,2.39,0,0,0,199.37,128.68Z"/><path class="cls-2" d="M199.27,124.63c.39.09,2.12-1.24,4.95-2s5.16-.55,5.41-.81-.31-.38-1.34-.49a12.73,12.73,0,0,0-4.4.42,11.27,11.27,0,0,0-3.87,1.81C199.27,124.17,199.09,124.59,199.27,124.63Z"/><path class="cls-2" d="M189.37,142.4c0-.15-1.66-.45-4.38-.8-.69-.07-1.34-.21-1.46-.68a3.49,3.49,0,0,1,.47-2c.65-1.67,1.33-3.41,2.05-5.24,2.84-7.46,4.9-13.6,4.6-13.71s-2.85,5.85-5.7,13.3c-.68,1.84-1.34,3.6-2,5.27a4,4,0,0,0-.36,2.71,1.74,1.74,0,0,0,1.13,1,4.36,4.36,0,0,0,1.17.16C187.66,142.54,189.36,142.55,189.37,142.4Z"/><path class="cls-6" d="M187.43,172.44a49.7,49.7,0,0,0,26.19-6.92s-6.63,13.78-26.19,11.9Z"/><path class="cls-7" d="M189.8,149a7.21,7.21,0,0,1,5.18-3.43,3.09,3.09,0,0,1,3,1.69,4.9,4.9,0,0,1-.43,4.49,4.15,4.15,0,0,1-4.09,2,7,7,0,0,1-3.38-2.2,2.43,2.43,0,0,1-.68-1,1.67,1.67,0,0,1,.21-1.41Z"/><path class="cls-2" d="M197.3,144.28c-.44,0-.45,2.9-3,5s-5.63,1.74-5.65,2.15c0,.18.69.57,2,.61a7.34,7.34,0,0,0,4.72-1.63,6.36,6.36,0,0,0,2.29-4.17C197.82,145,197.5,144.27,197.3,144.28Z"/><path class="cls-2" d="M197.07,112.83c.34.71,3,.1,6.17.17s5.82.67,6.18,0c.15-.34-.36-1-1.46-1.58a10.09,10.09,0,0,0-4.68-1.14,10.29,10.29,0,0,0-4.72,1C197.45,111.87,196.93,112.5,197.07,112.83Z"/><path class="cls-2" d="M171.88,116.59c.59.61,2.9,0,5.68-.07s5.12.4,5.66-.24c.24-.31-.13-.92-1.16-1.5a9.47,9.47,0,0,0-4.61-1,9.34,9.34,0,0,0-4.53,1.24C171.94,115.66,171.62,116.29,171.88,116.59Z"/><path class="cls-2" d="M260.17,186.49c-4.27-6.89-7.75-24.05-9.23-32.75s-6.09-36.59-13.5-51.25S221.3,81.9,212.73,79.6a19.69,19.69,0,0,0-18.86,4.28c-3.86,3.46-5.18,13.53-5.18,13.53s20.66,4.59,27.62,16.37c8,13.53,9.93,20.34,9.93,20.34l2.58,7.4s-2.42,14.33-3.31,21.41.53,13.67,6.36,16.54l11.72,8.29s15.33,10.41,16,11c3.27,2.5,9.68,12,9.68,12S268.87,200.57,260.17,186.49Z"/><path class="cls-2" d="M188.1,97.53s-11.81-1.28-16.18,12.07c-2,6-3.48,23.46-3.48,23.46s-1.72-13.83-1.09-21.74S171.93,93.43,178,87.9c5.89-5.38,10.85-7.9,21.38-7.26a16.92,16.92,0,0,0-7.6,5.68C190.42,88.32,189.84,90,188.1,97.53Z"/><path class="cls-4" d="M226.09,135.15c.22-4.32,4.93-7.21,8.68-5,2.06,1.19,3.63,3.58,3.44,8.17-.5,12.25-12.69,9.21-12.7,8.86S225.84,140.22,226.09,135.15Z"/><path class="cls-6" d="M229.44,142.66c.06,0,.21.15.56.34a2.15,2.15,0,0,0,1.6.09c1.31-.42,2.48-2.43,2.64-4.63a7.14,7.14,0,0,0-.48-3.08,2.45,2.45,0,0,0-1.53-1.7,1.09,1.09,0,0,0-1.29.53c-.18.33-.11.58-.17.6s-.26-.22-.14-.72a1.42,1.42,0,0,1,.51-.75,1.66,1.66,0,0,1,1.2-.26,3,3,0,0,1,2.15,2,7.29,7.29,0,0,1,.6,3.45c-.18,2.46-1.54,4.72-3.33,5.16a2.27,2.27,0,0,1-1.94-.41C229.45,143,229.4,142.68,229.44,142.66Z"/><path class="cls-8" d="M207.83,78.83c0,.09-1.68,0-4.34.39A15.07,15.07,0,0,0,199,80.55a14.7,14.7,0,0,0-4.49,3.5,22.77,22.77,0,0,0-5,9.09c-.71,2.6-.8,4.28-.88,4.27a4.81,4.81,0,0,1,0-1.18,22.35,22.35,0,0,1,.54-3.16,21.81,21.81,0,0,1,4.94-9.31,14.92,14.92,0,0,1,4.63-3.57,14.4,14.4,0,0,1,4.61-1.27,24,24,0,0,1,3.2-.16A4.8,4.8,0,0,1,207.83,78.83Z"/><path class="cls-8" d="M237.43,144s0-.06,0-.2.06-.34.1-.57.12-.57.19-.93.11-.8.18-1.27a29.43,29.43,0,0,0-4.35-19.47,33.11,33.11,0,0,0-10.74-10.1,61.33,61.33,0,0,0-6.84-3.57c-2.27-1-4.54-1.86-6.65-2.82a79.25,79.25,0,0,1-10.67-6c-2.91-1.93-5.17-3.62-6.7-4.82-.77-.6-1.36-1.07-1.75-1.4l-.44-.38-.15-.14s.07,0,.17.1l.47.35c.44.33,1,.77,1.8,1.34,1.56,1.15,3.85,2.8,6.76,4.69a82.9,82.9,0,0,0,10.67,5.89c2.09.93,4.38,1.74,6.66,2.79a59.69,59.69,0,0,1,6.89,3.59,33.11,33.11,0,0,1,10.86,10.25,29.21,29.21,0,0,1,4.21,11.46,28.11,28.11,0,0,1,0,8.25c-.08.48-.16.9-.22,1.28s-.17.66-.23.92l-.15.56C237.46,143.94,237.44,144,237.43,144Z"/><path class="cls-8" d="M240.26,139.38a1.57,1.57,0,0,1,0-.2c0-.16,0-.35,0-.59,0-.51.05-1.27,0-2.24a46.87,46.87,0,0,0-.79-8.21,47.9,47.9,0,0,0-3.79-11.59,46.22,46.22,0,0,0-8.56-12.19,54.26,54.26,0,0,0-12-8.9c-4-2.29-7.77-4.06-10.91-5.59s-5.69-2.77-7.42-3.69c-.86-.45-1.53-.82-2-1.07l-.51-.3a.62.62,0,0,1-.17-.11.7.7,0,0,1,.19.07l.53.26,2,1c1.75.87,4.3,2.08,7.47,3.56s6.94,3.24,11,5.52a53.38,53.38,0,0,1,12.09,8.94,45.74,45.74,0,0,1,8.61,12.33,47.24,47.24,0,0,1,3.73,11.71,43.32,43.32,0,0,1,.66,8.26c0,1-.09,1.74-.12,2.25,0,.23,0,.42-.05.58A.55.55,0,0,1,240.26,139.38Z"/><path class="cls-8" d="M239.91,185.15s-.08-.12-.19-.37-.28-.66-.46-1.09-.43-1.06-.65-1.76-.51-1.48-.73-2.38c-.12-.44-.24-.91-.37-1.39s-.22-1-.34-1.53c-.24-1.06-.4-2.21-.59-3.41a72.42,72.42,0,0,1-.6-7.9,124.46,124.46,0,0,1,.71-14.34c.19-1.83.36-3.31.49-4.33.07-.46.12-.85.17-1.17a2,2,0,0,1,.08-.41,1.16,1.16,0,0,1,0,.42c0,.32-.05.71-.08,1.18-.09,1.09-.2,2.56-.35,4.34-.29,3.65-.68,8.71-.59,14.3.06,2.8.27,5.46.56,7.86.19,1.19.33,2.33.56,3.38.11.53.19,1,.31,1.53s.23.95.34,1.4c.2.89.46,1.68.66,2.37s.4,1.3.58,1.78l.38,1.12A2.43,2.43,0,0,1,239.91,185.15Z"/><path class="cls-4" d="M85,297.56S98.3,314.63,103.06,316s22.84,5.81,22.84,5.81l59.29,13.71-7-25.41-56.14-.77Z"/><path class="cls-9" d="M8.76,210.63c4.44,11,26.84,61.44,32,73.11a5.86,5.86,0,0,0,3.6,3.22l70.47,22.37,69.92,5.22v-2.3l-56.53-17.13L110.4,293,83.74,226.91a9.53,9.53,0,0,0-7.12-5.81L10.16,208.92A1.26,1.26,0,0,0,8.76,210.63Z"/><path class="cls-2" d="M184.78,312.25h-.22l-.65-.05-2.49-.23-9.17-.92-13.59-1.41L142,308c-5.9-.59-11.53-1-16.67-1.32l-7.29-.46a13.45,13.45,0,0,1-1.69-.21,3.94,3.94,0,0,1-.82-.27,1.42,1.42,0,0,1-.64-.62,28.83,28.83,0,0,1-1.15-2.85l-3.26-8.62-.86-2.35-.22-.61-.06-.22a1,1,0,0,1,.1.2c.07.16.15.36.26.6l.94,2.32,3.39,8.57a28.79,28.79,0,0,0,1.15,2.79,1.05,1.05,0,0,0,.5.48,2.91,2.91,0,0,0,.74.23,12.4,12.4,0,0,0,1.65.2c2.27.1,4.72.27,7.28.42,5.14.27,10.79.7,16.7,1.28l16.64,1.71,13.58,1.51,9.15,1.06,2.49.3.64.09C184.71,312.23,184.79,312.24,184.78,312.25Z"/><path class="cls-4" d="M148.65,298.74s1-6.65,0-7.95-8.14-7.72-8.14-7.72l-4-3.79-8.92-1.37a2.74,2.74,0,0,0-2.72,1.25l-.91,1.47-2.41-.41-2.14-3.08h-5.94l-4.39,4.75v6.41s.59,1.78,2.14.47,1.63-4.92,1.63-4.92l2.64,2.43-2.8,8.55s2,1.78,3.39,0,3.45-4.4,3.45-4.4,2.37,6.41,6.41,8.31,13.77,3.64,15.79,3.19S148.27,302.3,148.65,298.74Z"/><path class="cls-10" d="M134.55,284.17s0,.1-.16.24a1.87,1.87,0,0,1-.7.45,3.54,3.54,0,0,1-1.29.17c-.52,0-1.08-.12-1.7-.18a3,3,0,0,0-1.88.3,8.27,8.27,0,0,0-1.56,1.68,7,7,0,0,1-4.76,2.58,4.5,4.5,0,0,1-4-1.84l-.08-.14.11-.12a45.76,45.76,0,0,0,4.31-5.26c1-1.37,1.48-2.22,1.53-2.19a2.83,2.83,0,0,1-.31.64c-.21.41-.55,1-1,1.7a38.82,38.82,0,0,1-4.22,5.4l0-.26a4.1,4.1,0,0,0,3.61,1.64,6.76,6.76,0,0,0,4.48-2.42,8.56,8.56,0,0,1,1.68-1.72,3.25,3.25,0,0,1,2.1-.3c.63.09,1.18.22,1.66.25a3.64,3.64,0,0,0,1.24-.09A2.47,2.47,0,0,0,134.55,284.17Z"/><path class="cls-10" d="M141.54,298.4s-.1-.38-.36-1a9.85,9.85,0,0,0-1.54-2.44c-.78-.95-1.83-2-2.8-3.35a7.33,7.33,0,0,1-1.1-2.38,5.66,5.66,0,0,1,0-2.83,7,7,0,0,1,1.28-2.53,3,3,0,0,1,1.07-.9,1.61,1.61,0,0,1,1.39,0,3.25,3.25,0,0,1,1.42,1.95,8.74,8.74,0,0,0,.79,1.82,7.82,7.82,0,0,0,1.89,2.16c.54.42.88.61.86.64a3,3,0,0,1-1-.5,7.16,7.16,0,0,1-2.05-2.14,8.33,8.33,0,0,1-.87-1.85,2.91,2.91,0,0,0-1.26-1.72,1.19,1.19,0,0,0-1,0,2.69,2.69,0,0,0-.91.79,6.52,6.52,0,0,0-1.18,2.37,5.18,5.18,0,0,0-.06,2.62,6.84,6.84,0,0,0,1,2.26c.91,1.32,1.94,2.39,2.7,3.38a9,9,0,0,1,1.46,2.57,4,4,0,0,1,.19.78C141.55,298.29,141.56,298.39,141.54,298.4Z"/><path class="cls-10" d="M118.9,282a1.84,1.84,0,0,0-1.29.53,8.75,8.75,0,0,0-1.59,3.15c-.48,1.33-.9,2.56-1.25,3.43a4.42,4.42,0,0,1-.67,1.36,6.79,6.79,0,0,1,.38-1.47c.27-.89.65-2.12,1.13-3.47a7.57,7.57,0,0,1,1.8-3.23,1.64,1.64,0,0,1,1.08-.43C118.77,281.85,118.91,281.94,118.9,282Z"/><path class="cls-10" d="M119.54,281.86c0,.05-.37.13-1,.05a4.59,4.59,0,0,1-2.24-1h.28l-.55.47a18.21,18.21,0,0,1-3.23,2.46,19.49,19.49,0,0,1,3-2.79l.55-.47.14-.12.14.12a4.9,4.9,0,0,0,2,1C119.18,281.78,119.54,281.8,119.54,281.86Z"/><path class="cls-10" d="M129,297.16a4.9,4.9,0,0,1,.63-1.51,17.55,17.55,0,0,1,2.27-3.25,16.77,16.77,0,0,1,2.93-2.66,4.61,4.61,0,0,1,1.42-.82,49.25,49.25,0,0,0-4,3.77A48.45,48.45,0,0,0,129,297.16Z"/><path class="cls-2" d="M78.73,222.17s0,.07.11.21.16.39.28.66c.25.6.59,1.44,1,2.51.89,2.23,2.16,5.39,3.73,9.29,3.13,7.88,7.43,18.73,12.17,30.7s9,22.86,12.06,30.75c1.51,3.92,2.74,7.11,3.61,9.34l1,2.55c.09.28.17.49.24.66s.07.23.06.24l-.11-.22-.27-.65c-.26-.6-.6-1.44-1-2.51-.89-2.23-2.17-5.39-3.74-9.29-3.12-7.89-7.42-18.73-12.17-30.71s-9-22.85-12-30.75L80,225.62l-1-2.55-.24-.67A1.05,1.05,0,0,1,78.73,222.17Z"/><path class="cls-11" d="M63.68,253.36c1.78,2.45,1.76,5.5,0,6.81s-4.7.36-6.48-2.09-1.75-5.51.05-6.82S61.9,250.9,63.68,253.36Z"/><path class="cls-12" d="M201.34,237.87a1.24,1.24,0,1,1-1.49.91A1.24,1.24,0,0,1,201.34,237.87Z"/><polygon class="cls-13" points="192.54 238.3 194.52 230.06 201.14 231.66 200.67 233.6 196.31 232.55 196.01 233.8 200.37 234.85 199.94 236.65 195.58 235.59 195.26 236.9 199.63 237.95 199.16 239.89 192.54 238.3"/><polygon class="cls-14" points="202.74 237.32 201.03 234.52 201.68 231.79 203.19 232.16 206.15 237.47 206.54 235.85 208.25 238.65 207.47 241.9 206.29 241.61 203.04 236.05 202.74 237.32"/><path class="cls-13" d="M210.2,236l-3.48-.84.48-2,8.23,2-.48,2-2.47-.59-1.11,4.63c-.22.89-1.43,1.35-2.67,1.05Z"/><path class="cls-2" d="M167.3,195.17s-8.94,6.71-11.38,23.18C155.92,218.35,159.78,202.49,167.3,195.17Z"/><path class="cls-2" d="M139.2,327.2s-4.83,27.35-6.66,46.66C132.54,373.86,139.36,330,139.2,327.2Z"/></g><g id="Layer_3" data-name="Layer 3"><g class="cls-15"><g class="cls-16"><text class="cls-17" transform="translate(-489.86 480.22)">#ENTGEN17</text></g></g></g></svg>