<svg xmlns="http://www.w3.org/2000/svg" xmlns:xlink="http://www.w3.org/1999/xlink" viewBox="0 0 283.46 425.2"><defs><style>.cls-1,.cls-19{fill:none;}.cls-2{fill:#263238;}.cls-3{fill:#fbbd9d;}.cls-4{fill:#ec996f;}.cls-5{fill:#f3725f;}.cls-6{fill:#e0e0e0;}.cls-7{fill:#455b64;}.cls-8{fill:#cdcdce;}.cls-9{fill:#13487a;}.cls-10{opacity:0.3;}.cls-11{fill:#282928;}.cls-12{fill:#a87d32;}.cls-12,.cls-13,.cls-14{fill-rule:evenodd;}.cls-13{fill:#fff;}.cls-14{fill:#22b2b3;}.cls-15{fill:#3e3e3d;}.cls-16{fill:#212526;}.cls-17{clip-path:url(#clip-path);}.cls-18{clip-path:url(#clip-path-2);}.cls-19{opacity:0.1;font-size:93.52px;stroke:#fff;stroke-miterlimit:10;font-family:Poppins-Bold, Poppins;font-weight:700;}.cls-20{fill:#2b2b2b;}</style><clipPath id="clip-path"><rect class="cls-1" x="-1026.14" y="-85.04" width="843.09" height="1193.96"/></clipPath><clipPath id="clip-path-2"><rect class="cls-1" x="-1034.03" y="-93.17" width="850.99" height="1208.54"/></clipPath></defs><g id="Layer_1" data-name="Layer 1"><path class="cls-2" d="M113,427.07c-.49-7.18-.31-18.3.17-29.37.33-7.25.78-14.47,1.25-20.55.74-9.38,1.54-16,2-15.95l7.54-.12,6.77-.11,54.67-.84,21.23-.33,14-.21H221l3.43-.06s.94,5.5,2.11,13.49c.32,2.24.67,4.68,1,7.24,1.38,10.1,2.82,22.2,3.4,32.23a113.33,113.33,0,0,1,.18,11.58c-.05.88-.1,1.88-.18,3H113Z"/><path class="cls-2" d="M142.64,83.46c-9,.2-16.77,13.62-15.43,21.19.65,3.67,2.31,7.88-.66,10.6s-9.12,2.46-11.93,5.23c0,0-3.59,3.58-3.19,8.22s-.37,10.8-4.05,12.44l18.31,6.58c1.9-1.92,2.65-4.93,4.55-6.84-2.17,2-4.27,9.16,5.53,10l6.1-5.38c16.67,4.3,34.19,9.64,47.51,2.39Z"/><path class="cls-2" d="M227.54,123.68c-1.21-3.48-3.18-6.68-4-10.26-1.79-7.69,1.82-16.46-2.05-23.35-2.76-4.9-8.48-7.22-13.88-8.78S197,78.81,193,74.94c-3-2.84-4.73-6.79-7.71-9.64C181,61.24,174.83,60,169,59.69c-6-.26-12.23.43-17.6,3.19s-9.77,7.83-10.63,13.8c-.42,2.91,0,5.95-.87,8.76-1,3.09-3.33,5.53-4.76,8.43a15.48,15.48,0,0,0,4.2,18.48L181.58,165c8.74,3.13,18.26-8,24.85-14.52S230.58,132.45,227.54,123.68Z"/><path class="cls-3" d="M140.27,105.54c1.49-12.15,10.45-26.65,22.52-24.65l37.37,11.83c3.67.61,5.64,3.55,5.34,7.26l-8.23,90.75c.09,0-.41,1-.32,1s-10.1,25.34-34.73,16c-4.88-1.85-7.1-.13-7.77-5.79h0c-1.06-.42,0,0,0-.67.09-6.89.61-21.09.61-21.09h0c.35-7.4.52-10.43.52-10.36s-15.43-3.51-17.46-24C137.14,135.61,138.62,119.05,140.27,105.54Z"/><path class="cls-2" d="M172.9,124.53a2.61,2.61,0,0,0,2.36,2.78,2.5,2.5,0,0,0,2.83-2.19,2.63,2.63,0,0,0-2.36-2.79A2.52,2.52,0,0,0,172.9,124.53Z"/><path class="cls-2" d="M146.39,122.94a2.6,2.6,0,0,0,2.35,2.78,2.5,2.5,0,0,0,2.83-2.19,2.63,2.63,0,0,0-2.35-2.79A2.5,2.5,0,0,0,146.39,122.94Z"/><path class="cls-2" d="M142.67,114.84c.28.48,2.68-1.1,5.72-.71s5,2.43,5.42,2c.19-.17-.07-1-.93-1.94a7,7,0,0,0-4.26-2.16,6.94,6.94,0,0,0-4.62,1.1C142.94,113.89,142.52,114.63,142.67,114.84Z"/><path class="cls-2" d="M170.47,117.41c.37.43,2.72-1.34,6-1.26s5.61,1.89,6,1.47c.18-.19-.18-1-1.21-1.8a7.87,7.87,0,0,0-4.76-1.7,7.66,7.66,0,0,0-4.78,1.54C170.66,116.46,170.29,117.22,170.47,117.41Z"/><path class="cls-2" d="M159.5,136.75c0-.16-1.71-.56-4.51-1.09-.71-.12-1.38-.3-1.48-.79a3.73,3.73,0,0,1,.61-2.1c.77-1.7,1.59-3.47,2.44-5.33,3.39-7.6,5.9-13.87,5.6-14s-3.31,5.91-6.71,13.51c-.83,1.88-1.61,3.66-2.36,5.38a4.15,4.15,0,0,0-.54,2.79,1.84,1.84,0,0,0,1.12,1.11,4.69,4.69,0,0,0,1.21.24C157.71,136.79,159.48,136.91,159.5,136.75Z"/><path class="cls-4" d="M155.61,169.86a51.79,51.79,0,0,0,27.64-5.67s-7.71,14.49-27.94,11.39Z"/><path class="cls-5" d="M160.28,143.59a5,5,0,0,1,4.65-1.61,4.61,4.61,0,0,1,3.08,1.89,2.92,2.92,0,0,1,0,3.36,3.38,3.38,0,0,1-3.73.71,10.32,10.32,0,0,1-3.46-2.35,3,3,0,0,1-.75-.87.93.93,0,0,1,.06-1.05Z"/><path class="cls-2" d="M167.64,139.18c-.46-.05-.64,3-3.38,5s-5.95,1.48-6,1.91c0,.19.69.64,2.06.75a7.55,7.55,0,0,0,5-1.42,6.65,6.65,0,0,0,2.63-4.2C168.14,140,167.85,139.17,167.64,139.18Z"/><path class="cls-2" d="M170.57,107.86c.23.77,3.05.58,6.32,1.17s5.88,1.65,6.35,1c.22-.32-.2-1.06-1.23-1.87a11.22,11.22,0,0,0-9.66-1.64C171.11,106.92,170.47,107.49,170.57,107.86Z"/><path class="cls-2" d="M143.54,104.72c.52.67,2.77.13,5.43.26s4.88.72,5.43.08c.25-.31-.06-1-1-1.63a8.37,8.37,0,0,0-4.36-1.31,8.26,8.26,0,0,0-4.4,1C143.65,103.75,143.31,104.39,143.54,104.72Z"/><path class="cls-2" d="M239.56,119.78c-1.92-3.55,1.79-7.51-1.16-10.79-2.69-3-9.77-3.09-12.29-6.14-2-2.37-2.06-3-2.13-5.23-.08-2.79-1.34-14.53-18.45-16.91l-2.38,10.66c-1.07-.5-2.18-.94-3.27-1.33a187.26,187.26,0,0,0-43.23-10.2c-1.78,3.06,0,7.14,2.8,9.29s6.37,3,9.7,4.14,6.76,3,8.18,6.26c1.51,3.44.36,7.57,1.7,11.08,2.3,6,10.82,7.85,13.08,13.91,1.72,4.59-.86,9.54-1.44,14.4a17.84,17.84,0,0,0,5.56,15c3.21,2.95,8.7,8.31,9.07,7.24l45.82-28.68C253.75,126.07,242.19,124.64,239.56,119.78Z"/><path class="cls-6" d="M139.05,154.54a2,2,0,0,1-.47.24,10.12,10.12,0,0,1-1.41.54,13.23,13.23,0,0,1-5.53.4,13.73,13.73,0,0,1-7.41-3.46,12.41,12.41,0,0,1-2.86-4,14.26,14.26,0,0,1-1.18-5.12,13.33,13.33,0,0,1,3.27-9.41,13.06,13.06,0,0,1,7.1-4.05,12.55,12.55,0,0,1,5.54.1,10.33,10.33,0,0,1,1.43.47,2.47,2.47,0,0,1,.48.22,2.32,2.32,0,0,1-.51-.14,12.8,12.8,0,0,0-1.44-.4,13.14,13.14,0,0,0-5.44,0,12.69,12.69,0,0,0-10,13.16,14,14,0,0,0,1.14,5,12.11,12.11,0,0,0,2.74,3.86,13.73,13.73,0,0,0,12.64,3.19c.63-.18,1.11-.33,1.43-.46A3.09,3.09,0,0,1,139.05,154.54Z"/><path class="cls-7" d="M229.68,145.35a1.52,1.52,0,0,1,.11-.31,6.84,6.84,0,0,0,.31-.92,8.18,8.18,0,0,0,.16-3.7,9.17,9.17,0,0,0-2.77-5.09,7.8,7.8,0,0,0-3.16-1.76c-1.26-.35-2.66-.47-4.07-1a5.49,5.49,0,0,1-2-1.15,5.3,5.3,0,0,1-1.32-2,11.93,11.93,0,0,1-.59-5,27.43,27.43,0,0,0,.07-5.29,6.72,6.72,0,0,0-.87-2.55,6.22,6.22,0,0,0-1.93-2,17.85,17.85,0,0,0-5.49-2,17.87,17.87,0,0,1-5.83-2.17,7,7,0,0,1-2.22-2.36,10.07,10.07,0,0,1-1.07-3.11c-.42-2.16-.42-4.38-.82-6.55a12.64,12.64,0,0,0-7.9-9.38,22.08,22.08,0,0,0-6-1,14.25,14.25,0,0,1-3-.56,6.43,6.43,0,0,1-2.58-1.52c-1.43-1.45-1.92-3.39-2.54-5.08a12.89,12.89,0,0,0-2.63-4.51,13.36,13.36,0,0,0-8.23-4.21,12,12,0,0,0-7.49,1.62,13.84,13.84,0,0,0-4.3,4,12.44,12.44,0,0,0-1.65,3.35c-.16.4-.2.72-.28.94a1.55,1.55,0,0,1-.09.32,9.18,9.18,0,0,1,.28-1.28,12.44,12.44,0,0,1,1.61-3.42,13.81,13.81,0,0,1,4.32-4.09A12.23,12.23,0,0,1,165.36,72a13.53,13.53,0,0,1,8.44,4.28,12.92,12.92,0,0,1,2.72,4.61c.64,1.7,1.14,3.58,2.48,4.93s3.35,1.78,5.33,2a22,22,0,0,1,6.13,1,13.09,13.09,0,0,1,8.16,9.69c.41,2.22.41,4.44.82,6.55a9.56,9.56,0,0,0,1,3,6.59,6.59,0,0,0,2.1,2.23c3.49,2.27,7.93,2,11.3,4.16a6.64,6.64,0,0,1,2,2.08,7,7,0,0,1,.9,2.7,27,27,0,0,1-.08,5.34,11.54,11.54,0,0,0,.55,4.84,4.84,4.84,0,0,0,3.09,3c1.36.48,2.76.61,4,1a8,8,0,0,1,3.25,1.84,9.27,9.27,0,0,1,2.76,5.23,7.92,7.92,0,0,1-.23,3.75,5,5,0,0,1-.36.91Z"/><path class="cls-3" d="M146.17,182.77,158,177.6l40.63,1.07,15.25,6.48,3.08,39.46s-57.78,20.79-58,20.79-34.39-33.9-34.39-33.9Z"/><path class="cls-8" d="M132.43,207.42a87.61,87.61,0,0,0,9.64,2.46,90.58,90.58,0,0,0,50-2.89l15.66-5.5s25.8,52.3,26.32,54.11-28.32,107.68-28.32,107.68l-81.6.46-2.31-50.82s-1.54-68.94-1.29-69.72S132.43,207.42,132.43,207.42Z"/><path class="cls-9" d="M155.13,176l-12.08,5.71c-9.18,3-23.6,8.15-28.55,13.11-7.49,7.48-19,64.07-19,64.07C91.15,255.45,88,253.74,85,256L69.48,286.27s3,24.75,9.43,27.07,19.3,2.91,19.55,2.91h11.1l-2.83,22.94,18.56-.25h3.46l-.87-30.43,4-48.66L143,214.54Z"/><path class="cls-2" d="M112.09,224.61a5.35,5.35,0,0,1,.08.95c0,.68.08,1.59.12,2.72.1,2.37.19,5.79.27,10,.14,8.47.15,20.17-.23,33.08s-1.09,24.6-1.74,33c-.32,4.22-.62,7.63-.85,10-.12,1.13-.21,2-.29,2.71a6.45,6.45,0,0,1-.13.94,5.27,5.27,0,0,1,0-.95c0-.68.1-1.58.17-2.72.16-2.43.38-5.82.67-10,.54-8.45,1.16-20.12,1.55-33s.44-24.59.4-33.05c0-4.19,0-7.6-.06-10,0-1.14,0-2,0-2.73A6.37,6.37,0,0,1,112.09,224.61Z"/><path class="cls-2" d="M109.69,277c-.09,0-.58-1.46-1.59-3.78a29.43,29.43,0,0,0-5.07-8.34c-2.84-2.51-5.63-4.71-7.66-6.17s-3.44-2.22-3.39-2.31a4,4,0,0,1,1,.43,26.65,26.65,0,0,1,2.61,1.52,71.7,71.7,0,0,1,7.86,6.11,26.78,26.78,0,0,1,5,8.59c.46,1.19.77,2.17,1,2.86A4.48,4.48,0,0,1,109.69,277Z"/><path class="cls-2" d="M111.82,220.94a29.85,29.85,0,0,1-1.68-5.79,30.54,30.54,0,0,1-1.1-5.94c.17,0,.92,2.56,1.69,5.8S112,220.9,111.82,220.94Z"/><g class="cls-10"><path d="M112.19,226.78c-.12.55-.23,1.1-.34,1.66-5.42,27.4-5.76,60.09-2.29,87.81,1,.14,4.77-85.24,2.51-88.92Z"/></g><path class="cls-9" d="M245.54,322.81c1.08,1.84,3.93,8.45,8.93,6.35s11-18.39,11-18.39V295.33s6-3.48,4.2-6.9S266,275.57,266,275.57s-4.46-46.77-7.08-57.54a38.57,38.57,0,0,0-9.83-17.49l-22.72,33L227.43,325Z"/><path class="cls-9" d="M250.36,207.21v-5.15s-13-16.93-20.92-18.66a87.13,87.13,0,0,0-16.16-1.72l-12.87-9.25-.95-.35-1.59,23.31s.56,65.64-.43,77.65-11.33,55.58-11.33,66.15h51.44l-7.77-29.66s5.27-49,5.61-50.63S250.36,207.21,250.36,207.21Z"/><path class="cls-2" d="M232.38,234.39a3.75,3.75,0,0,1,.05.69c0,.52,0,1.17,0,2,0,1.71,0,4.19,0,7.25-.1,6.12-.29,14.58-.65,23.91s-.81,17.78-1.24,23.89c-.21,3-.4,5.52-.56,7.23-.08.8-.14,1.45-.19,2a2.86,2.86,0,0,1-.11.68,3.67,3.67,0,0,1,0-.69c0-.52.05-1.17.08-2,.09-1.79.22-4.24.38-7.24.31-6.1.7-14.55,1-23.89s.61-17.7.82-23.89c.1-3,.19-5.45.25-7.24,0-.81.06-1.46.09-2A2.4,2.4,0,0,1,232.38,234.39Z"/><path class="cls-2" d="M253.22,206.8c.13.11-4.08,5.23-9.39,11.43s-9.73,11.15-9.86,11,4.08-5.23,9.4-11.44S253.09,206.69,253.22,206.8Z"/><path class="cls-2" d="M263.39,312.7a25.8,25.8,0,0,0-.95-6.94,20.9,20.9,0,0,0-3.44-6.71,19.22,19.22,0,0,0-7.13-5.76,20.11,20.11,0,0,0-9-1.91,19.71,19.71,0,0,0-7.35,1.66,24.6,24.6,0,0,0-5.87,3.8s.09-.15.3-.39.56-.57,1-1a19.18,19.18,0,0,1,4.37-2.83,19.46,19.46,0,0,1,7.51-1.82,20.13,20.13,0,0,1,9.25,1.92,19.41,19.41,0,0,1,7.32,6,20.67,20.67,0,0,1,3.41,6.93,18.72,18.72,0,0,1,.69,5.16,8.52,8.52,0,0,1-.08,1.41A1.53,1.53,0,0,1,263.39,312.7Z"/><path class="cls-2" d="M212,183.15a4.38,4.38,0,0,1,0,.82c0,.6,0,1.38,0,2.35,0,2.1-.08,5-.13,8.61-.09,7.28-.07,17.34.34,28.43.15,4.14.35,8.13.55,11.87l.07,1.12-.6-.95-9.45-15,.36,0-2.63,7.36c-.3.81-.55,1.47-.73,2a3.63,3.63,0,0,1-.3.67,3.94,3.94,0,0,1,.18-.71c.17-.51.38-1.17.64-2,.59-1.81,1.43-4.32,2.45-7.43l.14-.4.24.36c2.56,4,5.86,9.09,9.59,14.86l-.53.18c-.24-3.74-.44-7.73-.59-11.88-.42-11.1-.36-21.17-.16-28.45.09-3.65.23-6.59.33-8.62.06-1,.11-1.75.14-2.35A4.83,4.83,0,0,1,212,183.15Z"/><path class="cls-2" d="M136.07,223.75a1.78,1.78,0,0,1-.1-.51c0-.4-.09-.9-.16-1.51-.14-1.38-.32-3.28-.55-5.64l.32.1a86.41,86.41,0,0,0-10.05,14.32l-.65,1.14.11-1.31a92.25,92.25,0,0,1,1.94-12.87,91.23,91.23,0,0,1,10.15-25.06c1.72-3,3.22-5.38,4.27-7l1.24-1.85a4.37,4.37,0,0,1,.46-.63,3.66,3.66,0,0,1-.36.7l-1.14,1.91c-1,1.67-2.43,4.06-4.1,7.09a95.36,95.36,0,0,0-9.92,25,93.91,93.91,0,0,0-2,12.78l-.53-.17A81.12,81.12,0,0,1,135.3,216l.29-.32,0,.43c.15,2.36.28,4.27.37,5.66,0,.61.05,1.11.08,1.51A1.89,1.89,0,0,1,136.07,223.75Z"/><path class="cls-3" d="M60.22,188.94s2.43,7.54,4.43,12.2,4.65,8.64,4.65,14.18v14.19L48.64,238.6s-9.69-13.08-11-19.07a104.19,104.19,0,0,1-1.77-14s-2.44-8,2.66-8.65c0,0,1.33-4.65,5.75-2.66s1.11-1.1,1.11-1.1-.66-2.89,4.88-2.22c0,0,2.21.44,4.43,3.54a25.66,25.66,0,0,1,3.1,5.55s-2.44-8.2-.44-11.09S60.22,188.94,60.22,188.94Z"/><path class="cls-4" d="M56.3,224.83a3.6,3.6,0,0,1-.74-1,11.91,11.91,0,0,1-1.25-3.17,12.43,12.43,0,0,1-.15-5.07,12.71,12.71,0,0,1,5.61-8.36l-.12.33c-.83-3.3-1.51-6.16-2-8.19a21.5,21.5,0,0,1-.65-3.29,21.47,21.47,0,0,1,1,3.19c.57,2,1.33,4.86,2.19,8.14l.05.21-.18.11a12.53,12.53,0,0,0-5.38,8,12.82,12.82,0,0,0,0,4.88A18.44,18.44,0,0,0,56.3,224.83Z"/><path class="cls-3" d="M37.55,213.59a7.71,7.71,0,0,0,2.8,3.6,2.84,2.84,0,0,0,1.94.62,2.16,2.16,0,0,0,1.57-1.42,4.17,4.17,0,0,0,.08-2.19c-.49-2.57-2.16-4.73-3.77-6.78Z"/><path class="cls-4" d="M40.17,207.42A10.09,10.09,0,0,1,42,209.51a14.25,14.25,0,0,1,1.58,2.63,7.19,7.19,0,0,1,.71,3.75,2.81,2.81,0,0,1-1,1.82,2.07,2.07,0,0,1-2,.28,6.2,6.2,0,0,1-2.49-1.89,4.86,4.86,0,0,1-1.26-2.51,20.35,20.35,0,0,0,1.58,2.22,6.14,6.14,0,0,0,2.34,1.64,1.49,1.49,0,0,0,1.42-.23,2.15,2.15,0,0,0,.81-1.42,7.06,7.06,0,0,0-.63-3.43,16.47,16.47,0,0,0-1.41-2.61A16.26,16.26,0,0,1,40.17,207.42Z"/><path class="cls-3" d="M35.85,205.57c1.47,2,4.33,3.46,6.53,4.53a1.85,1.85,0,0,0,1.07.26c.79-.11,1.13-1.08,1.15-1.88a6.6,6.6,0,0,0-1.15-3.92Z"/><path class="cls-4" d="M43.45,204.56a3.84,3.84,0,0,1,1.15,2,5.58,5.58,0,0,1,.19,2.58,1.91,1.91,0,0,1-.94,1.38,2,2,0,0,1-1.76-.25,23,23,0,0,1-4.76-2.94,4.58,4.58,0,0,1-1.48-1.79c.08-.06.62.63,1.75,1.45a31.3,31.3,0,0,0,4.75,2.73c.49.25.92.42,1.24.26a1.45,1.45,0,0,0,.66-1,5.72,5.72,0,0,0-.07-2.35C43.88,205.34,43.36,204.61,43.45,204.56Z"/><path class="cls-3" d="M38.46,196.74a13.19,13.19,0,0,0,1.35,5.44,5.65,5.65,0,0,0,1.62,2.09,2.61,2.61,0,0,0,2.53.38,2.66,2.66,0,0,0,1.38-1.75,6.53,6.53,0,0,0,.13-2.29A27.34,27.34,0,0,0,44,193.45Z"/><path class="cls-4" d="M44,193.45a10.91,10.91,0,0,1,1.13,3.18,26.48,26.48,0,0,1,.62,3.62,9.13,9.13,0,0,1,0,2.22,3.37,3.37,0,0,1-1.19,2.18,2.59,2.59,0,0,1-2.48.29,3.82,3.82,0,0,1-1.78-1.43,10.89,10.89,0,0,1-1.51-3.4,10.62,10.62,0,0,1-.38-2.46,2.26,2.26,0,0,1,.06-.91c.1,0,.11,1.3.73,3.25a11.59,11.59,0,0,0,1.55,3.18,3.37,3.37,0,0,0,1.53,1.21,2,2,0,0,0,1.91-.22,2.78,2.78,0,0,0,1-1.78,9,9,0,0,0,0-2.08,28.25,28.25,0,0,0-.47-3.58C44.29,194.7,43.89,193.48,44,193.45Z"/><path class="cls-3" d="M68.48,227.08l21.51,39a84.32,84.32,0,0,1,0,16.43c-2.53,9.33-5.43,16.52-8.69,21.73L48.58,238.49Z"/><path class="cls-2" d="M88.32,258.88a11.37,11.37,0,0,1,.62,1.77c.18.57.39,1.28.58,2.12s.44,1.77.6,2.84.38,2.23.49,3.5.2,2.62.27,4A52.25,52.25,0,0,1,88,291.43c-.49,1.34-.94,2.62-1.48,3.77s-1,2.23-1.53,3.18-1,1.79-1.44,2.53a19.16,19.16,0,0,1-1.2,1.84,11.91,11.91,0,0,1-1.12,1.5,10.53,10.53,0,0,1,.92-1.62c.32-.51.71-1.14,1.1-1.89s.91-1.58,1.35-2.56,1-2,1.45-3.18.94-2.42,1.42-3.75a59,59,0,0,0,2.17-8.93,59.57,59.57,0,0,0,.64-9.15c0-1.42-.07-2.76-.21-4s-.25-2.42-.41-3.48-.35-2-.51-2.84-.32-1.55-.47-2.13A10.86,10.86,0,0,1,88.32,258.88Z"/><path class="cls-11" d="M15.68,170.64c.71.48,50,37.73,58.91,44.54a1.84,1.84,0,0,1,.55,2.24h0a1.85,1.85,0,0,1-2.74.74L13.11,175.07Z"/><polygon class="cls-6" points="13.11 175.07 15.51 176.75 18.59 173 15.68 170.64 13.11 175.07"/><path class="cls-2" d="M15.68,170.64a2.45,2.45,0,0,1-.16.3l-.46.86-1.86,3.32,0-.14,22.94,16.49,17.22,12.46,9.61,7,5,3.62,2.54,1.85,1.28.93a5.86,5.86,0,0,0,1.25.81,1.57,1.57,0,0,0,1.56-.4,1.54,1.54,0,0,0,.35-1.58,1.52,1.52,0,0,0-.47-.68l-.78-.6-1.59-1.2-6.24-4.72L54.07,200,34.13,184.81,20.65,174.5,17,171.67l-1-.75a2.4,2.4,0,0,1-.33-.28l.32.22.94.69,3.67,2.72,13.53,10.11,20.12,15.09,11.89,8.95,6.28,4.74,1.6,1.21.81.62a2,2,0,0,1,.66,1,2.15,2.15,0,0,1-2.67,2.75,6.13,6.13,0,0,1-1.43-.89l-1.27-.93L67.59,215l-5-3.64-9.6-7L35.82,191.88,13,175.15l-.08-.06,0-.08,2-3.31c.21-.33.37-.6.5-.81Z"/><path class="cls-11" d="M15.68,170.64S9.82,168.38,9,168.38c0,0-.61-.21-.1.72a8.47,8.47,0,0,0,.77,1.28L13,175.15Z"/><path class="cls-3" d="M45.64,191.93c-.71,2.31-.32,4.48.06,6.86a5.08,5.08,0,0,0,.52,1.67,1.83,1.83,0,0,0,3,.44,4.85,4.85,0,0,0,1-1.49,16.47,16.47,0,0,0,1.46-4.8Z"/><path class="cls-4" d="M51.66,194.61a7.38,7.38,0,0,1-.42,2.78,14.31,14.31,0,0,1-1.16,2.86,3.24,3.24,0,0,1-1.39,1.35,2,2,0,0,1-2.11-.26,3.14,3.14,0,0,1-1-1.81c-.15-.64-.21-1.22-.3-1.79a18.2,18.2,0,0,1-.22-3.05,5.35,5.35,0,0,1,.61-2.76c.1,0-.24,1.06-.18,2.76a21.81,21.81,0,0,0,.35,3c.22,1.09.24,2.46,1.15,3.2a1.36,1.36,0,0,0,1.49.19A2.81,2.81,0,0,0,49.6,200a15.85,15.85,0,0,0,1.22-2.7C51.39,195.65,51.56,194.59,51.66,194.61Z"/><path class="cls-9" d="M186.27,338.1s-2.49,31.76,1.36,41.29c0,0,53.72,2.61,58.7-1,0,0-4.07-21.67-9.73-42.79Z"/><path class="cls-9" d="M128.92,337.65s3.4,37,2.38,40.38c0,0,.12,1.59-7.48.34,0,0-16.21-2.27-19.15-2.16,0,0-3-.79-1.59-6.57,0,0,2.72-28,3.86-32Z"/><path class="cls-12" d="M215.09,242.83a1.3,1.3,0,0,1,1.28,1.31,1.29,1.29,0,0,1-2.58,0A1.3,1.3,0,0,1,215.09,242.83Z"/><polygon class="cls-13" points="206.27 245.33 206.35 236.52 213.44 236.58 213.41 238.66 208.75 238.62 208.74 239.95 213.41 240 213.38 241.92 208.72 241.88 208.71 243.28 213.38 243.32 213.36 245.4 206.27 245.33"/><polygon class="cls-14" points="216.38 241.95 213.99 239.51 214.02 236.59 215.63 236.6 219.88 241.31 219.89 239.57 222.28 242.01 222.25 245.48 220.98 245.47 216.39 240.59 216.38 241.95"/><path class="cls-13" d="M223.63,238.82l-3.73,0,0-2.14,8.82.08,0,2.14-2.64,0,0,5c0,.95-1.12,1.7-2.45,1.68Z"/><g class="cls-10"><path d="M101.62,335.47s-2.44,3.18,2.93,4.16,66.24-3.53,66.24-3.53l2.11-1.23,1-2.87,1.12-5.65Z"/></g><path class="cls-15" d="M176,234.57l-76.63,3.92A3.53,3.53,0,0,0,96,241.82l-5.09,91a3.54,3.54,0,0,0,3.71,3.73l74.35-3.9a3.51,3.51,0,0,0,3.33-3.24l7.37-91A3.54,3.54,0,0,0,176,234.57Z"/><path class="cls-3" d="M177.56,294.14s4.41.25,8.31,6.79l7.47,4.76s7.62,7.1,1.08,16.7S178.91,327,178.91,327s-7.89,3.91-10.09,3.23-17.16-8.73-19.35-10.58c-.65-.55-5.47-6.08-5.47-6.08s-6.67-1.43-7.43-3-.82-5,3.68-4.7c0,0-4.38-1.32-4.89-3.53s0-5.09,7.76-4,22.62,5.24,24.34,4.82a1.09,1.09,0,0,0-.17-2c-.56-.25-18.06-7.07-20.88-7.84-3-.83-3.47-7.61,2.8-6S176,294,176,294Z"/><path class="cls-4" d="M166,320.15a26.62,26.62,0,0,1-3.25-1c-2-.65-4.74-1.54-7.8-2.43s-5.85-1.63-7.88-2.15a26.7,26.7,0,0,1-3.27-.91,2.82,2.82,0,0,1,.91.1c.58.09,1.41.25,2.44.47,2.05.44,4.87,1.12,7.94,2s5.81,1.83,7.77,2.56c1,.37,1.77.69,2.31.92A3.76,3.76,0,0,1,166,320.15Z"/><path class="cls-4" d="M168.53,312a4.54,4.54,0,0,1-1.15-.07c-.74-.08-1.79-.22-3.1-.42-2.6-.38-6.2-1-10.14-1.86s-7.47-1.74-10-2.46c-1.27-.36-2.29-.66-3-.89a5,5,0,0,1-1.08-.4,5.63,5.63,0,0,1,1.13.22l3,.73c2.56.63,6.1,1.48,10,2.32s7.51,1.52,10.1,2l3.07.57A5.87,5.87,0,0,1,168.53,312Z"/><path class="cls-4" d="M189.77,310.28s0,.28,0,.8a14.67,14.67,0,0,1-.29,2.17,19.39,19.39,0,0,1-7.8,11.84,14.35,14.35,0,0,1-1.88,1.12,2.77,2.77,0,0,1-.74.3c-.05-.08,1-.6,2.41-1.71a21.24,21.24,0,0,0,7.67-11.63C189.6,311.41,189.68,310.27,189.77,310.28Z"/><path class="cls-2" d="M192.24,328.07c-.07-.06,1-1.06,2.12-3a17.26,17.26,0,0,0,.53-16.88c-1-2-2-3.07-1.93-3.13a3.49,3.49,0,0,1,.7.71,13.9,13.9,0,0,1,1.53,2.26,16.68,16.68,0,0,1-.53,17.22A14.9,14.9,0,0,1,193,327.4,3.3,3.3,0,0,1,192.24,328.07Z"/><path class="cls-2" d="M123.88,189.21s-5.41,1.94-8.78,5.15c0,0-1.1-.42-4.13,6.59a280.76,280.76,0,0,0-10.3,35s8.86-34.54,13.75-40.45C114.42,195.46,119.65,190.9,123.88,189.21Z"/><path class="cls-2" d="M71.05,295.28a43.27,43.27,0,0,0,5.62,16.21s.57,2,5.74,2.82c0,0,6.3.79,8.55,1.24,0,0-8.49-1-9.39-1.69,0,0-3.83-.68-4.61-2.7C77,311.16,73.07,306,71.05,295.28Z"/><path class="cls-2" d="M103.71,364.61s1.85-21,2.87-24.66C106.58,340,103.87,365.8,103.71,364.61Z"/><path class="cls-2" d="M84.89,256.54s1.69-3,5.74-.67C90.63,255.87,87.25,254.74,84.89,256.54Z"/><path class="cls-16" d="M71,283.54l-1.48,2.73s.81,6.05,1.57,9c0,0-1.27-7.26-1.27-8.87Z"/><path class="cls-4" d="M37.29,217.92a42,42,0,0,0,4.9,10.81l6.39,9.76,20.78,41.25L49.45,238S39.66,225.69,37.29,217.92Z"/><path class="cls-4" d="M67.11,206.44s-4-8.9-6.75-17c0,0-.45-3-2.7-1a7,7,0,0,0-1.07,2.93s2-6.25,3.55-1.86C60.14,189.49,64.86,203,67.11,206.44Z"/><path class="cls-3" d="M193.33,305.84s27.42-.17,36.57-2.32c0,0,.41-1.33,0-5.64,0,0,8.2-9.84,21.83-4.41,0,0,10.7,4.53,11.27,18.87,0,0,1.52,15.6-22.13,16.42,0,0-46.84,3.89-59-.82C181.83,327.94,193.13,314.86,193.33,305.84Z"/><path class="cls-4" d="M230.84,304.1s-1.2-.83-.86-.69,2.22,1.27,2.79,1.63a13.57,13.57,0,0,1,3.76,3.58,14,14,0,0,1,2.2,4.75,10.34,10.34,0,0,1,.28,1.57,2,2,0,0,1,0,.58c-.06,0-.16-.81-.53-2.08a15.25,15.25,0,0,0-5.86-8.19C231.55,304.5,230.81,304.16,230.84,304.1Z"/></g><g id="Layer_3" data-name="Layer 3"><g class="cls-17"><g class="cls-18"><text class="cls-19" transform="translate(-489.86 480.22)">#ENTGEN17</text></g></g><path class="cls-20" d="M185.54,209s-16.57,5-34.71,2.39C150.83,211.41,165.58,215.28,185.54,209Z"/></g></svg>