<?xml version="1.0" encoding="utf-8"?>
<!-- Generator: Adobe Illustrator 16.0.0, SVG Export Plug-In . SVG Version: 6.00 Build 0)  -->
<!DOCTYPE svg PUBLIC "-//W3C//DTD SVG 1.1//EN" "http://www.w3.org/Graphics/SVG/1.1/DTD/svg11.dtd">
<svg version="1.1" id="Layer_1" xmlns="http://www.w3.org/2000/svg" xmlns:xlink="http://www.w3.org/1999/xlink" x="0px" y="0px"
	 width="1080px" height="800px" viewBox="0 0 1080 800" enable-background="new 0 0 1080 800" xml:space="preserve">
<g>
	<path fill-rule="evenodd" clip-rule="evenodd" fill="#14477A" d="M57.452,550.668 M57.452,550.668h49.835v-14.467H74.299v-9.744
		h29.478v-13.419H74.299v-9.308h32.548v-14.476H57.452V550.668L57.452,550.668z M115.974,550.668 M115.974,550.668h49.832v-14.467
		h-32.989v-9.744h29.482v-13.419h-29.482v-9.308h32.552v-14.476h-49.395V550.668L115.974,550.668z M174.49,550.668 M174.49,550.668
		h17.022v-17.545h8.422c15.269,0,26.412-7.63,26.412-22.113v-0.176c0-13.595-10.007-21.579-25.533-21.579H174.49V550.668
		L174.49,550.668z M191.513,519.788v-16.232h7.982c6.144,0,9.832,2.81,9.832,8.074v0.175c0,4.819-3.688,7.983-9.74,7.983H191.513
		L191.513,519.788z M233.886,550.668 M233.886,550.668H251v-61.413h-17.114V550.668L233.886,550.668z M257.578,550.668
		 M286.356,551.725c14.913,0,24.827-7.461,24.827-20.004v-0.175c0-11.491-8.773-16.06-22.898-19.13
		c-8.512-1.933-10.615-3.156-10.615-5.964v-0.177c0-2.194,2.021-3.943,6.14-3.943c5.441,0,11.581,2.1,17.197,6.051l8.511-12.017
		c-6.669-5.354-14.827-8.169-25.265-8.169c-14.744,0-23.78,8.256-23.78,19.664v0.172c0,12.633,10.09,16.314,23.164,19.299
		c8.335,1.933,10.351,3.34,10.351,5.876v0.177c0,2.642-2.454,4.215-7.015,4.215c-7.107,0-13.865-2.544-19.918-7.364l-9.477,11.318
		C265.122,548.304,275.479,551.725,286.356,551.725L286.356,551.725z M343.736,550.668 M343.736,550.668h16.842v-33.685
		l26.237,33.685h14.914v-61.413h-16.847v32.458l-25.266-32.458h-15.88V550.668L343.736,550.668z M412.608,550.668 M412.608,550.668
		h49.831v-14.467h-32.984v-9.744h29.478v-13.419h-29.478v-9.308h32.548v-14.476h-49.395V550.668L412.608,550.668z M467.007,550.668
		 M487.535,551.105h14.825l12.286-35.354l12.368,35.354h14.831l20.53-61.851H544.74l-10.701,35.538l-11.848-35.714h-14.651
		l-11.843,35.714l-10.706-35.538h-17.983L487.535,551.105z"/>
	<path fill-rule="evenodd" clip-rule="evenodd" fill="#14477A" d="M562.729,550.668 M591.501,551.725
		c14.918,0,24.829-7.461,24.829-20.004v-0.175c0-11.491-8.769-16.06-22.9-19.13c-8.506-1.933-10.614-3.156-10.614-5.964v-0.177
		c0-2.194,2.021-3.943,6.145-3.943c5.44,0,11.581,2.1,17.196,6.051l8.51-12.017c-6.669-5.354-14.829-8.169-25.27-8.169
		c-14.743,0-23.778,8.256-23.778,19.664v0.172c0,12.633,10.093,16.314,23.166,19.299c8.331,1.933,10.352,3.34,10.352,5.876v0.177
		c0,2.642-2.458,4.215-7.019,4.215c-7.107,0-13.864-2.544-19.917-7.364l-9.473,11.318
		C570.268,548.304,580.624,551.725,591.501,551.725z"/>
	<path fill-rule="evenodd" clip-rule="evenodd" fill="#14477A" d="M52.537,647.617 M52.537,647.617h17.901l4.386-10.966h23.688
		l4.479,10.966h18.246l-26.145-61.855H78.685L52.537,647.617L52.537,647.617z M79.822,623.407l6.932-17.46l6.845,17.46H79.822
		L79.822,623.407z M127.201,647.617 M127.201,647.617h16.846v-33.69l26.233,33.69h14.917v-61.41h-16.846v32.457l-25.271-32.457
		h-15.879V647.617L127.201,647.617z M196.074,647.617 M196.074,647.617h23.341c22.108,0,35.005-13.156,35.005-30.877v-0.175
		c0-17.722-12.722-30.358-34.655-30.358h-23.691V647.617L196.074,647.617z M213.096,632.53v-31.235h6.933
		c10.176,0,16.933,5.704,16.933,15.535v0.175c0,9.91-6.757,15.525-16.933,15.525H213.096L213.096,632.53z M287.498,647.617
		 M287.498,647.617h16.845v-33.69l26.232,33.69h14.914v-61.41h-16.847v32.457l-25.266-32.457h-15.878V647.617L287.498,647.617z
		 M356.371,647.617 M356.371,647.617h49.836v-14.475h-32.989v-9.735h29.482v-13.428h-29.482v-9.298h32.547v-14.475h-49.394V647.617
		L356.371,647.617z M411.468,647.617 M429.894,647.617h17.021V601.12h18.425v-14.913h-53.872v14.913h18.426V647.617L429.894,647.617
		z M468.672,647.617 M489.206,648.058h14.827l12.28-35.357l12.372,35.357h14.827l20.529-61.851h-17.634l-10.702,35.537
		l-11.844-35.713h-14.651l-11.846,35.713l-10.702-35.537h-17.989L489.206,648.058z"/>
	<path fill-rule="evenodd" clip-rule="evenodd" fill="#14477A" d="M565.182,647.617 M598.17,648.852
		c18.956,0,33.164-14.3,33.164-31.935v-0.177c0-17.631-14.033-31.767-32.989-31.767c-18.95,0-33.164,14.311-33.164,31.943v0.175
		C565.182,634.728,579.221,648.852,598.17,648.852L598.17,648.852z M598.346,633.501c-9.297,0-15.705-7.732-15.705-16.584v-0.177
		c0-8.869,6.228-16.408,15.53-16.408c9.391,0,15.792,7.715,15.792,16.585v0.175C613.963,625.953,607.736,633.501,598.346,633.501
		L598.346,633.501z M640.195,647.617 M640.195,647.617h17.023v-18.594h7.28h0.176l12.374,18.594h19.653l-14.656-21.413
		c7.633-3.233,12.635-9.464,12.635-18.855v-0.175c0-6.054-1.841-10.795-5.436-14.302c-4.125-4.207-10.619-6.665-20.008-6.665
		h-29.042V647.617L640.195,647.617z M657.218,615.693v-14.751h11.143c5.704,0,9.215,2.46,9.215,7.279v0.175
		c0,4.479-3.337,7.297-9.128,7.297H657.218L657.218,615.693z M703.279,647.617 M703.279,647.617H720.3v-15.883l6.228-6.928
		l15.442,22.811h20.446l-24.04-35.003l23.249-26.407h-20.178L720.3,611.126v-24.919h-17.021V647.617L703.279,647.617z
		 M788.208,647.617 M806.633,647.617h17.021V601.12h18.426v-14.913h-53.872v14.913h18.425V647.617L806.633,647.617z
		 M849.537,647.617 M849.537,647.617h49.835v-14.475h-32.988v-9.735h29.48v-13.428h-29.48v-9.298h32.546v-14.475h-49.394V647.617
		L849.537,647.617z M903.146,647.617 M903.146,647.617h17.897l4.385-10.966h23.688l4.478,10.966h18.247l-26.145-61.855h-16.404
		L903.146,647.617L903.146,647.617z M930.433,623.407l6.928-17.46l6.845,17.46H930.433L930.433,623.407z M977.807,647.617
		 M977.807,647.617h16.67v-35.094l15.618,23.863h0.351l15.705-24.035v35.266h16.934v-61.41h-17.987l-14.651,23.772l-14.651-23.772
		h-17.987V647.617z"/>
</g>
<g>
	<path fill-rule="evenodd" clip-rule="evenodd" fill="#A97D34" d="M349.234,356.869c24.25,0,43.913,19.654,43.913,43.911
		c0,24.247-19.664,43.91-43.913,43.91c-24.251,0-43.915-19.663-43.915-43.91C305.319,376.523,324.982,356.869,349.234,356.869z"/>
	<polygon fill-rule="evenodd" clip-rule="evenodd" fill="#14477A" points="49.239,444.725 49.239,144.547 290.672,144.547 
		290.672,215.303 131.578,215.303 131.578,260.758 290.672,260.758 290.672,326.361 131.578,326.361 131.578,373.961 
		290.672,373.961 290.672,444.725 	"/>
	<polygon fill-rule="evenodd" clip-rule="evenodd" fill="#25B3B5" points="392.763,326.361 310.423,243.98 310.423,144.547 
		365.366,144.547 511.545,303.218 511.545,243.98 593.881,326.361 593.881,444.725 550.741,444.725 392.763,280.053 	"/>
	<path fill-rule="evenodd" clip-rule="evenodd" fill="#14477A" d="M638.66,217.443H511.545v-72.896h300.366v72.896h-90.054v169.096
		c0,32.469-37.808,58.186-83.197,58.186V217.443z"/>
</g>
</svg>
