<?xml version="1.0" encoding="utf-8"?>
<!-- Generator: Adobe Illustrator 16.0.0, SVG Export Plug-In . SVG Version: 6.00 Build 0)  -->
<!DOCTYPE svg PUBLIC "-//W3C//DTD SVG 1.1//EN" "http://www.w3.org/Graphics/SVG/1.1/DTD/svg11.dtd">
<svg version="1.1" id="Layer_1" xmlns="http://www.w3.org/2000/svg" xmlns:xlink="http://www.w3.org/1999/xlink" x="0px" y="0px"
	 width="1080px" height="800px" viewBox="0 0 1080 800" enable-background="new 0 0 1080 800" xml:space="preserve">
<g>
	<path fill-rule="evenodd" clip-rule="evenodd" fill="#FFFFFF" d="M60.959,552.618 M60.959,552.618h50.054v-14.53H77.882v-9.785
		h29.605v-13.478H77.882v-9.347h32.689v-14.54H60.959V552.618L60.959,552.618z M119.737,552.618 M119.737,552.618h50.052v-14.53
		h-33.135v-9.785h29.611v-13.478h-29.611v-9.347h32.695v-14.54h-49.612V552.618L119.737,552.618z M178.513,552.618 M178.513,552.618
		h17.095v-17.623h8.461c15.334,0,26.525-7.658,26.525-22.207v-0.176c0-13.654-10.049-21.674-25.643-21.674h-26.439V552.618
		L178.513,552.618z M195.608,521.607v-16.306h8.017c6.172,0,9.875,2.821,9.875,8.109v0.176c0,4.841-3.703,8.021-9.782,8.021H195.608
		L195.608,521.607z M238.169,552.618 M238.169,552.618h17.189v-61.68h-17.189V552.618L238.169,552.618z M261.964,552.618
		 M290.867,553.684c14.979,0,24.936-7.495,24.936-20.093v-0.176c0-11.542-8.81-16.13-22.999-19.213
		c-8.547-1.942-10.661-3.171-10.661-5.992v-0.176c0-2.204,2.029-3.961,6.167-3.961c5.464,0,11.632,2.108,17.271,6.078l8.548-12.069
		c-6.699-5.378-14.892-8.208-25.376-8.208c-14.806,0-23.882,8.294-23.882,19.75v0.176c0,12.688,10.134,16.386,23.263,19.38
		c8.372,1.941,10.397,3.358,10.397,5.905v0.176c0,2.651-2.464,4.235-7.045,4.235c-7.14,0-13.925-2.56-20.004-7.399l-9.519,11.369
		C269.541,550.248,279.942,553.684,290.867,553.684L290.867,553.684z M348.5,552.618 M348.5,552.618h16.915v-33.829l26.351,33.829
		h14.979v-61.68h-16.921v32.602l-25.376-32.602H348.5V552.618L348.5,552.618z M417.675,552.618 M417.675,552.618h50.05v-14.53
		h-33.13v-9.785h29.607v-13.478h-29.607v-9.347h32.69v-14.54h-49.61V552.618L417.675,552.618z M472.31,552.618 M492.929,553.06
		h14.892l12.34-35.512l12.422,35.512h14.894l20.621-62.121h-17.712l-10.749,35.694l-11.9-35.87h-14.715l-11.894,35.87
		l-10.754-35.694H472.31L492.929,553.06z"/>
	<path fill-rule="evenodd" clip-rule="evenodd" fill="#FFFFFF" d="M568.452,552.618 M597.352,553.684
		c14.984,0,24.937-7.495,24.937-20.093v-0.176c0-11.542-8.807-16.13-23.001-19.213c-8.542-1.942-10.659-3.171-10.659-5.992v-0.176
		c0-2.204,2.028-3.961,6.171-3.961c5.464,0,11.631,2.108,17.271,6.078l8.549-12.069c-6.7-5.378-14.896-8.208-25.382-8.208
		c-14.807,0-23.882,8.294-23.882,19.75v0.176c0,12.688,10.139,16.386,23.268,19.38c8.369,1.941,10.397,3.358,10.397,5.905v0.176
		c0,2.651-2.468,4.235-7.049,4.235c-7.139,0-13.925-2.56-20.005-7.399l-9.514,11.369
		C576.025,550.248,586.428,553.684,597.352,553.684z"/>
	<path fill-rule="evenodd" clip-rule="evenodd" fill="#FFFFFF" d="M56.023,649.995 M56.023,649.995h17.979l4.406-11.017h23.79
		l4.499,11.017h18.326l-26.259-62.127H82.287L56.023,649.995L56.023,649.995z M83.429,625.68l6.961-17.537l6.875,17.537H83.429
		L83.429,625.68z M131.014,649.995 M131.014,649.995h16.921v-33.839l26.347,33.839h14.982v-61.68h-16.919v32.602l-25.38-32.602
		h-15.95V649.995L131.014,649.995z M200.189,649.995 M200.189,649.995h23.445c22.205,0,35.159-13.212,35.159-31.011v-0.177
		c0-17.799-12.778-30.492-34.807-30.492h-23.797V649.995L200.189,649.995z M217.286,634.842V603.47h6.962
		c10.221,0,17.009,5.729,17.009,15.604v0.173c0,9.956-6.788,15.596-17.009,15.596H217.286L217.286,634.842z M292.014,649.995
		 M292.014,649.995h16.921v-33.839l26.347,33.839h14.978v-61.68H333.34v32.602l-25.378-32.602h-15.949V649.995L292.014,649.995z
		 M361.19,649.995 M361.19,649.995h50.054v-14.539h-33.135v-9.776h29.611v-13.486h-29.611v-9.339H410.8v-14.539h-49.61V649.995
		L361.19,649.995z M416.528,649.995 M435.034,649.995h17.097v-46.702h18.506v-14.978h-54.109v14.978h18.506V649.995L435.034,649.995
		z M473.983,649.995 M494.607,650.437h14.891l12.336-35.512l12.426,35.512h14.89l20.621-62.121h-17.713l-10.749,35.694
		l-11.894-35.87H514.7l-11.9,35.87l-10.749-35.694h-18.067L494.607,650.437z"/>
	<path fill-rule="evenodd" clip-rule="evenodd" fill="#FFFFFF" d="M570.916,649.995 M604.051,651.236
		c19.037,0,33.31-14.366,33.31-32.076v-0.176c0-17.71-14.097-31.909-33.134-31.909c-19.034,0-33.311,14.375-33.311,32.085v0.176
		C570.916,637.046,585.017,651.236,604.051,651.236L604.051,651.236z M604.227,635.817c-9.339,0-15.774-7.767-15.774-16.657v-0.176
		c0-8.909,6.254-16.481,15.598-16.481c9.431,0,15.86,7.748,15.86,16.657v0.176C619.911,628.235,613.657,635.817,604.227,635.817
		L604.227,635.817z M646.258,649.995 M646.258,649.995h17.097v-18.676h7.314h0.176l12.426,18.676h19.741l-14.72-21.506
		c7.665-3.251,12.69-9.505,12.69-18.941v-0.173c0-6.082-1.849-10.842-5.461-14.367c-4.143-4.226-10.666-6.692-20.096-6.692h-29.168
		V649.995L646.258,649.995z M663.355,617.932v-14.814h11.193c5.728,0,9.256,2.47,9.256,7.311v0.176c0,4.497-3.352,7.328-9.168,7.328
		H663.355L663.355,617.932z M709.619,649.995 M709.619,649.995h17.097v-15.953l6.254-6.958l15.512,22.911h20.534l-24.146-35.156
		l23.353-26.523h-20.269l-21.238,25.028v-25.028h-17.097V649.995L709.619,649.995z M794.92,649.995 M813.426,649.995h17.097v-46.702
		h18.506v-14.978H794.92v14.978h18.506V649.995L813.426,649.995z M856.518,649.995 M856.518,649.995h50.055v-14.539h-33.134v-9.776
		h29.611v-13.486h-29.611v-9.339h32.689v-14.539h-49.61V649.995L856.518,649.995z M910.363,649.995 M910.363,649.995h17.975
		l4.405-11.017h23.791l4.497,11.017h18.327l-26.26-62.127h-16.475L910.363,649.995L910.363,649.995z M937.769,625.68l6.958-17.537
		l6.875,17.537H937.769L937.769,625.68z M985.351,649.995 M985.351,649.995h16.745v-35.246l15.686,23.967h0.352l15.774-24.143
		v35.422h17.007v-61.68h-18.066l-14.715,23.878l-14.715-23.878h-18.067V649.995z"/>
</g>
<g>
	<path fill-rule="evenodd" clip-rule="evenodd" fill="#A97D34" d="M354.021,357.973c24.357,0,44.107,19.74,44.107,44.102
		c0,24.354-19.75,44.104-44.107,44.104s-44.107-19.749-44.107-44.104C309.913,377.713,329.663,357.973,354.021,357.973z"/>
	<polygon fill-rule="evenodd" clip-rule="evenodd" fill="#FFFFFF" points="52.71,446.211 52.71,144.719 295.204,144.719 
		295.204,215.781 135.412,215.781 135.412,261.439 295.204,261.439 295.204,327.331 135.412,327.331 135.412,375.14 295.204,375.14 
		295.204,446.211 	"/>
	<polygon fill-rule="evenodd" clip-rule="evenodd" fill="#25B3B5" points="397.74,327.331 315.04,244.589 315.04,144.719 
		370.224,144.719 517.045,304.082 517.045,244.589 599.741,327.331 599.741,446.211 556.412,446.211 397.74,280.819 	"/>
	<path fill-rule="evenodd" clip-rule="evenodd" fill="#FFFFFF" d="M644.718,217.935H517.045v-73.216h301.682v73.216h-90.449v169.838
		c0,32.61-37.974,58.438-83.561,58.438V217.935z"/>
</g>
</svg>
