<svg xmlns="http://www.w3.org/2000/svg" xmlns:xlink="http://www.w3.org/1999/xlink" viewBox="0 0 595.28 595.28"><defs><style>.cls-1,.cls-4{fill:none;}.cls-2{isolation:isolate;}.cls-3{clip-path:url(#clip-path);}.cls-4{opacity:0.1;font-size:93.52px;stroke:#fff;stroke-miterlimit:10;font-family:Poppins-Bold, Poppins;font-weight:700;}.cls-5{fill:#4e5154;}.cls-10,.cls-6{fill:#a5a5a7;}.cls-7{fill:#28a79f;}.cls-8{fill:#fff;}.cls-9{fill:#bfbfc0;}.cls-10{mix-blend-mode:multiply;}</style><clipPath id="clip-path"><rect class="cls-1" x="-878.13" y="-8.13" width="850.99" height="1208.54"/></clipPath></defs><g class="cls-2"><g id="Layer_2" data-name="Layer 2"><g class="cls-3"><text class="cls-4" transform="translate(-98.8 650)">#ENTGEN17</text><text class="cls-4" transform="translate(-333.95 565.26)">#ENTGEN17</text></g><polygon class="cls-5" points="480.9 506.84 420.66 551.26 196.79 279.12 287.15 212.5 480.9 506.84"/><path class="cls-6" d="M277.5,117.16A104.94,104.94,0,1,1,130.77,95,104.94,104.94,0,0,1,277.5,117.16Z"/><rect class="cls-7" x="204.11" y="261.32" width="198.26" height="135.18" transform="translate(-136.02 244.11) rotate(-36.4)"/><path class="cls-8" d="M264.41,325.52,302.35,377l-12.86,9.48L251.55,335l-19.83,14.62-7.32-9.94L277,300.93l7.32,9.93Z"/><path class="cls-8" d="M359.53,334.83l-13,9.61-68-44.67L292,289.88,333.66,320q4,3,11.77,9.22l-1.85-4.43L340,315.31l-16.48-48.73,13.29-9.79Z"/><rect class="cls-9" x="82.03" y="164.23" width="222.01" height="30.42" rx="12.89" transform="matrix(0.8, -0.59, 0.59, 0.8, -68.82, 149.55)"/><path class="cls-10" d="M200.79,284l18.51,22.83L307,242.2l-16.34-24.43A104.78,104.78,0,0,0,285,129.22L117.85,252.47A104.78,104.78,0,0,0,200.79,284Z"/><polygon class="cls-10" points="409.46 398.31 381.69 356.12 306.02 411.9 338.11 450.91 409.46 398.31"/><path class="cls-8" d="M129.75,151a13,13,0,1,1-18.12-2.74A13,13,0,0,1,129.75,151Z"/></g></g></svg>