<svg xmlns="http://www.w3.org/2000/svg" xmlns:xlink="http://www.w3.org/1999/xlink" viewBox="0 0 595.28 595.28"><defs><style>.cls-1,.cls-4{fill:none;}.cls-2{isolation:isolate;}.cls-3{clip-path:url(#clip-path);}.cls-4{opacity:0.1;font-size:93.52px;stroke:#fff;stroke-miterlimit:10;font-family:Poppins-Bold, Poppins;font-weight:700;}.cls-5{fill:#4e5154;}.cls-6,.cls-8,.cls-9{fill:#a5a5a7;}.cls-7{fill:#cbcbcb;}.cls-8,.cls-9{mix-blend-mode:multiply;}.cls-9{opacity:0.75;}.cls-10{fill:#fff;}.cls-11{fill:#ec5927;}</style><clipPath id="clip-path"><rect class="cls-1" x="-878.13" y="-8.13" width="850.99" height="1208.54"/></clipPath></defs><g class="cls-2"><g id="Layer_2" data-name="Layer 2"><g class="cls-3"><text class="cls-4" transform="translate(-98.8 650)">#ENTGEN17</text><text class="cls-4" transform="translate(-333.95 565.26)">#ENTGEN17</text></g><polygon class="cls-5" points="466.57 318.52 428.15 318.52 399.27 200.32 445.48 200.32 467.86 272.42 466.57 318.52"/><polygon class="cls-5" points="295.89 294.88 318.99 200.32 298.13 200.32 275.75 272.42 276.37 294.88 295.89 294.88"/><polygon class="cls-6" points="241.54 216.87 312.25 223.96 459.52 223.96 467.86 177.76 241.54 185.59 241.54 216.87"/><path class="cls-5" d="M487,367.87l-19.18-95.45H239.7a24.41,24.41,0,0,0-6.29.82l-64.62,16.91L63.6,267.34a24.08,24.08,0,0,0-16.12,1.86A22.73,22.73,0,0,0,35.7,283.7H47.36V412.8H35c.2.58.4,1.18.59,1.72,3.84,10.51,13.28,16.57,22.9,15l76.29-12.84c18-4.25,32.31-18.33,36.87-25.55h.05l44.48-2.82c4,0,8.48,21.52,13.07,31a17.4,17.4,0,0,0,14.35,10.08l197,9.77c13.71.67,26.62-7.63,33.53-21.57l9-18.08A49.71,49.71,0,0,0,487,367.87Z"/><path class="cls-6" d="M168.79,290.15l-.59-.12s2.6,102.36,3.43,101.05h.05l44.48-2.82L232.5,273.47Z"/><path class="cls-6" d="M63.6,267.34a24.08,24.08,0,0,0-16.12,1.86A22.73,22.73,0,0,0,35.7,283.7l11.66,11.19V403.83L35,412.8c.2.58.4,1.18.59,1.72,3.84,10.51,13.28,16.57,22.9,15l27.36-4.6V272.16Z"/><path class="cls-6" d="M375.75,376.11,273.57,358c-7.77-1.38-13.52-9.24-13.52-18.48V329.35c0-9.25,5.75-17.11,13.52-18.48L375.75,292.8c9.6-1.7,18.24,7.05,18.24,18.47v46.36C394,369.05,385.35,377.81,375.75,376.11Z"/><path class="cls-5" d="M378,334.45c0,11.58-8,21-17.82,21s-17.82-9.39-17.82-21,8-21,17.82-21S378,322.87,378,334.45Z"/><path class="cls-5" d="M524.09,163.69l-9.3,10.16-73.88,3.91V231h73.22l10.77,10A14.56,14.56,0,0,0,543,243l16.34-10.35c5.35-3.4,8.69-10,8.69-17.13V190c0-6.66-2.89-12.86-7.67-16.42l-16.18-12.08C537.85,156.79,529.59,157.68,524.09,163.69Z"/><polygon class="cls-6" points="495.71 174.86 463.56 176.57 463.56 231.02 495.71 231.02 495.71 174.86"/><path class="cls-5" d="M239.93,231.41H142.4c-11.11,0-20.12-10.61-20.12-23.69v-27c0-13.08,9-23.68,20.12-23.68h97.53c11.11,0,20.12,10.6,20.12,23.68v27C260.05,220.8,251,231.41,239.93,231.41Z"/><path class="cls-7" d="M179,209.62,96.72,202c-11.5-1.07-20.37-12.36-20.37-25.92v-.48c0-13.58,8.87-24.87,20.37-25.93L179,142c12.85-1.19,23.84,10.76,23.84,25.93v15.77C202.81,198.86,191.82,210.81,179,209.62Z"/><path class="cls-8" d="M147.37,144.93l-50.65,4.71C85.22,150.7,76.35,162,76.35,175.57v.48c0,13.56,8.87,24.85,20.37,25.92l50.65,4.71Z"/><polygon class="cls-6" points="440.95 416.12 251.59 405.48 238.53 369.37 250.58 369.37 260.63 394.84 433.56 405.48 448.71 369.08 436.58 314.86 445.17 311.54 458.05 368.44 440.95 416.12"/><path class="cls-8" d="M122.51,210.48c1.18,11.77,9.58,20.93,19.89,20.93h97.53c7.8,0,14.49-5.28,17.83-12.92l33.68,3.38L275.8,272.25h25.62L313.22,224H405l11.8,48.29h51L455,231h59.12l10.77,10A14.56,14.56,0,0,0,543,243l16.34-10.35c5.35-3.4,8.69-10,8.69-17.13v-5Z"/><path class="cls-9" d="M487,367.87l-6.64-33.06h-433v68.56L35,412.8c.2.58.4,1.18.59,1.72,3.84,10.51,13.28,16.57,22.9,15l76.29-12.84c18-4.25,32.31-18.33,36.87-25.55h.05l44.48-2.82c4,0,8.48,21.52,13.07,31a17.4,17.4,0,0,0,14.35,10.08l197,9.77c13.71.67,26.62-7.63,33.53-21.58l9-18.07A49.71,49.71,0,0,0,487,367.87Z"/><path class="cls-10" d="M102.17,162.58c0,4.83-3.34,8.76-7.45,8.76s-7.45-3.93-7.45-8.76,3.34-8.76,7.45-8.76S102.17,157.74,102.17,162.58Z"/><rect class="cls-11" x="222.38" y="171.34" width="16.14" height="19"/></g></g></svg>