<svg id="Layer_2" data-name="Layer 2" xmlns="http://www.w3.org/2000/svg" xmlns:xlink="http://www.w3.org/1999/xlink" viewBox="0 0 595.28 595.28"><defs><style>.cls-1,.cls-3{fill:none;}.cls-2{clip-path:url(#clip-path);}.cls-3{opacity:0.1;font-size:93.52px;stroke:#fff;stroke-miterlimit:10;font-family:Poppins-Bold, Poppins;font-weight:700;}.cls-4{fill:#25b3b4;}.cls-5,.cls-7{fill:#fff;}.cls-6{fill:#6f6f70;}.cls-7{font-size:100.2px;font-family:Montserrat-SemiBold, Montserrat;font-weight:600;}.cls-8{letter-spacing:-0.01em;}</style><clipPath id="clip-path"><rect class="cls-1" x="-878.13" y="-8.13" width="850.99" height="1208.54"/></clipPath></defs><g class="cls-2"><text class="cls-3" transform="translate(-98.8 650)">#ENTGEN17</text><text class="cls-3" transform="translate(-333.95 565.26)">#ENTGEN17</text></g><circle class="cls-4" cx="295.44" cy="293.41" r="248.31"/><path class="cls-5" d="M495.75,363.2a212.11,212.11,0,0,0,0-139.58,13.93,13.93,0,0,0-.67-1.91C465.62,139.92,387.25,81.28,295.44,81.28S125.25,139.92,95.79,221.71a13.93,13.93,0,0,0-.67,1.91,212.11,212.11,0,0,0,0,139.58,15.41,15.41,0,0,0,.67,1.91c29.47,81.79,107.83,140.43,199.65,140.43S465.62,446.9,495.08,365.11a13.93,13.93,0,0,0,.67-1.91ZM295.44,475.13c-8.08,0-21.11-14.62-32-47.28a334.13,334.13,0,0,1-12.52-53.6h89a333.32,333.32,0,0,1-12.52,53.6c-10.89,32.66-23.92,47.28-32,47.28Zm0-363.44c8.07,0,21.1,14.62,32,47.28A332.93,332.93,0,0,1,340,212.56h-89A332.68,332.68,0,0,1,263.44,159c10.89-32.66,23.92-47.28,32-47.28ZM458.15,212.56H370.66C365.24,175.27,356,141.81,343,118a182.54,182.54,0,0,1,115.2,94.56ZM247.92,118c-13,23.81-22.29,57.27-27.7,94.56h-87.5A182.54,182.54,0,0,1,247.92,118ZM132.72,374.25h87.5c5.41,37.3,14.69,70.76,27.7,94.57a182.58,182.58,0,0,1-115.2-94.57ZM343,468.82c13-23.81,22.29-57.27,27.71-94.57h87.49A182.58,182.58,0,0,1,343,468.82Zm0,0"/><rect class="cls-6" x="109.55" y="234.57" width="371.77" height="117.69" rx="12.39"/><text class="cls-7" transform="translate(158.31 319.14)"><tspan class="cls-8">ww</tspan><tspan x="182.17" y="0">w</tspan></text></svg>